<svg width="68" height="68" viewBox="0 0 68 68" fill="none" xmlns="http://www.w3.org/2000/svg">
<circle cx="33.9189" cy="33.9189" r="33.9189" fill="#CC29E7" fill-opacity="0.2"/>
<path fill-rule="evenodd" clip-rule="evenodd" d="M13.7838 25.7684L16.5771 25.7684C19.7859 25.7684 22.0734 25.7665 23.8477 25.586C25.5957 25.4082 26.6694 25.0703 27.5066 24.5108C28.3214 23.9664 29.021 23.2668 29.5654 22.452C30.1249 21.6148 30.4628 20.5411 30.6406 18.7932C30.8211 17.0188 30.823 14.7313 30.823 11.5225L33.9888 11.5225L33.9888 11.6108C33.9888 14.7119 33.9888 17.1603 33.7901 19.1135C33.5869 21.1118 33.1626 22.7667 32.1977 24.2108C31.4223 25.3713 30.4259 26.3677 29.2654 27.1431C27.8213 28.108 26.1664 28.5323 24.1681 28.7355C22.2148 28.9342 19.7664 28.9342 16.6654 28.9342L13.7838 28.9342L13.7838 25.7684Z" fill="#222628"/>
<path fill-rule="evenodd" clip-rule="evenodd" d="M35.4205 9.93962C35.4963 9.93963 35.5729 9.93964 35.6505 9.93964L37.1692 9.93964C40.4808 9.93962 43.0953 9.93961 45.1737 10.1648C47.3014 10.3953 49.0541 10.877 50.5577 11.9694C51.46 12.6249 52.2534 13.4184 52.9089 14.3206C54.0014 15.8242 54.483 17.577 54.7136 19.7047C54.9387 21.783 54.9387 24.3975 54.9387 27.7091V40.5611C54.9387 43.8727 54.9387 46.4872 54.7136 48.5656C54.483 50.6933 54.0014 52.446 52.9089 53.9496C52.2534 54.8519 51.46 55.6453 50.5577 56.3008C49.0541 57.3933 47.3014 57.8749 45.1737 58.1055C43.0953 58.3306 40.4807 58.3306 37.1691 58.3306H29.9705C26.6589 58.3306 24.0443 58.3306 21.9659 58.1055C19.8382 57.8749 18.0855 57.3933 16.5819 56.3008C15.6796 55.6453 14.8862 54.8519 14.2306 53.9496C13.1382 52.446 12.6566 50.6933 12.426 48.5656C12.2009 46.4872 12.2009 43.8727 12.2009 40.5611L12.2009 32.3523C12.2009 32.2482 12.2009 32.1454 12.2009 32.0438C12.2001 28.9664 12.1997 27.0101 12.8634 25.2194C13.082 24.6295 13.3526 24.0601 13.672 23.5181C14.6414 21.8727 16.1586 20.6378 18.5454 18.6951C18.6242 18.6309 18.7039 18.566 18.7846 18.5003L24.3703 13.9516C24.4305 13.9026 24.4899 13.8542 24.5487 13.8063C26.3512 12.338 27.497 11.4045 28.84 10.8207C29.2843 10.6276 29.7412 10.4651 30.2076 10.3343C31.6176 9.93895 33.0956 9.93921 35.4205 9.93962ZM35.6505 13.1054C33.0188 13.1054 32.0021 13.119 31.0623 13.3825C30.7348 13.4743 30.414 13.5884 30.1021 13.724C29.2069 14.1131 28.41 14.7446 26.3693 16.4064L20.7836 20.9551C18.0758 23.1602 17.0452 24.0292 16.3996 25.1251C16.1753 25.5057 15.9853 25.9054 15.8318 26.3196C15.3898 27.5123 15.3667 28.8601 15.3667 32.3523V40.4666C15.3667 43.8936 15.3688 46.3366 15.5734 48.2246C15.7747 50.0829 16.1568 51.2148 16.7918 52.0888C17.2521 52.7223 17.8092 53.2794 18.4427 53.7397C19.3167 54.3747 20.4486 54.7568 22.3069 54.9581C24.1949 55.1627 26.6379 55.1648 30.0648 55.1648H37.0748C40.5017 55.1648 42.9447 55.1627 44.8327 54.9581C46.691 54.7568 47.8229 54.3747 48.6969 53.7397C49.3304 53.2794 49.8875 52.7223 50.3478 52.0888C50.9828 51.2148 51.3649 50.0829 51.5662 48.2246C51.7708 46.3366 51.7729 43.8935 51.7729 40.4666V27.8036C51.7729 24.3767 51.7708 21.9337 51.5662 20.0457C51.3649 18.1873 50.9828 17.0554 50.3478 16.1814C49.8875 15.5479 49.3304 14.9908 48.6969 14.5306C47.8229 13.8955 46.691 13.5135 44.8327 13.3121C42.9447 13.1076 40.5017 13.1054 37.0748 13.1054H35.6505Z" fill="#222628"/>
<path fill-rule="evenodd" clip-rule="evenodd" d="M45.4414 47.0243C45.4414 47.8985 44.7327 48.6072 43.8585 48.6072L24.4117 48.6072C23.5375 48.6072 22.8288 47.8985 22.8288 47.0243C22.8288 46.1501 23.5375 45.4414 24.4117 45.4414L43.8585 45.4414C44.7327 45.4414 45.4414 46.1501 45.4414 47.0243Z" fill="#8E44F4"/>
<path fill-rule="evenodd" clip-rule="evenodd" d="M38.6576 37.9793C38.6576 38.8535 37.9489 39.5621 37.0747 39.5621L24.4117 39.5621C23.5375 39.5621 22.8288 38.8535 22.8288 37.9793C22.8288 37.1051 23.5375 36.3964 24.4117 36.3964L37.0747 36.3964C37.9489 36.3964 38.6576 37.1051 38.6576 37.9793Z" fill="#8E44F4"/>
</svg>
