<svg width="69" height="69" viewBox="0 0 69 69" fill="none" xmlns="http://www.w3.org/2000/svg">
<circle cx="34.5039" cy="34.8656" r="33.9189" fill="#F48C06" fill-opacity="0.2"/>
<path fill-rule="evenodd" clip-rule="evenodd" d="M27.8224 51.9863L51.4661 23.8466C51.8946 23.3367 51.8289 22.7372 51.5412 22.3983C50.4872 21.157 49.307 19.8788 48.3224 19.0514C47.3173 18.207 45.787 17.2188 44.3234 16.3535C43.9241 16.1174 43.3097 16.1627 42.8806 16.6734L19.2569 44.7894C18.726 45.4212 18.4487 46.1793 18.4461 46.934C18.4403 48.5939 18.4674 50.8078 18.6051 52.6737C18.6447 53.2096 18.6914 53.6871 18.7437 54.0957C19.1552 54.0769 19.6336 54.0405 20.1684 53.9871C22.03 53.8012 24.2155 53.4464 25.8496 53.1546C26.5925 53.022 27.2915 52.6181 27.8224 51.9863ZM45.9347 13.6284C44.1164 12.5534 41.8157 13.0197 40.4569 14.6369L16.8331 42.7528C15.8483 43.9248 15.2857 45.3922 15.2803 46.9229C15.2685 50.2923 15.3873 56.1642 16.336 56.9613C17.2847 57.7584 23.0892 56.8634 26.4061 56.2711C27.913 56.002 29.2614 55.1949 30.2461 54.0229L53.8899 25.8832C55.2395 24.2768 55.3124 21.9487 53.9544 20.3493C52.8732 19.0759 51.554 17.6318 50.3589 16.6277C49.1447 15.6075 47.4275 14.5111 45.9347 13.6284Z" fill="#222628"/>
<path fill-rule="evenodd" clip-rule="evenodd" d="M39.038 20.4319C39.038 20.432 39.0379 20.4318 39.038 20.4319L39.0415 20.4373L39.0582 20.4625L39.1288 20.5682C39.192 20.6617 39.286 20.7993 39.406 20.9698C39.6466 21.3116 39.9882 21.7809 40.3913 22.2899C41.2312 23.3505 42.216 24.4254 43.0484 24.9734C44.0801 25.6526 45.249 26.3681 46.1671 26.9177C46.6246 27.1915 47.0166 27.4223 47.2939 27.5844C47.4325 27.6654 47.5423 27.7291 47.6171 27.7725L47.7022 27.8217L47.7288 27.837C47.7288 27.837 47.7302 27.8378 46.9415 29.2102M37.7116 21.2958L36.3853 22.1597C35.9082 21.4272 36.1152 20.4466 36.8477 19.9695C37.5801 19.4925 38.5607 19.6998 39.038 20.4319C39.038 20.432 39.0379 20.4318 39.038 20.4319M46.9415 29.2102C46.1529 30.5826 46.1528 30.5826 46.1528 30.5826L46.1204 30.5639L46.0304 30.5119C45.9523 30.4667 45.8388 30.4008 45.6963 30.3175C45.4114 30.1509 45.0097 29.9145 44.5411 29.634C43.607 29.0748 42.3941 28.3329 41.3075 27.6175C40.0216 26.7709 38.7732 25.346 37.9096 24.2554C37.4609 23.6888 37.0831 23.1697 36.8172 22.792C36.684 22.6027 36.578 22.4477 36.5045 22.3387C36.4677 22.2842 36.4389 22.241 36.4189 22.2108L36.3953 22.1751L36.3886 22.1648L36.3853 22.1597C36.3852 22.1595 36.3853 22.1597 37.7116 21.2958" fill="#222628"/>
<path fill-rule="evenodd" clip-rule="evenodd" d="M41.2885 55.8931C41.2885 55.0189 41.9971 54.3102 42.8713 54.3102H57.7956C58.6698 54.3102 59.3785 55.0189 59.3785 55.8931C59.3785 56.7673 58.6698 57.4759 57.7956 57.4759H42.8713C41.9971 57.4759 41.2885 56.7673 41.2885 55.8931Z" fill="#8E44F4"/>
</svg>
