<svg width="68" height="68" viewBox="0 0 68 68" fill="none" xmlns="http://www.w3.org/2000/svg">
<circle cx="33.9189" cy="33.9189" r="33.9189" fill="#637BFF" fill-opacity="0.2"/>
<path fill-rule="evenodd" clip-rule="evenodd" d="M46.5485 43.2405C44.9438 41.6609 42.5049 41.2933 40.5059 42.3298L37.125 44.0829C36.3489 44.4853 35.3936 44.1824 34.9912 43.4063C34.5888 42.6302 34.8917 41.6748 35.6678 41.2724L39.0487 39.5194C42.2644 37.852 46.1879 38.4433 48.7693 40.9844L55.5969 47.7053C56.2199 48.3185 56.2278 49.3207 55.6145 49.9437C55.0012 50.5667 53.999 50.5746 53.376 49.9613L46.5485 43.2405Z" fill="#222628"/>
<path fill-rule="evenodd" clip-rule="evenodd" d="M30.8097 40.7702C28.5278 38.0725 24.6667 37.345 21.5595 39.0273L13.4068 43.4415C12.638 43.8577 11.6774 43.5719 11.2612 42.8032C10.845 42.0344 11.1307 41.0738 11.8995 40.6576L20.0522 36.2434C24.4775 33.8473 29.9768 34.8835 33.2268 38.7257L46.6499 54.5948C47.2145 55.2623 47.1311 56.261 46.4636 56.8256C45.7962 57.3902 44.7974 57.3068 44.2329 56.6393L30.8097 40.7702Z" fill="#8E44F4"/>
<path fill-rule="evenodd" clip-rule="evenodd" d="M42.1409 23.2811C40.5173 23.2811 39.2012 24.5972 39.2012 26.2207C39.2012 27.8442 40.5173 29.1603 42.1409 29.1603C43.7644 29.1603 45.0805 27.8442 45.0805 26.2207C45.0805 24.5972 43.7644 23.2811 42.1409 23.2811ZM36.0355 26.2207C36.0355 22.8488 38.7689 20.1153 42.1409 20.1153C45.5128 20.1153 48.2463 22.8488 48.2463 26.2207C48.2463 29.5926 45.5128 32.3261 42.1409 32.3261C38.7689 32.3261 36.0355 29.5926 36.0355 26.2207Z" fill="#8E44F4"/>
<path fill-rule="evenodd" clip-rule="evenodd" d="M34.0549 9.93964H34.2153C38.3743 9.93963 41.6034 9.93963 44.1819 10.1733C46.7986 10.4105 48.9001 10.8983 50.7554 11.9694C53.0585 13.2991 54.9711 15.2117 56.3008 17.5149C57.3719 19.3701 57.8597 21.4716 58.0969 24.0884C58.3306 26.6668 58.3306 29.896 58.3306 34.0551V34.2151C58.3306 38.3742 58.3306 41.6034 58.0969 44.1819C57.8597 46.7986 57.3719 48.9001 56.3008 50.7554C54.9711 53.0585 53.0585 54.9711 50.7554 56.3008C48.9001 57.3719 46.7986 57.8598 44.1819 58.0969C41.6034 58.3306 38.3742 58.3306 34.2151 58.3306H34.0551C29.896 58.3306 26.6668 58.3306 24.0883 58.0969C21.4716 57.8598 19.3701 57.3719 17.5149 56.3008C15.2117 54.9711 13.2991 53.0585 11.9694 50.7554C10.8983 48.9001 10.4105 46.7986 10.1733 44.1819C9.93962 41.6034 9.93963 38.3743 9.93964 34.2153V34.0549C9.93963 29.896 9.93962 26.6668 10.1733 24.0884C10.4105 21.4716 10.8983 19.3701 11.9694 17.5149C13.2991 15.2117 15.2117 13.2991 17.5149 11.9694C19.3701 10.8983 21.4716 10.4105 24.0883 10.1733C26.6668 9.93963 29.896 9.93963 34.0549 9.93964ZM24.3741 13.3262C21.9769 13.5434 20.3908 13.9645 19.0977 14.711C17.2758 15.7629 15.7629 17.2758 14.711 19.0977C13.9645 20.3909 13.5434 21.9769 13.3262 24.3741C13.1069 26.793 13.1054 29.8792 13.1054 34.1351C13.1054 38.3911 13.1069 41.4772 13.3262 43.8961C13.5434 46.2933 13.9645 47.8794 14.711 49.1725C15.7629 50.9944 17.2758 52.5073 19.0977 53.5592C20.3908 54.3058 21.9769 54.7268 24.3741 54.9441C26.793 55.1633 29.8792 55.1648 34.1351 55.1648C38.3911 55.1648 41.4772 55.1633 43.8961 54.9441C46.2933 54.7268 47.8794 54.3058 49.1725 53.5592C50.9944 52.5073 52.5073 50.9944 53.5592 49.1725C54.3058 47.8794 54.7268 46.2933 54.9441 43.8961C55.1633 41.4772 55.1648 38.3911 55.1648 34.1351C55.1648 29.8792 55.1633 26.793 54.9441 24.3741C54.7268 21.9769 54.3058 20.3909 53.5592 19.0977C52.5073 17.2758 50.9944 15.7629 49.1725 14.711C47.8794 13.9645 46.2933 13.5434 43.8961 13.3262C41.4772 13.1069 38.3911 13.1054 34.1351 13.1054C29.8792 13.1054 26.793 13.1069 24.3741 13.3262Z" fill="#222628"/>
</svg>
