<svg width="68" height="68" viewBox="0 0 68 68" fill="none" xmlns="http://www.w3.org/2000/svg">
<circle cx="33.9189" cy="33.9189" r="33.9189" fill="#29B9E7" fill-opacity="0.2"/>
<path fill-rule="evenodd" clip-rule="evenodd" d="M47.59 9.93964C47.627 9.93964 47.6646 9.93964 47.7027 9.93964C47.7408 9.93964 47.7783 9.93964 47.8154 9.93964C48.7576 9.93955 49.3653 9.93949 49.8967 9.99936C54.2998 10.4955 57.7748 13.9704 58.2709 18.3736C58.3307 18.9049 58.3307 19.5127 58.3306 20.4548C58.3306 20.4919 58.3306 20.5295 58.3306 20.5676C58.3306 20.6057 58.3306 20.6432 58.3306 20.6803C58.3307 21.6225 58.3307 22.2302 58.2709 22.7615C57.7748 27.1647 54.2998 30.6396 49.8967 31.1358C49.3653 31.1956 48.7576 31.1956 47.8154 31.1955C47.7784 31.1955 47.7408 31.1955 47.7027 31.1955C47.6646 31.1955 47.627 31.1955 47.5899 31.1955C46.6478 31.1956 46.0401 31.1956 45.5087 31.1358C41.1056 30.6396 37.6306 27.1647 37.1345 22.7615C37.0746 22.2302 37.0747 21.6224 37.0747 20.6802C37.0747 20.6432 37.0748 20.6056 37.0748 20.5676C37.0748 20.5295 37.0747 20.4919 37.0747 20.4549C37.0747 19.5127 37.0746 18.905 37.1345 18.3736C37.6306 13.9704 41.1056 10.4955 45.5087 9.99936C46.0401 9.93949 46.6478 9.93955 47.59 9.93964ZM47.7027 13.1054C46.6095 13.1054 46.1942 13.1079 45.8631 13.1452C42.9277 13.476 40.6111 15.7926 40.2803 18.728C40.243 19.0591 40.2405 19.4744 40.2405 20.5676C40.2405 21.6607 40.243 22.076 40.2803 22.4071C40.6111 25.3425 42.9277 27.6592 45.8631 27.9899C46.1942 28.0272 46.6095 28.0297 47.7027 28.0297C48.7958 28.0297 49.2111 28.0272 49.5422 27.9899C52.4776 27.6592 54.7943 25.3425 55.125 22.4071C55.1623 22.076 55.1648 21.6607 55.1648 20.5676C55.1648 19.4744 55.1623 19.0591 55.125 18.728C54.7943 15.7926 52.4776 13.476 49.5422 13.1452C49.2111 13.1079 48.7958 13.1054 47.7027 13.1054Z" fill="#8E44F4"/>
<path fill-rule="evenodd" clip-rule="evenodd" d="M47.59 34.8135C47.627 34.8135 47.6646 34.8135 47.7027 34.8135C47.7408 34.8135 47.7783 34.8135 47.8154 34.8135C48.7576 34.8134 49.3653 34.8133 49.8967 34.8732C54.2998 35.3693 57.7748 38.8443 58.2709 43.2474C58.3307 43.7788 58.3307 44.3865 58.3306 45.3287C58.3306 45.3657 58.3306 45.4033 58.3306 45.4414C58.3306 45.4795 58.3306 45.5171 58.3306 45.5541C58.3307 46.4963 58.3307 47.104 58.2709 47.6354C57.7748 52.0385 54.2998 55.5135 49.8967 56.0096C49.3653 56.0695 48.7576 56.0694 47.8154 56.0693C47.7784 56.0693 47.7408 56.0693 47.7027 56.0693C47.6646 56.0693 47.627 56.0693 47.5899 56.0693C46.6478 56.0694 46.0401 56.0695 45.5087 56.0096C41.1056 55.5135 37.6306 52.0385 37.1345 47.6354C37.0746 47.104 37.0747 46.4963 37.0747 45.5541C37.0747 45.5171 37.0748 45.4795 37.0748 45.4414C37.0748 45.4033 37.0747 45.3658 37.0747 45.3287C37.0747 44.3865 37.0746 43.7788 37.1345 43.2474C37.6306 38.8443 41.1056 35.3693 45.5087 34.8732C46.0401 34.8133 46.6478 34.8134 47.59 34.8135ZM47.7027 37.9793C46.6095 37.9793 46.1942 37.9818 45.8631 38.0191C42.9277 38.3498 40.6111 40.6665 40.2803 43.6019C40.243 43.9329 40.2405 44.3483 40.2405 45.4414C40.2405 46.5345 40.243 46.9499 40.2803 47.2809C40.6111 50.2164 42.9277 52.533 45.8631 52.8638C46.1942 52.9011 46.6095 52.9036 47.7027 52.9036C48.7958 52.9036 49.2111 52.9011 49.5422 52.8638C52.4776 52.533 54.7943 50.2164 55.125 47.2809C55.1623 46.9499 55.1648 46.5345 55.1648 45.4414C55.1648 44.3483 55.1623 43.9329 55.125 43.6019C54.7943 40.6665 52.4776 38.3498 49.5422 38.0191C49.2111 37.9818 48.7958 37.9793 47.7027 37.9793Z" fill="#222628"/>
<path fill-rule="evenodd" clip-rule="evenodd" d="M20.4549 9.93964C20.4919 9.93964 20.5295 9.93964 20.5676 9.93964C20.6056 9.93964 20.6432 9.93964 20.6802 9.93964C21.6224 9.93955 22.2302 9.93949 22.7615 9.99936C27.1647 10.4955 30.6396 13.9704 31.1358 18.3736C31.1956 18.9049 31.1956 19.5127 31.1955 20.4548C31.1955 20.4919 31.1955 20.5295 31.1955 20.5676C31.1955 20.6057 31.1955 20.6432 31.1955 20.6803C31.1956 21.6225 31.1956 22.2302 31.1358 22.7615C30.6396 27.1647 27.1647 30.6396 22.7615 31.1358C22.2302 31.1956 21.6225 31.1956 20.6803 31.1955C20.6432 31.1955 20.6057 31.1955 20.5676 31.1955C20.5295 31.1955 20.4919 31.1955 20.4548 31.1955C19.5127 31.1956 18.9049 31.1956 18.3736 31.1358C13.9704 30.6396 10.4955 27.1647 9.99936 22.7615C9.93949 22.2302 9.93955 21.6224 9.93964 20.6802C9.93964 20.6432 9.93964 20.6056 9.93964 20.5676C9.93964 20.5295 9.93964 20.4919 9.93964 20.4549C9.93955 19.5127 9.93949 18.905 9.99936 18.3736C10.4955 13.9704 13.9704 10.4955 18.3736 9.99936C18.905 9.93949 19.5127 9.93955 20.4549 9.93964ZM20.5676 13.1054C19.4744 13.1054 19.0591 13.1079 18.728 13.1452C15.7926 13.476 13.476 15.7926 13.1452 18.728C13.1079 19.0591 13.1054 19.4744 13.1054 20.5676C13.1054 21.6607 13.1079 22.076 13.1452 22.4071C13.476 25.3425 15.7926 27.6592 18.728 27.9899C19.0591 28.0272 19.4744 28.0297 20.5676 28.0297C21.6607 28.0297 22.076 28.0272 22.4071 27.9899C25.3425 27.6592 27.6592 25.3425 27.9899 22.4071C28.0272 22.076 28.0297 21.6607 28.0297 20.5676C28.0297 19.4744 28.0272 19.0591 27.9899 18.728C27.6592 15.7926 25.3425 13.476 22.4071 13.1452C22.076 13.1079 21.6607 13.1054 20.5676 13.1054Z" fill="#222628"/>
<path fill-rule="evenodd" clip-rule="evenodd" d="M20.4549 34.8135C20.4919 34.8135 20.5295 34.8135 20.5676 34.8135C20.6056 34.8135 20.6432 34.8135 20.6802 34.8135C21.6224 34.8134 22.2302 34.8133 22.7615 34.8732C27.1647 35.3693 30.6396 38.8443 31.1358 43.2474C31.1956 43.7788 31.1956 44.3865 31.1955 45.3287C31.1955 45.3657 31.1955 45.4033 31.1955 45.4414C31.1955 45.4795 31.1955 45.5171 31.1955 45.5541C31.1956 46.4963 31.1956 47.104 31.1358 47.6354C30.6396 52.0385 27.1647 55.5135 22.7615 56.0096C22.2302 56.0695 21.6225 56.0694 20.6803 56.0693C20.6432 56.0693 20.6057 56.0693 20.5676 56.0693C20.5295 56.0693 20.4919 56.0693 20.4548 56.0693C19.5127 56.0694 18.9049 56.0695 18.3736 56.0096C13.9704 55.5135 10.4955 52.0385 9.99936 47.6354C9.93949 47.104 9.93955 46.4963 9.93964 45.5541C9.93964 45.5171 9.93964 45.4795 9.93964 45.4414C9.93964 45.4033 9.93964 45.3658 9.93964 45.3287C9.93955 44.3865 9.93949 43.7788 9.99936 43.2474C10.4955 38.8443 13.9704 35.3693 18.3736 34.8732C18.905 34.8133 19.5127 34.8134 20.4549 34.8135ZM20.5676 37.9793C19.4744 37.9793 19.0591 37.9818 18.728 38.0191C15.7926 38.3498 13.476 40.6665 13.1452 43.6019C13.1079 43.9329 13.1054 44.3483 13.1054 45.4414C13.1054 46.5345 13.1079 46.9499 13.1452 47.2809C13.476 50.2164 15.7926 52.533 18.728 52.8638C19.0591 52.9011 19.4744 52.9036 20.5676 52.9036C21.6607 52.9036 22.076 52.9011 22.4071 52.8638C25.3425 52.533 27.6592 50.2164 27.9899 47.2809C28.0272 46.9499 28.0297 46.5345 28.0297 45.4414C28.0297 44.3483 28.0272 43.9329 27.9899 43.6019C27.6592 40.6665 25.3425 38.3498 22.4071 38.0191C22.076 37.9818 21.6607 37.9793 20.5676 37.9793Z" fill="#222628"/>
</svg>
