<svg width="68" height="68" viewBox="0 0 68 68" fill="none" xmlns="http://www.w3.org/2000/svg">
<g clip-path="url(#clip0_59_102)">
<path d="M42.0495 31.8739C43.9264 31.8739 45.4414 30.3588 45.4414 28.482C45.4414 26.6051 43.9264 25.0901 42.0495 25.0901C40.1727 25.0901 38.6576 26.6051 38.6576 28.482C38.6576 30.3588 40.1727 31.8739 42.0495 31.8739ZM26.2207 31.8739C28.0976 31.8739 29.6126 30.3588 29.6126 28.482C29.6126 26.6051 28.0976 25.0901 26.2207 25.0901C24.3439 25.0901 22.8288 26.6051 22.8288 28.482C22.8288 30.3588 24.3439 31.8739 26.2207 31.8739ZM34.1125 11.5225C21.6304 11.5225 11.5225 21.653 11.5225 34.1351C11.5225 46.6173 21.6304 56.7477 34.1125 56.7477C46.6173 56.7477 56.7477 46.6173 56.7477 34.1351C56.7477 21.653 46.6173 11.5225 34.1125 11.5225ZM34.1351 52.2252C24.1403 52.2252 16.045 44.1299 16.045 34.1351C16.045 24.1403 24.1403 16.045 34.1351 16.045C44.1299 16.045 52.2252 24.1403 52.2252 34.1351C52.2252 44.1299 44.1299 52.2252 34.1351 52.2252ZM34.1351 43.1802C30.7998 43.1802 27.9167 41.3485 26.3451 38.6576H22.5575C24.3665 43.2819 28.8664 46.572 34.1351 46.572C39.4038 46.572 43.9038 43.2819 45.7128 38.6576H41.9252C40.3536 41.3485 37.4705 43.1802 34.1351 43.1802Z" fill="black"/>
</g>
<circle cx="33.9189" cy="33.9189" r="33.9189" fill="#E72929" fill-opacity="0.2"/>
<defs>
<clipPath id="clip0_59_102">
<rect width="54.2702" height="54.2702" fill="white" transform="translate(7 7)"/>
</clipPath>
</defs>
</svg>
