<svg width="47" height="47" viewBox="0 0 47 47" fill="none" xmlns="http://www.w3.org/2000/svg">
<g clip-path="url(#clip0_773_2368)">
<path d="M28.9384 23.1506C33.2019 23.1506 36.6552 19.6876 36.6552 15.4337C36.6552 11.1701 33.2019 7.7168 28.9384 7.7168C24.6748 7.7168 21.2215 11.1701 21.2215 15.4337C21.2215 19.6876 24.6748 23.1506 28.9384 23.1506ZM11.5753 19.2921V13.5045H7.7169V19.2921H1.92923V23.1506H7.7169V28.9383H11.5753V23.1506H17.363V19.2921H11.5753ZM28.9384 27.009C23.797 27.009 13.5046 29.5845 13.5046 34.7259V38.5844H44.3721V34.7259C44.3721 29.5845 34.0797 27.009 28.9384 27.009Z" fill="#ACAACC"/>
</g>
<defs>
<clipPath id="clip0_773_2368">
<rect width="46.3014" height="46.3014" fill="white"/>
</clipPath>
</defs>
</svg>
