<svg width="20" height="21" viewBox="0 0 20 21" fill="none" xmlns="http://www.w3.org/2000/svg">
<g clip-path="url(#clip0_1_76)">
<path d="M15.3384 11.8148L6.81922 20.3411C6.55506 20.6055 6.23586 20.7377 5.86164 20.7377C5.48741 20.7377 5.15721 20.6055 4.87103 20.3411C4.58486 20.0767 4.44177 19.7462 4.44177 19.3497C4.44177 18.9531 4.59587 18.6226 4.90405 18.3582L12.4326 10.8234L4.90405 3.28848C4.59587 3.0241 4.44177 2.69363 4.44177 2.29705C4.44177 1.90048 4.58486 1.57 4.87103 1.30562C5.15721 1.04124 5.48741 0.90905 5.86164 0.90905C6.23586 0.90905 6.55506 1.04124 6.81922 1.30562L15.3384 9.83193C15.6466 10.0963 15.8007 10.4268 15.8007 10.8234C15.8007 11.2199 15.6466 11.5504 15.3384 11.8148Z" fill="#050B20"/>
</g>
<defs>
<clipPath id="clip0_1_76">
<rect width="19.7625" height="19.8286" fill="white" transform="matrix(1 0 0 -1 0.204712 20.7383)"/>
</clipPath>
</defs>
</svg>
