<svg width="24" height="24" viewBox="0 0 24 24" fill="none" xmlns="http://www.w3.org/2000/svg">
<path d="M3.26645 0.495572C2.66223 -0.107899 1.68256 -0.107899 1.07816 0.495572C0.473947 1.1009 0.473947 2.07948 1.07816 2.68481L10.0138 11.6199L1.07834 20.555C0.473945 21.1603 0.473945 22.1389 1.07834 22.7442C1.68256 23.3477 2.66242 23.3477 3.26663 22.7442L12.203 13.8091L21.1381 22.7442C21.7415 23.3477 22.722 23.3477 23.3254 22.7442C23.9308 22.1389 23.9308 21.1603 23.3254 20.555L14.3904 11.6199L23.3254 2.68481C23.9308 2.07948 23.9308 1.1009 23.3254 0.495572C22.722 -0.107899 21.7415 -0.107899 21.1381 0.495572L12.203 9.43067L3.26645 0.495572Z" fill="#818181"/>
</svg>
