<svg width="40" height="40" viewBox="0 0 40 40" fill="none" xmlns="http://www.w3.org/2000/svg">
<path fill-rule="evenodd" clip-rule="evenodd" d="M9.12172 12.1679C9.76558 12.1431 10.3076 12.645 10.3324 13.2888L10.9191 28.5451C11.0327 31.4985 13.4588 33.8337 16.4138 33.8337H23.5847C26.54 33.8337 28.9671 31.4982 29.0806 28.5451L29.6674 13.2888C29.6922 12.645 30.2342 12.1431 30.8781 12.1679C31.5219 12.1926 32.0238 12.7347 31.999 13.3785L31.4123 28.6347C31.2505 32.8407 27.7938 36.167 23.5847 36.167H16.4138C12.2044 36.167 8.74929 32.8404 8.58753 28.6347L8.00076 13.3785C7.97599 12.7347 8.47787 12.1926 9.12172 12.1679Z" fill="#222628"/>
<path fill-rule="evenodd" clip-rule="evenodd" d="M26.1666 8.19164C26.1666 8.83597 25.6443 9.35831 25 9.35831L22.3797 9.35831L22.1914 8.43066C22.1912 8.42977 22.1909 8.42861 22.1906 8.42719C22.1886 8.41881 22.1844 8.40153 22.1776 8.37663C22.1639 8.32655 22.1404 8.24739 22.1045 8.14907C22.0314 7.9489 21.9143 7.68914 21.7405 7.43704C21.4088 6.95605 20.8994 6.52444 20 6.52444C19.1006 6.52445 18.5912 6.95606 18.2595 7.43704C18.0856 7.68914 17.9686 7.94889 17.8955 8.14906C17.8596 8.24738 17.836 8.32654 17.8224 8.37661C17.8156 8.40152 17.8114 8.4188 17.8094 8.42718C17.8091 8.4286 17.8088 8.42975 17.8086 8.43065L17.6203 9.35829L15 9.35829C14.3556 9.35829 13.8333 8.83596 13.8333 8.19163C13.8333 7.54729 14.3556 7.02496 15 7.02496L15.8334 7.02496C15.9533 6.74996 16.1175 6.43305 16.3386 6.11237C16.9841 5.17643 18.1413 4.19111 20 4.19111C21.8586 4.1911 23.0159 5.17643 23.6613 6.11237C23.8825 6.43306 24.0466 6.74997 24.1666 7.02497L25 7.02497C25.6443 7.02497 26.1666 7.54731 26.1666 8.19164Z" fill="#8E44F4"/>
<path fill-rule="evenodd" clip-rule="evenodd" d="M23.3333 22.167C23.9777 22.167 24.5 22.6893 24.5 23.3337V26.667C24.5 27.3113 23.9777 27.8337 23.3333 27.8337C22.689 27.8337 22.1667 27.3113 22.1667 26.667V23.3337C22.1667 22.6893 22.689 22.167 23.3333 22.167Z" fill="#8E44F4"/>
<path fill-rule="evenodd" clip-rule="evenodd" d="M16.6666 22.167C17.3109 22.167 17.8333 22.6893 17.8333 23.3337V26.667C17.8333 27.3113 17.3109 27.8337 16.6666 27.8337C16.0223 27.8337 15.4999 27.3113 15.4999 26.667V23.3337C15.4999 22.6893 16.0223 22.167 16.6666 22.167Z" fill="#8E44F4"/>
<path fill-rule="evenodd" clip-rule="evenodd" d="M34.4955 9.60195C34.4393 10.2438 33.8734 10.7186 33.2316 10.6625L30.3585 10.4111C23.4659 9.80797 16.5339 9.80797 9.64141 10.4111L6.76829 10.6625C6.12641 10.7186 5.56053 10.2438 5.50437 9.60195C5.4482 8.96007 5.92302 8.39419 6.5649 8.33803L9.43802 8.08663C16.4659 7.47168 23.534 7.47168 30.5618 8.08663L33.435 8.33803C34.0768 8.39419 34.5517 8.96007 34.4955 9.60195Z" fill="#222628"/>
</svg>
