<svg width="35" height="34" viewBox="0 0 35 34" fill="none" xmlns="http://www.w3.org/2000/svg">
<g clip-path="url(#clip0_215_7421)">
<path d="M16.8451 2.48338L1.16557 30.5412C1.08585 30.6838 1.04478 30.8447 1.04643 31.0081C1.04809 31.1715 1.09242 31.3316 1.17502 31.4725C1.25762 31.6135 1.37562 31.7304 1.51734 31.8117C1.65905 31.8929 1.81955 31.9358 1.98292 31.9359H33.342C33.5053 31.9358 33.6658 31.8929 33.8075 31.8117C33.9493 31.7304 34.0673 31.6135 34.1499 31.4725C34.2325 31.3316 34.2768 31.1715 34.2784 31.0081C34.2801 30.8447 34.239 30.6838 34.1593 30.5412L18.4798 2.48338C18.3983 2.33823 18.2796 2.2174 18.136 2.1333C17.9923 2.04921 17.8289 2.00488 17.6624 2.00488C17.496 2.00488 17.3325 2.04921 17.1889 2.1333C17.0452 2.2174 16.9266 2.33823 16.8451 2.48338ZM19.5371 27.718C19.5371 27.8423 19.4877 27.9615 19.3998 28.0494C19.3119 28.1372 19.1927 28.1866 19.0684 28.1866H16.2565C16.1322 28.1866 16.013 28.1372 15.9251 28.0494C15.8372 27.9615 15.7878 27.8423 15.7878 27.718V24.906C15.7878 24.7817 15.8372 24.6625 15.9251 24.5746C16.013 24.4867 16.1322 24.4373 16.2565 24.4373H19.0684C19.1927 24.4373 19.3119 24.4867 19.3998 24.5746C19.4877 24.6625 19.5371 24.7817 19.5371 24.906V27.718ZM19.5371 22.094C19.5371 22.2183 19.4877 22.3375 19.3998 22.4254C19.3119 22.5133 19.1927 22.5627 19.0684 22.5627H16.2565C16.1322 22.5627 16.013 22.5133 15.9251 22.4254C15.8372 22.3375 15.7878 22.2183 15.7878 22.094V10.8462C15.7878 10.7219 15.8372 10.6027 15.9251 10.5148C16.013 10.4269 16.1322 10.3775 16.2565 10.3775H19.0684C19.1927 10.3775 19.3119 10.4269 19.3998 10.5148C19.4877 10.6027 19.5371 10.7219 19.5371 10.8462V22.094Z" fill="#B40000"/>
</g>
<defs>
<clipPath id="clip0_215_7421">
<rect width="33.7436" height="33.7436" fill="white" transform="translate(0.790527 0.0664062)"/>
</clipPath>
</defs>
</svg>
