<svg width="61" height="62" viewBox="0 0 61 62" fill="none" xmlns="http://www.w3.org/2000/svg">
<g clip-path="url(#clip0_493_2753)">
<path d="M48.5536 5.02051H20.6422V16.5951H54.5148V10.9793C54.5148 7.69333 51.8406 5.02051 48.5536 5.02051Z" fill="#CED9F9"/>
<path d="M32.7539 18.3765H0.108643V7.63649C0.108643 3.70107 3.3111 0.5 7.24792 0.5H17.6857C18.7232 0.5 19.7226 0.718635 20.6306 1.12944C21.8988 1.70087 22.9882 2.64271 23.7523 3.87328L32.7539 18.3765Z" fill="#ACAACC"/>
<path d="M60.9512 20.7811V55.3764C60.9512 58.6666 58.2728 61.3427 54.9813 61.3427H6.07862C2.78703 61.3427 0.108643 58.6666 0.108643 55.3764V14.8135H54.9813C58.2728 14.8135 60.9512 17.4905 60.9512 20.7811Z" fill="#716CC4"/>
<path d="M60.9512 20.7811V55.3764C60.9512 58.6666 58.2728 61.3427 54.9812 61.3427H30.5299V14.8135H54.9812C58.2728 14.8135 60.9512 17.4905 60.9512 20.7811Z" fill="#9490D3"/>
<path d="M46.5343 38.0767C46.5343 46.9024 39.3547 54.0825 30.5299 54.0825C21.7052 54.0825 14.5255 46.9024 14.5255 38.0767C14.5255 29.2524 21.7052 22.0723 30.5299 22.0723C39.3547 22.0723 46.5343 29.2524 46.5343 38.0767Z" fill="#E7ECFC"/>
<path d="M46.5343 38.0767C46.5343 46.9024 39.3547 54.0825 30.5299 54.0825V22.0723C39.3547 22.0723 46.5343 29.2524 46.5343 38.0767Z" fill="#CED9F9"/>
<path d="M35.6885 38.2737C35.3548 38.5564 34.9458 38.6942 34.5406 38.6942C34.0332 38.6942 33.5291 38.4793 33.1763 38.0606L32.3124 37.0366V43.7409C32.3124 44.725 31.514 45.5234 30.5299 45.5234C29.5459 45.5234 28.7474 44.725 28.7474 43.7409V37.0366L27.8836 38.0606C27.2476 38.8131 26.1238 38.9091 25.3714 38.2737C24.6194 37.6391 24.5228 36.5148 25.1574 35.7624L28.6857 31.5796C29.1457 31.0355 29.8169 30.7227 30.5299 30.7227C31.2429 30.7227 31.9142 31.0355 32.3742 31.5796L35.9025 35.7624C36.5371 36.5148 36.4405 37.6391 35.6885 38.2737Z" fill="#ACAACC"/>
<path d="M35.6885 38.2737C35.3547 38.5564 34.9458 38.6942 34.5405 38.6942C34.0332 38.6942 33.5291 38.4793 33.1763 38.0606L32.3124 37.0366V43.7409C32.3124 44.725 31.514 45.5234 30.5299 45.5234V30.7227C31.2429 30.7227 31.9141 31.0355 32.3741 31.5796L35.9025 35.7624C36.537 36.5148 36.4405 37.6391 35.6885 38.2737Z" fill="#4A477F"/>
</g>
<defs>
<clipPath id="clip0_493_2753">
<rect width="60.8426" height="60.8426" fill="white" transform="translate(0.108643 0.5)"/>
</clipPath>
</defs>
</svg>
