<svg width="46" height="45" viewBox="0 0 46 45" fill="none" xmlns="http://www.w3.org/2000/svg">
<g clip-path="url(#clip0_271_11372)">
<path d="M21.6102 3.92962L0.770715 40.3451C0.664753 40.5302 0.610167 40.7391 0.612369 40.9511C0.614571 41.1631 0.673483 41.3709 0.783267 41.5538C0.89305 41.7368 1.04989 41.8885 1.23824 41.994C1.42659 42.0995 1.63991 42.1551 1.85704 42.1553H43.5361C43.7532 42.1551 43.9665 42.0995 44.1549 41.994C44.3432 41.8885 44.5001 41.7368 44.6099 41.5538C44.7196 41.3709 44.7785 41.1631 44.7808 40.9511C44.783 40.7391 44.7284 40.5302 44.6224 40.3451L23.7829 3.92962C23.6746 3.74124 23.5169 3.58441 23.326 3.47527C23.135 3.36612 22.9178 3.30859 22.6966 3.30859C22.4753 3.30859 22.2581 3.36612 22.0672 3.47527C21.8762 3.58441 21.7185 3.74124 21.6102 3.92962ZM25.1881 36.6809C25.1881 36.8422 25.1225 36.997 25.0057 37.111C24.8889 37.2251 24.7304 37.2892 24.5652 37.2892H20.8279C20.6627 37.2892 20.5042 37.2251 20.3874 37.111C20.2706 36.997 20.205 36.8422 20.205 36.6809V33.0313C20.205 32.87 20.2706 32.7153 20.3874 32.6012C20.5042 32.4872 20.6627 32.4231 20.8279 32.4231H24.5652C24.7304 32.4231 24.8889 32.4872 25.0057 32.6012C25.1225 32.7153 25.1881 32.87 25.1881 33.0313V36.6809ZM25.1881 29.3818C25.1881 29.5431 25.1225 29.6978 25.0057 29.8119C24.8889 29.9259 24.7304 29.99 24.5652 29.99H20.8279C20.6627 29.99 20.5042 29.9259 20.3874 29.8119C20.2706 29.6978 20.205 29.5431 20.205 29.3818V14.7835C20.205 14.6221 20.2706 14.4674 20.3874 14.3534C20.5042 14.2393 20.6627 14.1752 20.8279 14.1752H24.5652C24.7304 14.1752 24.8889 14.2393 25.0057 14.3534C25.1225 14.4674 25.1881 14.6221 25.1881 14.7835V29.3818Z" fill="#B40000"/>
</g>
<defs>
<clipPath id="clip0_271_11372">
<rect width="44.8483" height="43.7949" fill="white" transform="translate(0.272461 0.792969)"/>
</clipPath>
</defs>
</svg>
