<svg width="64" height="44" viewBox="0 0 64 44" fill="none" xmlns="http://www.w3.org/2000/svg">
<rect x="1.60221" y="1.56718" width="61.0774" height="41.2327" rx="20.6164" fill="white"/>
<rect x="1.60221" y="1.56718" width="61.0774" height="41.2327" rx="20.6164" stroke="#E9E9E9" stroke-width="1.54338"/>
<g clip-path="url(#clip0_215_8149)">
<path d="M35.2946 21.7865L30.179 26.9064C30.0203 27.0652 29.8287 27.1445 29.604 27.1445C29.3792 27.1445 29.181 27.0652 29.0091 26.9064C28.8373 26.7476 28.7513 26.5492 28.7513 26.3111C28.7513 26.0729 28.8439 25.8745 29.0289 25.7157L33.5497 21.1911L29.0289 16.6665C28.8439 16.5078 28.7513 16.3093 28.7513 16.0712C28.7513 15.8331 28.8373 15.6346 29.0091 15.4759C29.181 15.3171 29.3792 15.2377 29.604 15.2377C29.8287 15.2377 30.0203 15.3171 30.179 15.4759L35.2946 20.5958C35.4797 20.7545 35.5722 20.953 35.5722 21.1911C35.5722 21.4293 35.4797 21.6277 35.2946 21.7865Z" fill="#050B20"/>
</g>
<defs>
<clipPath id="clip0_215_8149">
<rect width="11.8671" height="11.9068" fill="white" transform="matrix(1 0 0 -1 26.2075 27.1445)"/>
</clipPath>
</defs>
</svg>
