<svg width="41" height="28" viewBox="0 0 41 28" fill="none" xmlns="http://www.w3.org/2000/svg">
<rect x="0.498821" y="0.498821" width="39.6672" height="26.7789" rx="13.3895" fill="white"/>
<rect x="0.498821" y="0.498821" width="39.6672" height="26.7789" rx="13.3895" stroke="#E9E9E9" stroke-width="1.00236"/>
<g clip-path="url(#clip0_779_2374)">
<path d="M22.3801 13.6315L19.0577 16.9567C18.9547 17.0598 18.8302 17.1113 18.6842 17.1113C18.5383 17.1113 18.4095 17.0598 18.2979 16.9567C18.1863 16.8536 18.1305 16.7247 18.1305 16.57C18.1305 16.4154 18.1906 16.2865 18.3108 16.1834L21.2468 13.2448L18.3108 10.3063C18.1906 10.2032 18.1305 10.0743 18.1305 9.91967C18.1305 9.76501 18.1863 9.63613 18.2979 9.53302C18.4095 9.42992 18.5383 9.37837 18.6842 9.37837C18.8302 9.37837 18.9547 9.42992 19.0577 9.53302L22.3801 12.8582C22.5003 12.9613 22.5604 13.0902 22.5604 13.2448C22.5604 13.3995 22.5003 13.5284 22.3801 13.6315Z" fill="#050B20"/>
</g>
<defs>
<clipPath id="clip0_779_2374">
<rect width="7.70719" height="7.73296" fill="white" transform="matrix(1 0 0 -1 16.4792 17.1113)"/>
</clipPath>
</defs>
</svg>
