<svg width="100" height="100" viewBox="0 0 100 100" fill="none" xmlns="http://www.w3.org/2000/svg">
<rect width="100" height="100" fill="white" fill-opacity="0.1"/>
<path fill-rule="evenodd" clip-rule="evenodd" d="M56.862 55.0333C55.975 54.1601 54.6268 53.9569 53.5218 54.5299L51.6528 55.4989C51.2238 55.7214 50.6957 55.5539 50.4733 55.1249C50.2508 54.6959 50.4183 54.1678 50.8473 53.9454L52.7162 52.9763C54.4938 52.0546 56.6627 52.3814 58.0897 53.7861L61.8639 57.5013C62.2083 57.8404 62.2126 58.3944 61.8736 58.7387C61.5346 59.0831 60.9806 59.0875 60.6362 58.7485L56.862 55.0333Z" fill="#222628"/>
<path fill-rule="evenodd" clip-rule="evenodd" d="M48.1618 53.6679C46.9004 52.1766 44.766 51.7744 43.0484 52.7044L38.5417 55.1445C38.1167 55.3746 37.5857 55.2166 37.3556 54.7917C37.1255 54.3667 37.2835 53.8357 37.7084 53.6056L42.2152 51.1655C44.6615 49.841 47.7014 50.4138 49.4979 52.5377L56.9181 61.31C57.2302 61.6789 57.1841 62.231 56.8151 62.5431C56.4462 62.8552 55.8941 62.8091 55.582 62.4402L48.1618 53.6679Z" fill="#8E44F4"/>
<path fill-rule="evenodd" clip-rule="evenodd" d="M54.4255 44C53.5281 44 52.8005 44.7275 52.8005 45.625C52.8005 46.5225 53.5281 47.25 54.4255 47.25C55.323 47.25 56.0505 46.5225 56.0505 45.625C56.0505 44.7275 55.323 44 54.4255 44ZM51.0505 45.625C51.0505 43.761 52.5616 42.25 54.4255 42.25C56.2895 42.25 57.8005 43.761 57.8005 45.625C57.8005 47.489 56.2895 49 54.4255 49C52.5616 49 51.0505 47.489 51.0505 45.625Z" fill="#8E44F4"/>
<path fill-rule="evenodd" clip-rule="evenodd" d="M49.9557 36.625H50.0443C52.3434 36.625 54.1284 36.625 55.5537 36.7542C57.0002 36.8853 58.1619 37.1549 59.1875 37.747C60.4607 38.4821 61.5179 39.5393 62.253 40.8125C62.8451 41.8381 63.1147 42.9998 63.2458 44.4463C63.375 45.8716 63.375 47.6567 63.375 49.9558V50.0442C63.375 52.3433 63.375 54.1284 63.2458 55.5537C63.1147 57.0002 62.8451 58.1619 62.253 59.1875C61.5179 60.4607 60.4607 61.5179 59.1875 62.253C58.1619 62.8451 57.0002 63.1147 55.5537 63.2458C54.1284 63.375 52.3433 63.375 50.0442 63.375H49.9558C47.6567 63.375 45.8716 63.375 44.4463 63.2458C42.9998 63.1147 41.8381 62.8451 40.8125 62.253C39.5393 61.5179 38.4821 60.4607 37.747 59.1875C37.1549 58.1619 36.8853 57.0002 36.7542 55.5537C36.625 54.1284 36.625 52.3434 36.625 50.0443V49.9557C36.625 47.6566 36.625 45.8716 36.7542 44.4463C36.8853 42.9998 37.1549 41.8381 37.747 40.8125C38.4821 39.5393 39.5393 38.4821 40.8125 37.747C41.8381 37.1549 42.9998 36.8853 44.4463 36.7542C45.8716 36.625 47.6566 36.625 49.9557 36.625ZM44.6042 38.497C43.2791 38.6171 42.4023 38.8499 41.6875 39.2626C40.6804 39.844 39.844 40.6804 39.2626 41.6875C38.8499 42.4023 38.6171 43.2791 38.497 44.6042C38.3758 45.9414 38.375 47.6474 38.375 50C38.375 52.3526 38.3758 54.0586 38.497 55.3958C38.6171 56.7209 38.8499 57.5977 39.2626 58.3125C39.844 59.3196 40.6804 60.156 41.6875 60.7374C42.4023 61.1501 43.2791 61.3829 44.6042 61.503C45.9414 61.6242 47.6474 61.625 50 61.625C52.3526 61.625 54.0586 61.6242 55.3958 61.503C56.7209 61.3829 57.5977 61.1501 58.3125 60.7374C59.3196 60.156 60.156 59.3196 60.7374 58.3125C61.1501 57.5977 61.3829 56.7209 61.503 55.3958C61.6242 54.0586 61.625 52.3526 61.625 50C61.625 47.6474 61.6242 45.9414 61.503 44.6042C61.3829 43.2791 61.1501 42.4023 60.7374 41.6875C60.156 40.6804 59.3196 39.844 58.3125 39.2626C57.5977 38.8499 56.7209 38.6171 55.3958 38.497C54.0586 38.3758 52.3526 38.375 50 38.375C47.6474 38.375 45.9414 38.3758 44.6042 38.497Z" fill="#222628"/>
</svg>
