<svg width="18" height="18" viewBox="0 0 18 18" fill="none" xmlns="http://www.w3.org/2000/svg">
<path fill-rule="evenodd" clip-rule="evenodd" d="M3.97007 2.34932C4.24061 2.2187 4.53052 2.12744 4.77873 2.12744C4.9423 2.12744 5.09792 2.17905 5.2192 2.23109C5.34895 2.28675 5.48344 2.36239 5.616 2.44862C5.88159 2.6214 6.17108 2.85745 6.44517 3.12567C6.9746 3.64374 7.5364 4.37011 7.6857 5.08232C7.74911 5.38479 7.68332 5.69216 7.51901 5.94064C7.4182 6.09309 7.28926 6.25465 7.16771 6.40503C7.15023 6.42666 7.13281 6.44817 7.11547 6.46958C7.00691 6.60362 6.90145 6.73383 6.80343 6.86594C6.68979 7.01909 6.59888 7.15818 6.53746 7.28302C6.47469 7.41061 6.45776 7.49343 6.45776 7.54048C6.45776 7.76141 6.5925 8.19822 6.89168 8.74246C7.1796 9.26621 7.58121 9.81939 8.02866 10.2613C8.50035 10.7272 8.91788 11.0733 9.28831 11.3006C9.63385 11.5127 9.91063 11.6044 10.133 11.6164C10.1434 11.6078 10.1576 11.5952 10.1757 11.5773C10.2172 11.5364 10.2629 11.4854 10.3255 11.4148L10.3339 11.4053C10.3913 11.3405 10.46 11.263 10.5359 11.1847C10.8701 10.8399 11.3728 10.4523 12.2004 10.4523C12.8473 10.4523 13.5081 10.7939 14.0299 11.2452C14.5597 11.7035 15.0167 12.3342 15.2242 13.0223C15.4005 13.607 15.1136 14.1049 14.7746 14.4487C14.4332 14.795 13.9554 15.0803 13.4912 15.3006C12.7099 15.6713 11.8416 15.8013 10.9965 15.72C9.49325 15.5754 7.39902 14.9782 4.92425 12.6337C4.91612 12.626 4.90827 12.618 4.90069 12.6098C3.4959 11.0842 2.73209 9.79351 2.33571 8.61311C1.93867 7.43073 1.92359 6.39624 1.95894 5.42337C1.99916 4.3166 2.51283 3.49415 3.09148 2.95561C3.37938 2.68766 3.68715 2.48591 3.97007 2.34932ZM3.76199 3.67605C3.33657 4.07199 2.9715 4.6604 2.94248 5.45911C2.90859 6.39171 2.92813 7.28558 3.2687 8.29981C3.60897 9.31312 4.28289 10.4835 5.6133 11.9307C7.91988 14.1114 9.80336 14.6165 11.0908 14.7403C11.7748 14.8061 12.4626 14.6993 13.0692 14.4114C13.4901 14.2117 13.8495 13.9853 14.0737 13.7578C14.3002 13.528 14.3071 13.3901 14.2819 13.3065C14.138 12.8291 13.8026 12.3499 13.386 11.9896C12.9614 11.6222 12.5215 11.4365 12.2004 11.4365C11.7373 11.4365 11.4732 11.6317 11.2425 11.8697C11.1823 11.9318 11.1266 11.9947 11.0662 12.0628L11.0621 12.0675C11.0037 12.1334 10.9357 12.2101 10.8665 12.2783C10.7414 12.4016 10.5124 12.602 10.1836 12.602C9.70445 12.602 9.2316 12.4206 8.77346 12.1394C8.3135 11.8571 7.83556 11.4539 7.33707 10.9616C6.81435 10.4453 6.35736 9.8135 6.02922 9.21658C5.71235 8.64015 5.47357 8.02059 5.47357 7.54048C5.47357 7.28484 5.55655 7.04737 5.65437 6.84854C5.75354 6.64697 5.88392 6.45352 6.01305 6.27949C6.12458 6.12918 6.24466 5.98096 6.35239 5.848C6.36935 5.82707 6.38601 5.80651 6.40228 5.78638C6.52724 5.63177 6.62706 5.50518 6.69807 5.39779C6.72359 5.35921 6.72966 5.31861 6.72245 5.28425C6.63471 4.86572 6.24848 4.31021 5.75683 3.8291C5.52038 3.59772 5.28106 3.40485 5.07931 3.2736C4.97819 3.20782 4.89439 3.16267 4.83117 3.13555C4.79606 3.12049 4.77526 3.11444 4.76686 3.11219C4.71763 3.11626 4.58846 3.14365 4.39797 3.23562C4.20171 3.33037 3.97612 3.47676 3.76199 3.67605Z" fill="#222628"/>
<path fill-rule="evenodd" clip-rule="evenodd" d="M6.59618 9.24605C6.81892 9.09033 7.12572 9.14467 7.28144 9.36742C7.50491 9.68708 7.75913 9.995 8.02869 10.2612C8.40495 10.6329 8.74797 10.9295 9.06132 11.1505C9.28341 11.3072 9.33646 11.6142 9.17981 11.8363C9.02316 12.0584 8.71614 12.1114 8.49405 11.9548C8.12205 11.6924 7.73685 11.3563 7.3371 10.9615C7.01962 10.6479 6.72766 10.293 6.47481 9.93131C6.31909 9.70857 6.37343 9.40176 6.59618 9.24605Z" fill="#8E44F4"/>
</svg>
