<svg width="85" height="85" viewBox="0 0 85 85" fill="none" xmlns="http://www.w3.org/2000/svg">
<g clip-path="url(#clip0_271_11346)">
<path d="M61.9951 22.6022C56.9579 17.5475 50.0033 14.4102 42.2993 14.4102C26.8913 14.4102 14.4463 26.89 14.4463 42.298C14.4463 57.7061 26.8913 70.1859 42.2993 70.1859C55.2846 70.1859 66.1609 61.2967 69.246 49.27H61.9951C59.1192 57.3924 51.4152 63.214 42.2993 63.214C30.7433 63.214 21.3834 53.8541 21.3834 42.298C21.3834 30.742 30.7433 21.3821 42.2993 21.3821C48.0686 21.3821 53.2453 23.7875 57.0276 27.5698L45.7853 38.8121H70.1872V14.4102L61.9951 22.6022Z" fill="black"/>
</g>
<defs>
<clipPath id="clip0_271_11346">
<rect width="83.6637" height="83.6637" fill="white" transform="translate(0.46875 0.464844)"/>
</clipPath>
</defs>
</svg>
