<svg width="33" height="33" viewBox="0 0 33 33" fill="none" xmlns="http://www.w3.org/2000/svg">
<path fill-rule="evenodd" clip-rule="evenodd" d="M14.1242 5.08904C13.6739 5.48752 13.4135 6.04713 13.2889 6.7032C13.2017 7.16195 12.9279 7.53488 12.6724 7.79916C12.4031 8.07755 12.0729 8.31942 11.735 8.50986C11.3971 8.70038 11.0195 8.85747 10.6429 8.94447C10.2853 9.02707 9.82771 9.06979 9.39241 8.91411C8.79851 8.70169 8.22466 8.65136 7.69044 8.83175C7.16393 9.00955 6.54097 9.45701 5.92942 10.5025C5.2054 11.7403 5.15115 12.6006 5.30337 13.1882C5.45993 13.7925 5.88183 14.2912 6.45802 14.7017C6.81421 14.9555 7.03363 15.3182 7.166 15.6448C7.30213 15.9806 7.3755 16.3486 7.39633 16.7024C7.41715 17.0561 7.38757 17.431 7.28975 17.7815C7.19453 18.1227 7.01421 18.5111 6.67929 18.8025C6.14796 19.2649 5.73724 19.8059 5.56454 20.4228C5.40054 21.0087 5.42089 21.7688 5.93499 22.7603C6.54807 23.7419 7.19022 24.1361 7.75309 24.2763C8.34662 24.4243 8.9945 24.325 9.64757 24.0681C10.0672 23.9031 10.5031 23.9262 10.8534 24.0015C11.2147 24.0792 11.5677 24.2294 11.878 24.415C12.1883 24.6006 12.4876 24.8404 12.727 25.1222C12.959 25.3954 13.1856 25.769 13.238 26.2174C13.3241 26.9538 13.5608 27.6003 14.0129 28.0598C14.4471 28.5012 15.194 28.8856 16.5481 28.8856C17.9023 28.8856 18.6492 28.5012 19.0834 28.0598C19.5355 27.6003 19.7722 26.9538 19.8583 26.2174C19.9107 25.769 20.1373 25.3954 20.3693 25.1222C20.6087 24.8404 20.9081 24.6006 21.2183 24.415C21.5287 24.2294 21.8816 24.0792 22.2429 24.0015C22.5932 23.9262 23.0291 23.9031 23.4487 24.0682C24.1018 24.325 24.7497 24.4243 25.3432 24.2763C25.9061 24.1361 26.5482 23.7419 27.1613 22.7603C27.7373 21.6493 27.6981 20.8217 27.4551 20.1925C27.1935 19.5149 26.6445 18.9395 26.0067 18.4774C25.3656 18.0129 25.1638 17.2241 25.1638 16.6272C25.1638 16.0303 25.3656 15.2415 26.0067 14.777C26.6445 14.3149 27.1935 13.7395 27.4551 13.0619C27.6981 12.4327 27.7373 11.6051 27.1613 10.4942C26.5482 9.51251 25.9061 9.11834 25.3432 8.97806C24.7497 8.83014 24.1018 8.92939 23.4487 9.18626C23.0291 9.3513 22.5932 9.32822 22.2429 9.25293C21.8816 9.17526 21.5287 9.02501 21.2183 8.83943C20.9081 8.65386 20.6087 8.41399 20.3693 8.13221C20.1373 7.85905 19.9107 7.48542 19.8583 7.03705C19.7722 6.30065 19.5356 5.65414 19.0834 5.1946C18.6492 4.75323 17.9023 4.36879 16.5481 4.36879C15.2962 4.36879 14.566 4.6981 14.1242 5.08904ZM12.9013 3.70706C13.7577 2.94924 14.9607 2.52344 16.5481 2.52344C18.2729 2.52344 19.5395 3.02688 20.3989 3.90041C21.2404 4.75575 21.5776 5.85114 21.6912 6.82275C21.69 6.81282 21.6888 6.80792 21.689 6.80786C21.6896 6.80768 21.7038 6.8528 21.7757 6.93752C21.8639 7.04131 21.9992 7.15626 22.1655 7.2557C22.3318 7.35513 22.4972 7.4201 22.6307 7.44879C22.73 7.47012 22.7777 7.46476 22.7858 7.46406C23.649 7.12648 24.702 6.91645 25.7895 7.18748C26.9077 7.46618 27.9258 8.21924 28.7485 9.55205L28.7652 9.57916L28.78 9.60735C29.5915 11.1512 29.6339 12.5427 29.1766 13.7267C28.7372 14.8645 27.8807 15.6969 27.0961 16.2665C27.0916 16.272 27.0765 16.2918 27.0589 16.3362C27.0304 16.4075 27.0091 16.5097 27.0091 16.6272C27.0091 16.7447 27.0304 16.8469 27.0589 16.9183C27.0765 16.9626 27.0916 16.9825 27.0961 16.9879C27.8807 17.5576 28.7372 18.3899 29.1766 19.5277C29.6339 20.7117 29.5915 22.1032 28.78 23.6471L28.7652 23.6753L28.7485 23.7024C27.9258 25.0352 26.9077 25.7882 25.7895 26.0669C24.702 26.338 23.649 26.1279 22.7858 25.7904C22.7777 25.7896 22.73 25.7843 22.6307 25.8056C22.4972 25.8343 22.3318 25.8993 22.1655 25.9987C21.9992 26.0982 21.8639 26.2131 21.7757 26.3169C21.7038 26.4016 21.6896 26.4467 21.689 26.4465C21.6888 26.4465 21.69 26.4416 21.6912 26.4317C21.5776 27.4033 21.2404 28.4987 20.3989 29.354C19.5395 30.2275 18.2729 30.731 16.5481 30.731C14.8234 30.731 13.5568 30.2275 12.6974 29.354C11.8559 28.4987 11.5187 27.4033 11.4051 26.4317C11.4063 26.4416 11.4075 26.4465 11.4073 26.4466C11.4067 26.4467 11.3925 26.4016 11.3206 26.3169C11.2324 26.2131 11.0971 26.0982 10.9308 25.9987C10.7645 25.8993 10.5991 25.8343 10.4656 25.8056C10.3664 25.7843 10.3186 25.7896 10.3105 25.7904C9.44729 26.1279 8.39434 26.338 7.30683 26.0669C6.18855 25.7882 5.17046 25.0352 4.34782 23.7024L4.33109 23.6753L4.31626 23.6471C3.59926 22.283 3.47821 21.0303 3.7875 19.9254C4.08823 18.851 4.76559 18.0238 5.45823 17.4189C5.46286 17.4118 5.48743 17.3746 5.51231 17.2855C5.54674 17.1621 5.56502 16.9952 5.55417 16.8109C5.54333 16.6268 5.50551 16.4606 5.45581 16.338C5.41547 16.2385 5.38219 16.2027 5.37942 16.199C4.59739 15.6401 3.81891 14.8164 3.51699 13.651C3.20973 12.4649 3.44108 11.1017 4.33655 9.5708C5.11203 8.24504 6.05021 7.43791 7.10004 7.0834C8.13775 6.73298 9.15123 6.86993 10.003 7.17266C10.003 7.17264 10.003 7.17263 10.003 7.17261C10.0032 7.17131 10.0703 7.18279 10.2275 7.14646C10.4032 7.10589 10.6162 7.02223 10.8289 6.90233C11.0417 6.78237 11.2222 6.64417 11.3458 6.51633C11.4515 6.40709 11.4765 6.34671 11.4786 6.34461C11.6546 5.43014 12.0577 4.45353 12.9013 3.70706Z" fill="#222628"/>
<path fill-rule="evenodd" clip-rule="evenodd" d="M16.5481 18.7362C17.7128 18.7362 18.6571 17.7919 18.6571 16.6272C18.6571 15.4624 17.7128 14.5182 16.5481 14.5182C15.3833 14.5182 14.4391 15.4624 14.4391 16.6272C14.4391 17.7919 15.3833 18.7362 16.5481 18.7362ZM16.5481 20.5815C18.732 20.5815 20.5024 18.8111 20.5024 16.6272C20.5024 14.4433 18.732 12.6729 16.5481 12.6729C14.3642 12.6729 12.5938 14.4433 12.5938 16.6272C12.5938 18.8111 14.3642 20.5815 16.5481 20.5815Z" fill="#ACAACC"/>
</svg>
