<svg width="66" height="67" viewBox="0 0 66 67" fill="none" xmlns="http://www.w3.org/2000/svg">
<g clip-path="url(#clip0_1_101)">
<path d="M41.2964 33.4258C47.3613 33.4258 52.2736 28.4998 52.2736 22.4486C52.2736 16.3837 47.3613 11.4714 41.2964 11.4714C35.2315 11.4714 30.3192 16.3837 30.3192 22.4486C30.3192 28.4998 35.2315 33.4258 41.2964 33.4258ZM16.5977 27.9372V19.7043H11.1091V27.9372H2.87616V33.4258H11.1091V41.6587H16.5977V33.4258H24.8306V27.9372H16.5977ZM41.2964 38.9144C33.9829 38.9144 19.342 42.5781 19.342 49.8916V55.3802H63.2509V49.8916C63.2509 42.5781 48.61 38.9144 41.2964 38.9144Z" fill="#ACAACC"/>
</g>
<defs>
<clipPath id="clip0_1_101">
<rect width="65.8633" height="65.8633" fill="white" transform="translate(0.131836 0.494141)"/>
</clipPath>
</defs>
</svg>
