<svg width="265" height="57" viewBox="0 0 265 57" fill="none" xmlns="http://www.w3.org/2000/svg">
<rect width="264.269" height="56.6999" rx="28.35" fill="#FED7D7"/>
<path d="M44.6731 34.7081C43.4641 34.7081 42.3775 34.4326 41.4133 33.8817C40.4492 33.3307 39.6839 32.5808 39.1177 31.6319C38.5667 30.6678 38.2913 29.5812 38.2913 28.3721V18.4091H40.9312V28.3492C40.9312 29.1297 41.0919 29.8107 41.4133 30.3923C41.75 30.9585 42.2015 31.4024 42.7677 31.7238C43.334 32.0298 43.9691 32.1829 44.6731 32.1829C45.3924 32.1829 46.0275 32.0298 46.5785 31.7238C47.1294 31.4024 47.5656 30.9585 47.887 30.3923C48.2084 29.8107 48.3691 29.1373 48.3691 28.3721V18.4091H51.0091V28.3951C51.0091 29.6041 50.7336 30.6831 50.1826 31.6319C49.6317 32.5808 48.8818 33.3307 47.9329 33.8817C46.9841 34.4326 45.8975 34.7081 44.6731 34.7081ZM59.8801 34.7081C59.0383 34.7081 58.2884 34.5321 57.6303 34.1801C56.9723 33.8128 56.4519 33.3154 56.0693 32.6879C55.702 32.0604 55.5184 31.3488 55.5184 30.553V27.385C55.5184 26.5892 55.7097 25.8775 56.0923 25.2501C56.4749 24.6226 56.9952 24.1329 57.6533 23.7809C58.3114 23.4136 59.0536 23.2299 59.8801 23.2299C60.8748 23.2299 61.7701 23.4901 62.566 24.0104C63.3771 24.5155 64.0122 25.2042 64.4713 26.0765C64.9458 26.9335 65.183 27.9054 65.183 28.992C65.183 30.0632 64.9458 31.0351 64.4713 31.9074C64.0122 32.7644 63.3771 33.4455 62.566 33.9505C61.7701 34.4556 60.8748 34.7081 59.8801 34.7081ZM59.4669 32.3206C60.079 32.3206 60.6147 32.1829 61.0738 31.9074C61.5482 31.6166 61.9155 31.2187 62.1757 30.7137C62.4512 30.2086 62.5889 29.6271 62.5889 28.969C62.5889 28.3109 62.4512 27.7294 62.1757 27.2243C61.9155 26.7193 61.5482 26.329 61.0738 26.0535C60.6147 25.7628 60.079 25.6174 59.4669 25.6174C58.8547 25.6174 58.3114 25.7628 57.837 26.0535C57.3625 26.329 56.9952 26.7193 56.7351 27.2243C56.4749 27.7294 56.3448 28.3109 56.3448 28.969C56.3448 29.6271 56.4749 30.2086 56.7351 30.7137C56.9952 31.2187 57.3625 31.6166 57.837 31.9074C58.3114 32.1829 58.8547 32.3206 59.4669 32.3206ZM53.9803 39.0698V23.4595H56.5055V26.4208L56.0693 29.1067L56.5055 31.7697V39.0698H53.9803ZM67.2968 34.4785V17.95H69.822V34.4785H67.2968ZM77.6827 34.7081C76.6114 34.7081 75.6396 34.4556 74.7672 33.9505C73.8949 33.4302 73.1986 32.7338 72.6782 31.8615C72.1732 30.9892 71.9207 30.0173 71.9207 28.946C71.9207 27.8747 72.1732 26.9106 72.6782 26.0535C73.1986 25.1965 73.8949 24.5155 74.7672 24.0104C75.6396 23.4901 76.6114 23.2299 77.6827 23.2299C78.7693 23.2299 79.7488 23.4824 80.6211 23.9875C81.4935 24.4925 82.1821 25.1812 82.6872 26.0535C83.2075 26.9106 83.4677 27.8747 83.4677 28.946C83.4677 30.0173 83.2075 30.9892 82.6872 31.8615C82.1821 32.7338 81.4935 33.4302 80.6211 33.9505C79.7488 34.4556 78.7693 34.7081 77.6827 34.7081ZM77.6827 32.2747C78.3102 32.2747 78.8611 32.137 79.3356 31.8615C79.8253 31.5707 80.2002 31.1728 80.4604 30.6678C80.7359 30.1627 80.8736 29.5888 80.8736 28.946C80.8736 28.3033 80.7359 27.737 80.4604 27.2473C80.1849 26.7575 79.81 26.3749 79.3356 26.0995C78.8611 25.8087 78.3102 25.6633 77.6827 25.6633C77.0705 25.6633 76.5196 25.8087 76.0298 26.0995C75.5554 26.3749 75.1805 26.7575 74.905 27.2473C74.6448 27.737 74.5147 28.3033 74.5147 28.946C74.5147 29.5888 74.6448 30.1627 74.905 30.6678C75.1805 31.1728 75.5554 31.5707 76.0298 31.8615C76.5196 32.137 77.0705 32.2747 77.6827 32.2747ZM90.1819 34.7081C89.1871 34.7081 88.2842 34.4556 87.473 33.9505C86.6772 33.4455 86.0421 32.7644 85.5677 31.9074C85.1085 31.0351 84.879 30.0632 84.879 28.992C84.879 27.9054 85.1085 26.9335 85.5677 26.0765C86.0421 25.2042 86.6772 24.5155 87.473 24.0104C88.2842 23.4901 89.1871 23.2299 90.1819 23.2299C91.0236 23.2299 91.7659 23.4136 92.4087 23.7809C93.0667 24.1329 93.5871 24.6226 93.9697 25.2501C94.3523 25.8775 94.5436 26.5892 94.5436 27.385V30.553C94.5436 31.3488 94.3523 32.0604 93.9697 32.6879C93.6024 33.3154 93.0897 33.8128 92.4316 34.1801C91.7735 34.5321 91.0236 34.7081 90.1819 34.7081ZM90.5951 32.3206C91.5287 32.3206 92.2786 32.0069 92.8448 31.3794C93.4264 30.7519 93.7172 29.9485 93.7172 28.969C93.7172 28.3109 93.5871 27.7294 93.3269 27.2243C93.0667 26.7193 92.6994 26.329 92.225 26.0535C91.7659 25.7628 91.2226 25.6174 90.5951 25.6174C89.9829 25.6174 89.4396 25.7628 88.9652 26.0535C88.5061 26.329 88.1388 26.7193 87.8633 27.2243C87.6031 27.7294 87.473 28.3109 87.473 28.969C87.473 29.6271 87.6031 30.2086 87.8633 30.7137C88.1388 31.2187 88.5061 31.6166 88.9652 31.9074C89.4396 32.1829 89.9829 32.3206 90.5951 32.3206ZM93.5565 34.4785V31.5171L93.9926 28.8313L93.5565 26.1683V23.4595H96.0817V34.4785H93.5565ZM103.498 34.7081C102.504 34.7081 101.601 34.4556 100.79 33.9505C99.9937 33.4455 99.3586 32.7644 98.8841 31.9074C98.425 31.0351 98.1954 30.0632 98.1954 28.992C98.1954 27.9054 98.425 26.9335 98.8841 26.0765C99.3586 25.2042 99.9937 24.5155 100.79 24.0104C101.601 23.4901 102.504 23.2299 103.498 23.2299C104.34 23.2299 105.082 23.4136 105.725 23.7809C106.383 24.1329 106.904 24.6226 107.286 25.2501C107.669 25.8775 107.86 26.5892 107.86 27.385V30.553C107.86 31.3488 107.669 32.0604 107.286 32.6879C106.919 33.3154 106.406 33.8128 105.748 34.1801C105.09 34.5321 104.34 34.7081 103.498 34.7081ZM103.912 32.3206C104.539 32.3206 105.082 32.1829 105.541 31.9074C106.016 31.6166 106.383 31.2187 106.643 30.7137C106.904 30.2086 107.034 29.6271 107.034 28.969C107.034 28.3109 106.904 27.7294 106.643 27.2243C106.383 26.7193 106.016 26.329 105.541 26.0535C105.082 25.7628 104.539 25.6174 103.912 25.6174C103.299 25.6174 102.756 25.7628 102.282 26.0535C101.823 26.329 101.455 26.7193 101.18 27.2243C100.92 27.7294 100.79 28.3109 100.79 28.969C100.79 29.6271 100.92 30.2086 101.18 30.7137C101.455 31.2187 101.823 31.6166 102.282 31.9074C102.756 32.1829 103.299 32.3206 103.912 32.3206ZM109.398 34.4785H106.873V31.5171L107.309 28.8313L106.873 26.1683V17.95H109.398V34.4785ZM118.954 28.418V26.1224H122.972C123.523 26.1224 124.005 26.0153 124.418 25.801C124.846 25.5715 125.183 25.2577 125.428 24.8598C125.673 24.4466 125.795 23.9645 125.795 23.4136C125.795 22.8626 125.673 22.3882 125.428 21.9903C125.183 21.5771 124.846 21.2633 124.418 21.0491C124.005 20.8195 123.523 20.7047 122.972 20.7047H118.954V18.4091H123.109C124.119 18.4091 125.022 18.6157 125.818 19.0289C126.629 19.4421 127.264 20.0237 127.724 20.7736C128.198 21.5235 128.435 22.4035 128.435 23.4136C128.435 24.4236 128.198 25.3036 127.724 26.0535C127.264 26.8034 126.629 27.385 125.818 27.7982C125.022 28.2114 124.119 28.418 123.109 28.418H118.954ZM117.141 34.4785V18.4091H119.781V34.4785H117.141ZM138.203 34.4785V28.1196C138.203 27.385 137.966 26.7805 137.492 26.3061C137.033 25.8316 136.436 25.5944 135.701 25.5944C135.212 25.5944 134.775 25.7015 134.393 25.9158C134.01 26.1301 133.712 26.4285 133.497 26.8111C133.283 27.1937 133.176 27.6299 133.176 28.1196L132.189 27.5687C132.189 26.7269 132.373 25.9847 132.74 25.3419C133.107 24.6838 133.612 24.1711 134.255 23.8038C134.913 23.4212 135.648 23.2299 136.459 23.2299C137.285 23.2299 138.02 23.4136 138.663 23.7809C139.305 24.1482 139.81 24.6609 140.178 25.3189C140.545 25.9617 140.729 26.7116 140.729 27.5687V34.4785H138.203ZM130.651 34.4785V17.95H133.176V34.4785H130.651ZM148.345 34.7081C147.274 34.7081 146.302 34.4556 145.43 33.9505C144.557 33.4302 143.861 32.7338 143.341 31.8615C142.836 30.9892 142.583 30.0173 142.583 28.946C142.583 27.8747 142.836 26.9106 143.341 26.0535C143.861 25.1965 144.557 24.5155 145.43 24.0104C146.302 23.4901 147.274 23.2299 148.345 23.2299C149.432 23.2299 150.411 23.4824 151.284 23.9875C152.156 24.4925 152.845 25.1812 153.35 26.0535C153.87 26.9106 154.13 27.8747 154.13 28.946C154.13 30.0173 153.87 30.9892 153.35 31.8615C152.845 32.7338 152.156 33.4302 151.284 33.9505C150.411 34.4556 149.432 34.7081 148.345 34.7081ZM148.345 32.2747C148.973 32.2747 149.524 32.137 149.998 31.8615C150.488 31.5707 150.863 31.1728 151.123 30.6678C151.398 30.1627 151.536 29.5888 151.536 28.946C151.536 28.3033 151.398 27.737 151.123 27.2473C150.847 26.7575 150.472 26.3749 149.998 26.0995C149.524 25.8087 148.973 25.6633 148.345 25.6633C147.733 25.6633 147.182 25.8087 146.692 26.0995C146.218 26.3749 145.843 26.7575 145.567 27.2473C145.307 27.737 145.177 28.3033 145.177 28.946C145.177 29.5888 145.307 30.1627 145.567 30.6678C145.843 31.1728 146.218 31.5707 146.692 31.8615C147.182 32.137 147.733 32.2747 148.345 32.2747ZM157.592 34.4785V18.8682H160.117V34.4785H157.592ZM154.952 25.7551V23.4595H162.757V25.7551H154.952ZM169.329 34.7081C168.257 34.7081 167.286 34.4556 166.413 33.9505C165.541 33.4302 164.845 32.7338 164.324 31.8615C163.819 30.9892 163.567 30.0173 163.567 28.946C163.567 27.8747 163.819 26.9106 164.324 26.0535C164.845 25.1965 165.541 24.5155 166.413 24.0104C167.286 23.4901 168.257 23.2299 169.329 23.2299C170.415 23.2299 171.395 23.4824 172.267 23.9875C173.139 24.4925 173.828 25.1812 174.333 26.0535C174.853 26.9106 175.114 27.8747 175.114 28.946C175.114 30.0173 174.853 30.9892 174.333 31.8615C173.828 32.7338 173.139 33.4302 172.267 33.9505C171.395 34.4556 170.415 34.7081 169.329 34.7081ZM169.329 32.2747C169.956 32.2747 170.507 32.137 170.982 31.8615C171.471 31.5707 171.846 31.1728 172.106 30.6678C172.382 30.1627 172.52 29.5888 172.52 28.946C172.52 28.3033 172.382 27.737 172.106 27.2473C171.831 26.7575 171.456 26.3749 170.982 26.0995C170.507 25.8087 169.956 25.6633 169.329 25.6633C168.717 25.6633 168.166 25.8087 167.676 26.0995C167.201 26.3749 166.826 26.7575 166.551 27.2473C166.291 27.737 166.161 28.3033 166.161 28.946C166.161 29.5888 166.291 30.1627 166.551 30.6678C166.826 31.1728 167.201 31.5707 167.676 31.8615C168.166 32.137 168.717 32.2747 169.329 32.2747Z" fill="#1F1F1F" fill-opacity="0.8"/>
<path fill-rule="evenodd" clip-rule="evenodd" d="M210.667 34.4863C210.123 34.4863 209.682 34.0457 209.682 33.5021L209.682 19.4423C209.682 18.8988 210.123 18.4581 210.667 18.4581C211.21 18.4581 211.651 18.8988 211.651 19.4423L211.651 33.5021C211.651 34.0457 211.21 34.4863 210.667 34.4863Z" fill="#222628"/>
<path fill-rule="evenodd" clip-rule="evenodd" d="M211.264 17.6984C211.593 18.0279 211.593 18.562 211.264 18.8914L206.833 23.3223C206.503 23.6518 205.969 23.6518 205.64 23.3223C205.31 22.9929 205.31 22.4588 205.64 22.1293L210.071 17.6984C210.4 17.369 210.934 17.369 211.264 17.6984Z" fill="#222628"/>
<path fill-rule="evenodd" clip-rule="evenodd" d="M210.07 17.6984C209.741 18.0279 209.741 18.562 210.07 18.8914L214.501 23.3223C214.831 23.6518 215.365 23.6518 215.694 23.3223C216.024 22.9929 216.024 22.4588 215.694 22.1293L211.263 17.6984C210.934 17.369 210.4 17.369 210.07 17.6984Z" fill="#222628"/>
<path fill-rule="evenodd" clip-rule="evenodd" d="M198.013 28.0684C198.557 28.0684 198.997 28.509 198.997 29.0525L198.997 34.9258C198.997 36.5644 200.215 37.9228 201.82 38.0776C204.467 38.3328 207.991 38.6132 210.667 38.6132C213.343 38.6132 216.867 38.3328 219.514 38.0776C221.119 37.9228 222.337 36.5644 222.337 34.9258L222.337 29.0525C222.337 28.509 222.777 28.0684 223.321 28.0684C223.864 28.0684 224.305 28.509 224.305 29.0525L224.305 34.9258C224.305 37.5521 222.343 39.7823 219.703 40.0369C217.048 40.2928 213.444 40.5816 210.667 40.5816C207.89 40.5816 204.286 40.2928 201.631 40.0369C198.991 39.7823 197.029 37.5521 197.029 34.9258L197.029 29.0525C197.029 28.509 197.47 28.0684 198.013 28.0684Z" fill="#222628"/>
</svg>
