<svg width="207" height="169" viewBox="0 0 207 169" fill="none" xmlns="http://www.w3.org/2000/svg">
<rect x="0.602901" y="0.602901" width="205.794" height="167.663" rx="21.1866" fill="white"/>
<rect x="0.602901" y="0.602901" width="205.794" height="167.663" rx="21.1866" stroke="#BBBBBB" stroke-width="1.2058"/>
<path d="M32.093 86.4464C33.9281 86.4464 35.2449 88.1695 35.2449 90.8591C35.2449 93.5627 33.9281 95.2857 32.093 95.2857C30.2439 95.2857 28.9412 93.5627 28.9412 90.8591C28.9412 88.1695 30.2439 86.4464 32.093 86.4464ZM32.093 87.4971C30.8743 87.4971 30.0478 88.8138 30.0478 90.8591C30.0478 92.9183 30.8743 94.2631 32.093 94.2631C33.3118 94.2631 34.1383 92.9183 34.1383 90.8591C34.1383 88.8138 33.3118 87.4971 32.093 87.4971ZM37.9906 85.4658H39.1393V98.1574H37.9906V85.4658ZM34.8667 90.2987H38.4949V91.2513H34.8667V90.2987ZM45.1898 93.7028H46.3525V97.8493H45.1898V93.7028ZM50.8212 85.4938H51.9699V98.1574H50.8212V85.4938ZM41.7297 94.3191L41.5896 93.3666C44.0551 93.3666 47.179 93.3526 49.9387 93.0164L50.0227 93.8709C47.179 94.2911 44.1392 94.3191 41.7297 94.3191ZM42.0519 86.8387H49.5044V87.7632H42.0519V86.8387ZM45.7782 88.3235C47.5432 88.3235 48.7479 89.136 48.7479 90.4108C48.7479 91.6856 47.5432 92.5121 45.7782 92.5121C44.0131 92.5121 42.8084 91.6856 42.8084 90.4108C42.8084 89.136 44.0131 88.3235 45.7782 88.3235ZM45.7782 89.1921C44.6575 89.1921 43.901 89.6684 43.901 90.4108C43.901 91.1532 44.6575 91.6295 45.7782 91.6295C46.8988 91.6295 47.6553 91.1532 47.6553 90.4108C47.6553 89.6684 46.8988 89.1921 45.7782 89.1921ZM45.1898 85.3818H46.3525V87.343H45.1898V85.3818ZM63.399 86.7966H64.5337C64.5337 90.4528 63.3009 93.8148 58.7622 96.0702L58.1318 95.1737C62.1382 93.1985 63.399 90.3688 63.399 86.9227V86.7966ZM58.8182 86.7966H64.0854V87.7352H58.8182V86.7966ZM63.2169 89.9345V90.8311L58.37 91.3073L58.1879 90.2707L63.2169 89.9345ZM66.5789 85.4658H67.7556V98.1434H66.5789V85.4658ZM67.4334 90.6069H69.7728V91.5735H67.4334V90.6069ZM72.3493 91.5455H81.0485V92.4981H72.3493V91.5455ZM70.9064 95.4678H82.3793V96.4344H70.9064V95.4678ZM72.3493 86.6425H80.9224V87.6091H73.512V91.9657H72.3493V86.6425ZM96.9603 85.4798H98.0809V98.1434H96.9603V85.4798ZM94.9571 90.4948H97.3805V91.4474H94.9571V90.4948ZM94.1586 85.746H95.2653V97.5131H94.1586V85.746ZM87.7708 86.9367H92.6037V94.7534H87.7708V86.9367ZM91.511 87.8613H88.8634V93.8288H91.511V87.8613ZM103.641 87.5671H104.594V88.1134C104.594 90.3408 103.151 92.1899 101.008 92.8903L100.447 91.9937C102.338 91.3774 103.641 89.8365 103.641 88.1134V87.5671ZM103.837 87.5671H104.79V88.1134C104.79 89.7104 106.135 91.1392 108.012 91.6716L107.479 92.5961C105.322 91.9517 103.837 90.2287 103.837 88.1134V87.5671ZM100.755 87.0348H107.648V87.9733H100.755V87.0348ZM103.641 85.4798H104.79V87.441H103.641V85.4798ZM109.413 85.4938H110.589V93.2405H109.413V85.4938ZM106.373 93.5067C109.02 93.5067 110.631 94.3472 110.631 95.804C110.631 97.2749 109.02 98.1154 106.373 98.1154C103.725 98.1154 102.128 97.2749 102.128 95.804C102.128 94.3472 103.725 93.5067 106.373 93.5067ZM106.373 94.4312C104.454 94.4312 103.291 94.9355 103.291 95.804C103.291 96.7006 104.454 97.2049 106.373 97.2049C108.306 97.2049 109.469 96.7006 109.469 95.804C109.469 94.9355 108.306 94.4312 106.373 94.4312ZM126.263 85.4798H127.384V98.1434H126.263V85.4798ZM120.772 90.6489H123.966V91.5875H120.772V90.6489ZM123.629 85.802H124.722V97.4991H123.629V85.802ZM120.926 87.0768H122.046C122.046 90.3968 120.716 93.3806 117.298 95.4118L116.611 94.5853C119.595 92.7922 120.926 90.2707 120.926 87.2869V87.0768ZM117.172 87.0768H121.36V88.0294H117.172V87.0768ZM138.715 85.4938H139.892V92.7222H138.715V85.4938ZM131.711 93.4086H139.892V97.9753H131.711V93.4086ZM138.743 94.3332H132.846V97.0368H138.743V94.3332ZM133.098 86.1522C135.017 86.1522 136.39 87.357 136.39 89.108C136.39 90.8591 135.017 92.0638 133.098 92.0638C131.179 92.0638 129.792 90.8591 129.792 89.108C129.792 87.357 131.179 86.1522 133.098 86.1522ZM133.098 87.1188C131.837 87.1188 130.927 87.9313 130.927 89.108C130.927 90.2847 131.837 91.0832 133.098 91.0832C134.359 91.0832 135.269 90.2847 135.269 89.108C135.269 87.9313 134.359 87.1188 133.098 87.1188Z" fill="#050B20"/>
<path d="M35.3444 119.488H36.2164V124.531H35.3444V119.488ZM35.9748 121.621H37.6242V122.346H35.9748V121.621ZM29.3033 119.982H30.1753V123.806H29.3033V119.982ZM29.3033 123.239H30.0492C31.4045 123.239 32.8229 123.144 34.3673 122.829L34.4724 123.554C32.8754 123.879 31.457 123.985 30.0492 123.985H29.3033V123.239ZM30.2383 124.993H36.2689V125.655H31.1103V128.534H30.2383V124.993ZM30.2383 128.187H36.4791V128.859H30.2383V128.187ZM30.8057 126.569H36.1534V127.22H30.8057V126.569ZM45.0094 119.488H45.8814V124.321H45.0094V119.488ZM45.5032 121.526H47.2787V122.251H45.5032V121.526ZM38.9052 120.024H43.2653V123.827H38.9052V120.024ZM42.4143 120.717H39.7562V123.133H42.4143V120.717ZM39.8508 124.772H45.8814V127.105H40.7333V128.523H39.8718V126.443H45.0304V125.466H39.8508V124.772ZM39.8718 128.156H46.2281V128.859H39.8718V128.156ZM54.9963 120.475H55.8473C55.8473 123.218 54.9228 125.739 51.5187 127.431L51.046 126.758C54.0508 125.277 54.9963 123.155 54.9963 120.57V120.475ZM51.5608 120.475H55.5111V121.179H51.5608V120.475ZM54.8598 122.829V123.501L51.2246 123.858L51.088 123.081L54.8598 122.829ZM57.3813 119.477H58.2638V128.986H57.3813V119.477ZM58.0221 123.333H59.7767V124.058H58.0221V123.333ZM61.709 124.037H68.2335V124.751H61.709V124.037ZM60.6269 126.979H69.2316V127.704H60.6269V126.979ZM61.709 120.36H68.1389V121.085H62.5811V124.352H61.709V120.36ZM79.975 119.498H80.8575V124.888H79.975V119.498ZM74.7218 125.434H80.8575V128.859H74.7218V125.434ZM79.996 126.128H75.5728V128.156H79.996V126.128ZM75.5413 119.856H76.2663V120.78C76.2663 122.545 75.1736 124.058 73.5661 124.657L73.1354 123.963C74.5642 123.449 75.5413 122.167 75.5413 120.78V119.856ZM75.6989 119.856H76.4133V120.78C76.4133 122.125 77.4009 123.312 78.8088 123.785L78.378 124.468C76.7916 123.921 75.6989 122.503 75.6989 120.78V119.856ZM85.1958 125.151H86.0678V126.695H85.1958V125.151ZM89.1882 119.488H90.0602V128.986H89.1882V119.488ZM89.7765 123.522H91.5311V124.258H89.7765V123.522ZM82.7478 127.178L82.6218 126.453C84.3238 126.453 86.6457 126.432 88.6103 126.149L88.6839 126.8C86.6352 127.168 84.4078 127.178 82.7478 127.178ZM82.7793 120.633H88.4633V121.337H82.7793V120.633ZM85.6266 121.894C86.9503 121.894 87.8644 122.587 87.8644 123.648C87.8644 124.72 86.9503 125.403 85.6266 125.403C84.3028 125.403 83.3992 124.72 83.3992 123.648C83.3992 122.587 84.3028 121.894 85.6266 121.894ZM85.6266 122.566C84.7755 122.566 84.2187 122.997 84.2187 123.648C84.2187 124.3 84.7755 124.73 85.6266 124.73C86.4776 124.73 87.0449 124.3 87.0449 123.648C87.0449 122.997 86.4776 122.566 85.6266 122.566ZM85.1958 119.498H86.0678V121.106H85.1958V119.498ZM102.411 119.488H103.252V128.986H102.411V119.488ZM98.2926 123.365H100.688V124.069H98.2926V123.365ZM100.436 119.729H101.255V128.502H100.436V119.729ZM98.4082 120.686H99.2487C99.2487 123.176 98.2506 125.413 95.6871 126.937L95.1723 126.317C97.4101 124.972 98.4082 123.081 98.4082 120.843V120.686ZM95.5925 120.686H98.7339V121.4H95.5925V120.686ZM111.75 119.498H112.633V124.92H111.75V119.498ZM106.497 125.434H112.633V128.859H106.497V125.434ZM111.771 126.128H107.348V128.156H111.771V126.128ZM107.537 119.992C108.977 119.992 110.006 120.896 110.006 122.209C110.006 123.522 108.977 124.426 107.537 124.426C106.098 124.426 105.058 123.522 105.058 122.209C105.058 120.896 106.098 119.992 107.537 119.992ZM107.537 120.717C106.592 120.717 105.909 121.326 105.909 122.209C105.909 123.091 106.592 123.69 107.537 123.69C108.483 123.69 109.166 123.091 109.166 122.209C109.166 121.326 108.483 120.717 107.537 120.717Z" fill="#050B20"/>
<path fill-rule="evenodd" clip-rule="evenodd" d="M41.4489 52.9172L52.8405 39.3595C53.0469 39.1138 53.0152 38.825 52.8766 38.6617C52.3688 38.0636 51.8002 37.4478 51.3258 37.0492C50.8416 36.6423 50.1043 36.1662 49.3991 35.7493C49.2067 35.6355 48.9107 35.6574 48.704 35.9034L37.3221 49.4497C37.0663 49.7541 36.9327 50.1193 36.9314 50.483C36.9286 51.2827 36.9417 52.3494 37.0081 53.2483C37.0271 53.5066 37.0496 53.7366 37.0748 53.9335C37.2731 53.9244 37.5036 53.9069 37.7612 53.8812C38.6582 53.7916 39.7111 53.6206 40.4984 53.4801C40.8564 53.4161 41.1931 53.2216 41.4489 52.9172ZM50.1754 34.4364C49.2994 33.9184 48.1909 34.1431 47.5362 34.9222L36.1543 48.4685C35.6798 49.0332 35.4087 49.7401 35.4062 50.4776C35.4005 52.101 35.4577 54.9301 35.9148 55.3141C36.3718 55.6982 39.1685 55.2669 40.7665 54.9816C41.4926 54.8519 42.1422 54.463 42.6167 53.8984L54.0082 40.3407C54.6585 39.5668 54.6936 38.445 54.0393 37.6745C53.5184 37.0609 52.8828 36.3652 52.307 35.8814C51.722 35.3899 50.8947 34.8616 50.1754 34.4364Z" fill="#222628"/>
<path fill-rule="evenodd" clip-rule="evenodd" d="M46.8528 37.7145C46.8529 37.7146 46.8528 37.7145 46.8528 37.7145L46.8545 37.7171L46.8626 37.7293L46.8966 37.7802C46.927 37.8253 46.9723 37.8915 47.0301 37.9737C47.1461 38.1384 47.3107 38.3645 47.5049 38.6097C47.9095 39.1207 48.384 39.6386 48.785 39.9026C49.2821 40.2299 49.8453 40.5746 50.2876 40.8394C50.508 40.9713 50.6969 41.0825 50.8305 41.1606C50.8973 41.1996 50.9502 41.2303 50.9862 41.2512L51.0273 41.2749L51.0401 41.2823C51.0401 41.2823 51.0407 41.2827 50.6608 41.9439M46.2138 38.1308L45.5748 38.547C45.3449 38.194 45.4447 37.7216 45.7976 37.4917C46.1504 37.2619 46.6229 37.3618 46.8528 37.7145C46.8529 37.7146 46.8528 37.7145 46.8528 37.7145M50.6608 41.9439C50.2808 42.6051 50.2808 42.6051 50.2807 42.6051L50.2651 42.5961L50.2218 42.5711C50.1841 42.5493 50.1295 42.5175 50.0608 42.4774C49.9236 42.3971 49.73 42.2832 49.5042 42.1481C49.0542 41.8787 48.4698 41.5212 47.9463 41.1765C47.3267 40.7686 46.7253 40.0821 46.3092 39.5567C46.093 39.2837 45.911 39.0336 45.7829 38.8516C45.7187 38.7604 45.6676 38.6857 45.6322 38.6332C45.6145 38.6069 45.6006 38.5862 45.591 38.5716L45.5796 38.5544L45.5764 38.5494L45.5748 38.547C45.5747 38.5469 45.5748 38.547 46.2138 38.1308" fill="#222628"/>
<path fill-rule="evenodd" clip-rule="evenodd" d="M47.937 54.7997C47.937 54.3786 48.2785 54.0371 48.6996 54.0371H55.8902C56.3114 54.0371 56.6528 54.3786 56.6528 54.7997C56.6528 55.2209 56.3114 55.5624 55.8902 55.5624H48.6996C48.2785 55.5624 47.937 55.2209 47.937 54.7997Z" fill="#8E44F4"/>
<g filter="url(#filter0_d_898_3898)">
<circle cx="45.8123" cy="44.8343" r="16.3421" fill="#F48C06" fill-opacity="0.2"/>
</g>
<defs>
<filter id="filter0_d_898_3898" x="12.253" y="18.1618" width="67.1186" height="67.1181" filterUnits="userSpaceOnUse" color-interpolation-filters="sRGB">
<feFlood flood-opacity="0" result="BackgroundImageFix"/>
<feColorMatrix in="SourceAlpha" type="matrix" values="0 0 0 0 0 0 0 0 0 0 0 0 0 0 0 0 0 0 127 0" result="hardAlpha"/>
<feOffset dy="6.8869"/>
<feGaussianBlur stdDeviation="8.60863"/>
<feColorMatrix type="matrix" values="0 0 0 0 0.146118 0 0 0 0 0.172389 0 0 0 0 0.441667 0 0 0 0.1 0"/>
<feBlend mode="normal" in2="BackgroundImageFix" result="effect1_dropShadow_898_3898"/>
<feBlend mode="normal" in="SourceGraphic" in2="effect1_dropShadow_898_3898" result="shape"/>
</filter>
</defs>
</svg>
