<svg width="207" height="169" viewBox="0 0 207 169" fill="none" xmlns="http://www.w3.org/2000/svg">
<rect x="1.01944" y="1.3505" width="204.974" height="166.994" rx="21.1021" fill="white"/>
<rect x="1.01944" y="1.3505" width="204.974" height="166.994" rx="21.1021" stroke="#BBBBBB" stroke-width="1.201"/>
<path d="M37.6445 85.94H38.8026V93.0837H37.6445V85.94ZM38.4817 89.0096H40.6722V89.9723H38.4817V89.0096ZM34.1564 86.7493H35.3842C35.3842 89.9305 33.1658 92.2187 29.4544 93.2233L29.0079 92.3024C32.2728 91.4094 34.1564 89.5816 34.1564 87.2655V86.7493ZM29.552 86.7493H34.7982V87.6841H29.552V86.7493ZM30.8636 93.6837H38.8026V98.3857H30.8636V93.6837ZM37.6585 94.6185H32.0077V97.4369H37.6585V94.6185ZM48.5822 89.2049H51.4286V90.1677H48.5822V89.2049ZM51.0658 85.94H52.2239V93.4605H51.0658V85.94ZM48.08 93.8372C50.6751 93.8372 52.2797 94.7162 52.2797 96.1952C52.2797 97.6881 50.6751 98.5392 48.08 98.5392C45.4708 98.5392 43.8663 97.6881 43.8663 96.1952C43.8663 94.7162 45.4708 93.8372 48.08 93.8372ZM48.08 94.7441C46.1824 94.7441 45.0243 95.2743 45.0243 96.1952C45.0243 97.1021 46.1824 97.6323 48.08 97.6323C49.9775 97.6323 51.1356 97.1021 51.1356 96.1952C51.1356 95.2743 49.9775 94.7441 48.08 94.7441ZM45.0662 87.2097H46.015V88.2282C46.015 90.5583 44.5918 92.5535 42.4989 93.3349L41.899 92.414C43.7686 91.7303 45.0662 90.0421 45.0662 88.2282V87.2097ZM45.2894 87.2097H46.2243V88.2282C46.2243 89.8607 47.4521 91.4234 49.2799 92.0652L48.6939 92.9861C46.6428 92.2466 45.2894 90.349 45.2894 88.2282V87.2097ZM42.2478 86.8609H48.9869V87.8097H42.2478V86.8609ZM61.361 92.7768H62.5191V96.3765H61.361V92.7768ZM65.2538 92.7768H66.3979V96.3765H65.2538V92.7768ZM58.2078 96.0696H69.6349V97.0323H58.2078V96.0696ZM59.1984 87.0981H68.5606V88.0469H59.1984V87.0981ZM59.2263 92.1489H68.5466V93.0837H59.2263V92.1489ZM61.1657 87.8655H62.3238V92.3443H61.1657V87.8655ZM65.4631 87.8655H66.6072V92.3443H65.4631V87.8655ZM80.2517 85.954H81.4098V95.5673H80.2517V85.954ZM78.117 89.2886H80.7401V90.2374H78.117V89.2886ZM78.117 91.9536H80.7401V92.8884H78.117V91.9536ZM71.057 87.4748H78.117V88.4096H71.057V87.4748ZM74.6288 89.1073C76.3031 89.1073 77.4752 90.07 77.4752 91.5211C77.4752 92.9582 76.3031 93.9348 74.6288 93.9348C72.9406 93.9348 71.7686 92.9582 71.7686 91.5211C71.7686 90.07 72.9406 89.1073 74.6288 89.1073ZM74.6288 90.0142C73.5824 90.0142 72.8708 90.6281 72.8708 91.5211C72.8708 92.414 73.5824 93.014 74.6288 93.014C75.6753 93.014 76.3869 92.414 76.3869 91.5211C76.3869 90.6281 75.6753 90.0142 74.6288 90.0142ZM74.0568 85.9261H75.2148V88.0748H74.0568V85.9261ZM73.3033 97.3253H81.7167V98.2741H73.3033V97.3253ZM73.3033 94.7441H74.4614V97.7858H73.3033V94.7441Z" fill="#050B20"/>
<path d="M35.6377 115.474H36.5062V120.831H35.6377V115.474ZM36.2656 117.776H37.9085V118.498H36.2656V117.776ZM33.0216 116.081H33.9425C33.9425 118.466 32.2786 120.183 29.4951 120.936L29.1602 120.245C31.6089 119.576 33.0216 118.205 33.0216 116.468V116.081ZM29.5683 116.081H33.503V116.782H29.5683V116.081ZM30.552 121.281H36.5062V124.808H30.552V121.281ZM35.6482 121.982H31.4101V124.096H35.6482V121.982ZM43.841 117.922H45.9757V118.644H43.841V117.922ZM45.7036 115.474H46.5722V121.114H45.7036V115.474ZM43.4643 121.396C45.4106 121.396 46.6141 122.056 46.6141 123.165C46.6141 124.285 45.4106 124.923 43.4643 124.923C41.5074 124.923 40.304 124.285 40.304 123.165C40.304 122.056 41.5074 121.396 43.4643 121.396ZM43.4643 122.077C42.0411 122.077 41.1726 122.474 41.1726 123.165C41.1726 123.845 42.0411 124.243 43.4643 124.243C44.8874 124.243 45.756 123.845 45.756 123.165C45.756 122.474 44.8874 122.077 43.4643 122.077ZM41.2039 116.426H41.9155V117.19C41.9155 118.937 40.8482 120.434 39.2785 121.02L38.8285 120.329C40.2308 119.816 41.2039 118.55 41.2039 117.19V116.426ZM41.3714 116.426H42.0725V117.19C42.0725 118.414 42.9934 119.586 44.3642 120.067L43.9247 120.758C42.3864 120.203 41.3714 118.78 41.3714 117.19V116.426ZM39.0901 116.164H44.1444V116.876H39.0901V116.164ZM53.5579 120.601H54.4265V123.301H53.5579V120.601ZM56.4775 120.601H57.3356V123.301H56.4775V120.601ZM51.193 123.071H59.7633V123.793H51.193V123.071ZM51.9359 116.342H58.9576V117.054H51.9359V116.342ZM51.9569 120.13H58.9471V120.831H51.9569V120.13ZM53.4114 116.918H54.28V120.277H53.4114V116.918ZM56.6345 116.918H57.4926V120.277H56.6345V116.918ZM67.7259 115.484H68.5945V122.694H67.7259V115.484ZM66.1249 117.985H68.0922V118.697H66.1249V117.985ZM66.1249 119.984H68.0922V120.685H66.1249V119.984ZM60.8299 116.625H66.1249V117.326H60.8299V116.625ZM63.5088 117.849C64.7645 117.849 65.6435 118.571 65.6435 119.659C65.6435 120.737 64.7645 121.47 63.5088 121.47C62.2426 121.47 61.3636 120.737 61.3636 119.659C61.3636 118.571 62.2426 117.849 63.5088 117.849ZM63.5088 118.529C62.7239 118.529 62.1903 118.99 62.1903 119.659C62.1903 120.329 62.7239 120.779 63.5088 120.779C64.2936 120.779 64.8273 120.329 64.8273 119.659C64.8273 118.99 64.2936 118.529 63.5088 118.529ZM63.0797 115.463H63.9483V117.075H63.0797V115.463ZM62.5147 124.013H68.8247V124.724H62.5147V124.013ZM62.5147 122.077H63.3832V124.358H62.5147V122.077ZM74.7154 115.631C76.7978 115.631 78.043 116.217 78.043 117.273C78.043 118.33 76.7978 118.916 74.7154 118.916C72.6225 118.916 71.3877 118.33 71.3877 117.273C71.3877 116.217 72.6225 115.631 74.7154 115.631ZM74.7154 116.29C73.1666 116.29 72.2771 116.646 72.2771 117.273C72.2771 117.901 73.1666 118.257 74.7154 118.257C76.2536 118.257 77.1431 117.901 77.1431 117.273C77.1431 116.646 76.2536 116.29 74.7154 116.29ZM70.4354 119.544H78.9848V120.245H70.4354V119.544ZM71.4714 121.051H77.8965V123.186H72.3504V124.337H71.4923V122.558H77.0385V121.721H71.4714V121.051ZM71.4923 124.149H78.1791V124.829H71.4923V124.149ZM82.8626 116.468H88.4506V117.179H82.8626V116.468ZM85.6566 117.661C86.9961 117.661 87.917 118.33 87.917 119.377C87.917 120.413 86.9961 121.072 85.6566 121.072C84.2963 121.072 83.3859 120.413 83.3859 119.377C83.3859 118.33 84.2963 117.661 85.6566 117.661ZM85.6566 118.341C84.7881 118.341 84.2125 118.738 84.2125 119.377C84.2125 119.994 84.7881 120.402 85.6566 120.402C86.5043 120.402 87.0903 119.994 87.0903 119.377C87.0903 118.738 86.5043 118.341 85.6566 118.341ZM89.3087 115.474H90.1773V121.386H89.3087V115.474ZM89.9366 118.079H91.5795V118.801H89.9366V118.079ZM84.0347 121.899H90.1773V124.933H89.3087V122.61H84.0347V121.899ZM85.2171 115.421H86.0857V116.865H85.2171V115.421ZM93.546 121.145H94.4041V122.244H99.0294V121.145H99.8979V124.808H93.546V121.145ZM94.4041 122.914V124.107H99.0294V122.914H94.4041ZM92.4577 119.785H101.007V120.486H92.4577V119.785ZM96.2981 115.578H97.0411V115.997C97.0411 117.64 95.2098 118.822 93.2635 119.115L92.9495 118.435C94.6552 118.205 96.2981 117.19 96.2981 115.997V115.578ZM96.4342 115.578H97.1771V115.997C97.1771 117.169 98.841 118.205 100.526 118.435L100.201 119.115C98.2759 118.822 96.4342 117.619 96.4342 115.997V115.578ZM108.562 115.474H109.43V120.967H108.562V115.474ZM109.053 117.88H110.832V118.613H109.053V117.88ZM103.486 121.386H104.334V122.391H108.572V121.386H109.43V124.808H103.486V121.386ZM104.334 123.06V124.107H108.572V123.06H104.334ZM102.116 116.436H107.704V117.148H102.116V116.436ZM104.91 117.577C106.259 117.577 107.17 118.236 107.17 119.241C107.17 120.245 106.259 120.905 104.91 120.905C103.549 120.905 102.639 120.245 102.639 119.241C102.639 118.236 103.549 117.577 104.91 117.577ZM104.91 118.236C104.041 118.236 103.465 118.634 103.465 119.241C103.465 119.848 104.041 120.245 104.91 120.245C105.757 120.245 106.343 119.848 106.343 119.241C106.343 118.634 105.757 118.236 104.91 118.236ZM104.47 115.379H105.339V116.823H104.47V115.379ZM118.596 115.474H119.465V124.933H118.596V115.474ZM112.318 116.394H113.176V122.255H112.318V116.394ZM112.318 121.742H113.092C114.526 121.742 116.022 121.637 117.623 121.302L117.728 122.045C116.085 122.38 114.588 122.495 113.092 122.495H112.318V121.742ZM127.741 115.463H128.62V124.944H127.741V115.463ZM128.411 119.199H130.169V119.931H128.411V119.199ZM121.745 121.857H122.488C124.236 121.857 125.46 121.794 126.873 121.532L126.967 122.265C125.512 122.537 124.267 122.589 122.488 122.589H121.745V121.857ZM121.745 116.384H126.14V117.096H122.603V122.181H121.745V116.384ZM131.476 124.17C131.302 124.17 131.155 124.114 131.037 124.002C130.925 123.883 130.869 123.74 130.869 123.573C130.869 123.406 130.925 123.266 131.037 123.154C131.155 123.036 131.302 122.977 131.476 122.977C131.644 122.977 131.783 123.036 131.895 123.154C132.013 123.266 132.073 123.406 132.073 123.573C132.073 123.74 132.013 123.883 131.895 124.002C131.783 124.114 131.644 124.17 131.476 124.17Z" fill="#050B20"/>
<g filter="url(#filter0_d_289_3350)">
<circle cx="44.9098" cy="46.3277" r="16.277" fill="#E72929" fill-opacity="0.2"/>
</g>
<g clip-path="url(#clip0_289_3350)">
<path d="M48.7074 45.2466C49.608 45.2466 50.3351 44.5196 50.3351 43.6189C50.3351 42.7183 49.608 41.9913 48.7074 41.9913C47.8067 41.9913 47.0797 42.7183 47.0797 43.6189C47.0797 44.5196 47.8067 45.2466 48.7074 45.2466ZM41.1115 45.2466C42.0121 45.2466 42.7392 44.5196 42.7392 43.6189C42.7392 42.7183 42.0121 41.9913 41.1115 41.9913C40.2108 41.9913 39.4838 42.7183 39.4838 43.6189C39.4838 44.5196 40.2108 45.2466 41.1115 45.2466ZM44.8986 35.4805C38.9086 35.4805 34.0581 40.3419 34.0581 46.3318C34.0581 52.3217 38.9086 57.1831 44.8986 57.1831C50.8993 57.1831 55.7607 52.3217 55.7607 46.3318C55.7607 40.3419 50.8993 35.4805 44.8986 35.4805ZM44.9094 55.0128C40.1131 55.0128 36.2284 51.1281 36.2284 46.3318C36.2284 41.5355 40.1131 37.6507 44.9094 37.6507C49.7057 37.6507 53.5905 41.5355 53.5905 46.3318C53.5905 51.1281 49.7057 55.0128 44.9094 55.0128ZM44.9094 50.6723C43.3088 50.6723 41.9253 49.7933 41.1711 48.502H39.3535C40.2216 50.7211 42.3811 52.3 44.9094 52.3C47.4378 52.3 49.5972 50.7211 50.4653 48.502H48.6477C47.8935 49.7933 46.51 50.6723 44.9094 50.6723Z" fill="black"/>
</g>
<defs>
<filter id="filter0_d_289_3350" x="11.4842" y="17.1893" width="66.851" height="66.8519" filterUnits="userSpaceOnUse" color-interpolation-filters="sRGB">
<feFlood flood-opacity="0" result="BackgroundImageFix"/>
<feColorMatrix in="SourceAlpha" type="matrix" values="0 0 0 0 0 0 0 0 0 0 0 0 0 0 0 0 0 0 127 0" result="hardAlpha"/>
<feOffset dy="4.28716"/>
<feGaussianBlur stdDeviation="8.57431"/>
<feColorMatrix type="matrix" values="0 0 0 0 0.212 0 0 0 0 0.238778 0 0 0 0 0.533333 0 0 0 0.06 0"/>
<feBlend mode="normal" in2="BackgroundImageFix" result="effect1_dropShadow_289_3350"/>
<feBlend mode="normal" in="SourceGraphic" in2="effect1_dropShadow_289_3350" result="shape"/>
</filter>
<clipPath id="clip0_289_3350">
<rect width="26.0431" height="26.0431" fill="white" transform="translate(31.8877 33.3086)"/>
</clipPath>
</defs>
</svg>
