<svg width="207" height="169" viewBox="0 0 207 169" fill="none" xmlns="http://www.w3.org/2000/svg">
<rect x="1.27579" y="0.604404" width="204.974" height="166.994" rx="21.1021" fill="white"/>
<rect x="1.27579" y="0.604404" width="204.974" height="166.994" rx="21.1021" stroke="#BBBBBB" stroke-width="1.201"/>
<path d="M37.9009 85.1939H39.0589V91.8912H37.9009V85.1939ZM38.738 88.0263H40.9286V88.989H38.738V88.0263ZM29.8782 85.8497H31.0362V90.9284H29.8782V85.8497ZM29.8782 90.175H30.8688C32.6687 90.175 34.5523 90.0494 36.6033 89.6309L36.7428 90.5936C34.622 91.0261 32.7384 91.1656 30.8688 91.1656H29.8782V90.175ZM31.1199 92.5051H39.1287V93.3841H32.278V97.2071H31.1199V92.5051ZM31.1199 96.7467H39.4078V97.6396H31.1199V96.7467ZM31.8734 94.598H38.9752V95.463H31.8734V94.598ZM50.7361 85.1939H51.8942V91.6121H50.7361V85.1939ZM51.3919 87.9007H53.7499V88.8635H51.3919V87.9007ZM42.6297 85.9055H48.42V90.9563H42.6297V85.9055ZM47.2899 86.8264H43.7599V90.0355H47.2899V86.8264ZM43.8854 92.2121H51.8942V95.3095H45.0574V97.1931H43.9133V94.4305H50.764V93.1329H43.8854V92.2121ZM43.9133 96.7048H52.3546V97.6396H43.9133V96.7048ZM63.8219 86.5055H64.9521C64.9521 90.1471 63.7242 93.4957 59.2036 95.7421L58.5757 94.8491C62.5662 92.8818 63.8219 90.0634 63.8219 86.631V86.5055ZM59.2594 86.5055H64.5056V87.4403H59.2594V86.5055ZM63.6405 89.6309V90.5238L58.8129 90.9982L58.6315 89.9657L63.6405 89.6309ZM66.9891 85.18H68.1611V97.807H66.9891V85.18ZM67.8402 90.3006H70.1703V91.2633H67.8402V90.3006ZM72.7365 91.2354H81.401V92.1842H72.7365V91.2354ZM71.2994 95.1421H82.7265V96.1048H71.2994V95.1421ZM72.7365 86.352H81.2755V87.3147H73.8946V91.654H72.7365V86.352ZM87.6779 86.5194H95.1286V87.4682H87.6779V86.5194ZM91.4033 88.11C93.1892 88.11 94.417 89.003 94.417 90.3982C94.417 91.7795 93.1892 92.6586 91.4033 92.6586C89.5894 92.6586 88.3756 91.7795 88.3756 90.3982C88.3756 89.003 89.5894 88.11 91.4033 88.11ZM91.4033 89.0169C90.2452 89.0169 89.4778 89.5471 89.4778 90.3982C89.4778 91.2214 90.2452 91.7656 91.4033 91.7656C92.5334 91.7656 93.3148 91.2214 93.3148 90.3982C93.3148 89.5471 92.5334 89.0169 91.4033 89.0169ZM96.2727 85.1939H97.4308V93.0771H96.2727V85.1939ZM97.1099 88.6681H99.3004V89.6309H97.1099V88.6681ZM89.2406 93.7608H97.4308V97.807H96.2727V94.7096H89.2406V93.7608ZM90.8173 85.1242H91.9753V87.0496H90.8173V85.1242ZM101.922 92.7562H103.067V94.2212H109.234V92.7562H110.392V97.6396H101.922V92.7562ZM103.067 95.1142V96.7048H109.234V95.1142H103.067ZM100.471 90.9424H111.871V91.8772H100.471V90.9424ZM105.592 85.3335H106.583V85.8916C106.583 88.0821 104.141 89.6588 101.546 90.0494L101.127 89.1425C103.401 88.8356 105.592 87.4822 105.592 85.8916V85.3335ZM105.773 85.3335H106.764V85.8916C106.764 87.4543 108.982 88.8356 111.229 89.1425L110.796 90.0494C108.229 89.6588 105.773 88.0542 105.773 85.8916V85.3335ZM121.86 85.1939H123.018V97.807H121.86V85.1939ZM122.739 90.3703H125.083V91.347H122.739V90.3703ZM113.251 87.2031H120.688V88.1519H113.251V87.2031ZM117.018 89.1983C118.804 89.1983 120.088 90.3982 120.088 92.1005C120.088 93.8027 118.804 95.0026 117.018 95.0026C115.246 95.0026 113.948 93.8027 113.948 92.1005C113.948 90.3982 115.246 89.1983 117.018 89.1983ZM117.018 90.161C115.874 90.161 115.051 90.9563 115.051 92.1005C115.051 93.2306 115.874 94.0399 117.018 94.0399C118.162 94.0399 118.985 93.2306 118.985 92.1005C118.985 90.9563 118.162 90.161 117.018 90.161ZM116.418 85.3474H117.576V87.6356H116.418V85.3474ZM135.337 85.1939H136.495V97.807H135.337V85.1939ZM131.639 86.5473H132.783C132.783 90.2029 131.137 93.398 126.923 95.463L126.309 94.5282C129.951 92.7702 131.639 90.0913 131.639 86.7427V86.5473ZM126.881 86.5473H132.141V87.4961H126.881V86.5473Z" fill="#050B20"/>
<path d="M31.3897 119.957H32.0699V121.757C32.0699 123.734 31.2327 125.649 29.8514 126.487L29.2968 125.838C30.6048 125.074 31.3897 123.379 31.3897 121.757V119.957ZM31.5466 119.957H32.2268V121.704C32.2268 123.264 32.9593 124.865 34.2151 125.566L33.6918 126.246C32.3105 125.451 31.5466 123.609 31.5466 121.704V119.957ZM36.6114 119.067H37.4486V128.527H36.6114V119.067ZM35.115 122.866H36.9253V123.588H35.115V122.866ZM34.529 119.266H35.3557V128.056H34.529V119.266ZM39.0383 126.644H47.6087V127.366H39.0383V126.644ZM42.8683 124.613H43.7369V126.947H42.8683V124.613ZM40.0743 119.768H46.5518V122.636H40.9638V124.53H40.1057V121.935H45.6937V120.47H40.0743V119.768ZM40.1057 124.163H46.7715V124.875H40.1057V124.163ZM48.6543 123.86H57.2351V124.572H48.6543V123.86ZM52.568 124.31H53.447V126.487H52.568V124.31ZM49.7426 127.596H56.2829V128.318H49.7426V127.596ZM49.7426 125.555H50.6112V127.795H49.7426V125.555ZM52.9343 119.298C54.933 119.298 56.2515 120.03 56.2515 121.202C56.2515 122.374 54.933 123.107 52.9343 123.107C50.9251 123.107 49.6171 122.374 49.6171 121.202C49.6171 120.03 50.9251 119.298 52.9343 119.298ZM52.9343 120.009C51.4902 120.009 50.5379 120.47 50.5379 121.202C50.5379 121.945 51.4902 122.395 52.9343 122.395C54.3784 122.395 55.3306 121.945 55.3306 121.202C55.3306 120.47 54.3784 120.009 52.9343 120.009ZM67.5276 119.067H68.3962V124.09H67.5276V119.067ZM68.1555 121.192H69.7984V121.914H68.1555V121.192ZM61.5106 119.559H62.3791V123.368H61.5106V119.559ZM61.5106 122.803H62.2536C63.6035 122.803 65.0162 122.709 66.5545 122.395L66.6591 123.117C65.0685 123.441 63.6558 123.546 62.2536 123.546H61.5106V122.803ZM62.4419 124.551H68.4485V125.21H63.3105V128.077H62.4419V124.551ZM62.4419 127.732H68.6578V128.402H62.4419V127.732ZM63.007 126.12H68.3334V126.769H63.007V126.12ZM77.1541 119.067H78.0226V123.881H77.1541V119.067ZM77.6459 121.097H79.4144V121.819H77.6459V121.097ZM71.0743 119.601H75.417V123.389H71.0743V119.601ZM74.5694 120.292H71.9219V122.698H74.5694V120.292ZM72.0161 124.331H78.0226V126.654H72.8951V128.067H72.037V125.995H77.175V125.022H72.0161V124.331ZM72.037 127.7H78.368V128.402H72.037V127.7ZM87.1013 120.051H87.9489C87.9489 122.782 87.028 125.294 83.6375 126.978L83.1666 126.309C86.1595 124.833 87.1013 122.719 87.1013 120.145V120.051ZM83.6794 120.051H87.614V120.752H83.6794V120.051ZM86.9652 122.395V123.065L83.3445 123.421L83.2085 122.646L86.9652 122.395ZM89.4767 119.057H90.3557V128.527H89.4767V119.057ZM90.115 122.897H91.8626V123.619H90.115V122.897ZM93.7872 123.598H100.286V124.31H93.7872V123.598ZM92.7094 126.528H101.28V127.251H92.7094V126.528ZM93.7872 119.936H100.191V120.658H94.6558V123.912H93.7872V119.936ZM102.325 123.462H110.906V124.122H102.325V123.462ZM103.34 124.886H109.828V126.905H104.23V128.014H103.372V126.309H108.981V125.503H103.34V124.886ZM103.372 127.784H110.132V128.412H103.372V127.784ZM103.414 119.339H109.797V121.307H104.293V122.332H103.435V120.721H108.949V119.957H103.414V119.339ZM103.435 122.123H109.975V122.751H103.435V122.123ZM114.753 120.061H120.341V120.773H114.753V120.061ZM117.547 121.254C118.886 121.254 119.807 121.924 119.807 122.971C119.807 124.007 118.886 124.666 117.547 124.666C116.186 124.666 115.276 124.007 115.276 122.971C115.276 121.924 116.186 121.254 117.547 121.254ZM117.547 121.935C116.678 121.935 116.102 122.332 116.102 122.971C116.102 123.588 116.678 123.996 117.547 123.996C118.394 123.996 118.98 123.588 118.98 122.971C118.98 122.332 118.394 121.935 117.547 121.935ZM121.199 119.067H122.067V124.98H121.199V119.067ZM121.827 121.673H123.469V122.395H121.827V121.673ZM115.925 125.492H122.067V128.527H121.199V126.204H115.925V125.492ZM117.107 119.015H117.976V120.459H117.107V119.015ZM125.436 124.739H126.294V125.838H130.919V124.739H131.788V128.402H125.436V124.739ZM126.294 126.508V127.7H130.919V126.508H126.294ZM124.348 123.379H132.897V124.08H124.348V123.379ZM128.188 119.172H128.931V119.591C128.931 121.233 127.1 122.416 125.153 122.709L124.839 122.029C126.545 121.799 128.188 120.783 128.188 119.591V119.172ZM128.324 119.172H129.067V119.591C129.067 120.763 130.731 121.799 132.416 122.029L132.091 122.709C130.166 122.416 128.324 121.213 128.324 119.591V119.172ZM140.452 119.067H141.32V124.561H140.452V119.067ZM140.943 121.474H142.722V122.207H140.943V121.474ZM135.376 124.98H136.224V125.984H140.462V124.98H141.32V128.402H135.376V124.98ZM136.224 126.654V127.7H140.462V126.654H136.224ZM134.005 120.03H139.593V120.742H134.005V120.03ZM136.799 121.171C138.149 121.171 139.06 121.83 139.06 122.835C139.06 123.839 138.149 124.498 136.799 124.498C135.439 124.498 134.529 123.839 134.529 122.835C134.529 121.83 135.439 121.171 136.799 121.171ZM136.799 121.83C135.931 121.83 135.355 122.228 135.355 122.835C135.355 123.441 135.931 123.839 136.799 123.839C137.647 123.839 138.233 123.441 138.233 122.835C138.233 122.228 137.647 121.83 136.799 121.83ZM136.36 118.973H137.229V120.417H136.36V118.973ZM150.486 119.067H151.355V128.527H150.486V119.067ZM144.207 119.988H145.066V125.848H144.207V119.988ZM144.207 125.336H144.982C146.415 125.336 147.912 125.231 149.513 124.896L149.618 125.639C147.975 125.974 146.478 126.089 144.982 126.089H144.207V125.336ZM159.631 119.057H160.51V128.538H159.631V119.057ZM160.301 122.793H162.059V123.525H160.301V122.793ZM153.635 125.451H154.378C156.126 125.451 157.35 125.388 158.763 125.126L158.857 125.859C157.402 126.131 156.157 126.183 154.378 126.183H153.635V125.451ZM153.635 119.978H158.03V120.689H154.493V125.775H153.635V119.978ZM163.366 127.763C163.192 127.763 163.045 127.707 162.927 127.596C162.815 127.477 162.759 127.334 162.759 127.167C162.759 126.999 162.815 126.86 162.927 126.748C163.045 126.63 163.192 126.57 163.366 126.57C163.534 126.57 163.673 126.63 163.785 126.748C163.903 126.86 163.963 126.999 163.963 127.167C163.963 127.334 163.903 127.477 163.785 127.596C163.673 127.707 163.534 127.763 163.366 127.763Z" fill="#050B20"/>
<path fill-rule="evenodd" clip-rule="evenodd" d="M41.9591 52.7153L53.3053 39.2116C53.5109 38.9669 53.4794 38.6792 53.3413 38.5166C52.8355 37.9209 52.2692 37.3075 51.7967 36.9105C51.3144 36.5053 50.58 36.0311 49.8777 35.6158C49.686 35.5025 49.3912 35.5243 49.1853 35.7693L37.8487 49.2616C37.594 49.5648 37.4609 49.9286 37.4596 50.2908C37.4569 51.0873 37.4699 52.1497 37.536 53.0451C37.555 53.3023 37.5774 53.5314 37.6025 53.7275C37.8 53.7185 38.0295 53.701 38.2861 53.6754C39.1795 53.5862 40.2283 53.4159 41.0124 53.2759C41.369 53.2122 41.7044 53.0185 41.9591 52.7153ZM50.6509 34.3081C49.7783 33.7922 48.6742 34.016 48.0222 34.7921L36.6856 48.2843C36.2131 48.8467 35.943 49.5509 35.9405 50.2855C35.9348 51.9023 35.9918 54.7201 36.4471 55.1027C36.9023 55.4852 39.6878 55.0557 41.2795 54.7714C42.0026 54.6423 42.6497 54.255 43.1223 53.6926L54.4684 40.1889C55.1161 39.4181 55.151 38.3008 54.4994 37.5333C53.9805 36.9222 53.3474 36.2293 52.7739 35.7474C52.1913 35.2578 51.3673 34.7317 50.6509 34.3081Z" fill="#222628"/>
<path fill-rule="evenodd" clip-rule="evenodd" d="M47.3416 37.5753C47.3416 37.5753 47.3416 37.5752 47.3416 37.5753L47.3433 37.5778L47.3513 37.5899L47.3852 37.6406C47.4155 37.6855 47.4606 37.7516 47.5182 37.8334C47.6337 37.9974 47.7976 38.2226 47.9911 38.4669C48.3941 38.9758 48.8667 39.4916 49.2661 39.7546C49.7612 40.0806 50.3221 40.4239 50.7627 40.6876C50.9823 40.819 51.1704 40.9298 51.3034 41.0076C51.3699 41.0464 51.4226 41.077 51.4585 41.0978L51.4994 41.1214L51.5122 41.1288C51.5122 41.1288 51.5128 41.1292 51.1344 41.7878M46.7051 37.9898L46.0686 38.4044C45.8397 38.0529 45.939 37.5823 46.2906 37.3533C46.642 37.1244 47.1126 37.2239 47.3416 37.5753C47.3416 37.5753 47.3416 37.5752 47.3416 37.5753M51.1344 41.7878C50.7559 42.4464 50.7559 42.4464 50.7559 42.4463L50.7403 42.4374L50.6971 42.4124C50.6596 42.3907 50.6052 42.3591 50.5368 42.3191C50.4001 42.2392 50.2073 42.1257 49.9824 41.9911C49.5342 41.7228 48.9521 41.3668 48.4307 41.0235C47.8136 40.6172 47.2146 39.9334 46.8001 39.41C46.5848 39.1381 46.4035 38.8891 46.2759 38.7078C46.212 38.617 46.1611 38.5426 46.1258 38.4903C46.1082 38.4641 46.0944 38.4434 46.0848 38.4289L46.0735 38.4118L46.0702 38.4068L46.0686 38.4044C46.0686 38.4043 46.0686 38.4044 46.7051 37.9898" fill="#222628"/>
<path fill-rule="evenodd" clip-rule="evenodd" d="M48.4209 54.5877C48.4209 54.1682 48.761 53.8281 49.1805 53.8281H56.3424C56.7619 53.8281 57.1019 54.1682 57.1019 54.5877C57.1019 55.0072 56.7619 55.3473 56.3424 55.3473H49.1805C48.761 55.3473 48.4209 55.0072 48.4209 54.5877Z" fill="#8E44F4"/>
<g filter="url(#filter0_d_289_3327)">
<circle cx="45.1617" cy="44.5074" r="16.277" fill="#F48C06" fill-opacity="0.2"/>
</g>
<defs>
<filter id="filter0_d_289_3327" x="11.7361" y="17.9413" width="66.851" height="66.8519" filterUnits="userSpaceOnUse" color-interpolation-filters="sRGB">
<feFlood flood-opacity="0" result="BackgroundImageFix"/>
<feColorMatrix in="SourceAlpha" type="matrix" values="0 0 0 0 0 0 0 0 0 0 0 0 0 0 0 0 0 0 127 0" result="hardAlpha"/>
<feOffset dy="6.85945"/>
<feGaussianBlur stdDeviation="8.57431"/>
<feColorMatrix type="matrix" values="0 0 0 0 0.146118 0 0 0 0 0.172389 0 0 0 0 0.441667 0 0 0 0.1 0"/>
<feBlend mode="normal" in2="BackgroundImageFix" result="effect1_dropShadow_289_3327"/>
<feBlend mode="normal" in="SourceGraphic" in2="effect1_dropShadow_289_3327" result="shape"/>
</filter>
</defs>
</svg>
