<svg width="207" height="170" viewBox="0 0 207 170" fill="none" xmlns="http://www.w3.org/2000/svg">
<rect x="1.31241" y="1.52237" width="204.974" height="166.994" rx="21.1021" fill="white"/>
<rect x="1.31241" y="1.52237" width="204.974" height="166.994" rx="21.1021" stroke="#BBBBBB" stroke-width="1.201"/>
<path d="M38.4672 86.094H39.6253V98.7351H38.4672V86.094ZM32.9699 87.0707C34.8395 87.0707 36.179 88.7869 36.179 91.4658C36.179 94.1586 34.8395 95.8748 32.9699 95.8748C31.1142 95.8748 29.7748 94.1586 29.7748 91.4658C29.7748 88.7869 31.1142 87.0707 32.9699 87.0707ZM32.9699 88.1172C31.7421 88.1172 30.877 89.4287 30.877 91.4658C30.877 93.5168 31.7421 94.8563 32.9699 94.8563C34.2117 94.8563 35.0628 93.5168 35.0628 91.4658C35.0628 89.4287 34.2117 88.1172 32.9699 88.1172ZM45.4982 87.0707C47.3539 87.0707 48.6654 88.7869 48.6654 91.4658C48.6654 94.1586 47.3539 95.8748 45.4982 95.8748C43.6425 95.8748 42.331 94.1586 42.331 91.4658C42.331 88.7869 43.6425 87.0707 45.4982 87.0707ZM45.4982 88.1172C44.2704 88.1172 43.4332 89.4287 43.4332 91.4658C43.4332 93.5168 44.2704 94.8563 45.4982 94.8563C46.7121 94.8563 47.5632 93.5168 47.5632 91.4658C47.5632 89.4287 46.7121 88.1172 45.4982 88.1172ZM51.5257 89.2752H53.8418V90.2519H51.5257V89.2752ZM51.5257 93.0285H53.8418V94.0051H51.5257V93.0285ZM50.6746 86.108H51.8466V98.7211H50.6746V86.108ZM64.1656 86.108H65.3237V98.7211H64.1656V86.108ZM60.4682 87.4614H61.6123C61.6123 91.117 59.9659 94.3121 55.7522 96.3771L55.1383 95.4423C58.78 93.6842 60.4682 91.0053 60.4682 87.6567V87.4614ZM55.7104 87.4614H60.9705V88.4102H55.7104V87.4614ZM76.4421 86.4289H77.4328V87.0428C77.4328 89.331 75.019 91.0193 72.4657 91.4658L72.0052 90.5449C74.2376 90.2101 76.4421 88.7311 76.4421 87.0428V86.4289ZM76.6235 86.4289H77.6142V87.0428C77.6142 88.6892 79.8466 90.1961 82.0371 90.531L81.6046 91.4379C79.0513 91.0053 76.6235 89.2752 76.6235 87.0428V86.4289ZM71.3216 92.5262H82.7487V93.4749H71.3216V92.5262ZM76.5398 93.1122H77.6979V96.0143H76.5398V93.1122ZM72.7726 97.4933H81.479V98.4421H72.7726V97.4933ZM72.7726 94.8004H73.9167V97.8002H72.7726V94.8004ZM90.4634 90.3775H93.9794V91.3263H90.4634V90.3775ZM87.4217 87.1963H88.3705V89.4427C88.3705 92.275 86.8776 94.9818 84.8824 96.0562L84.1429 95.1353C85.9986 94.2144 87.4217 91.7867 87.4217 89.4427V87.1963ZM87.645 87.1963H88.5798V89.4427C88.5798 91.7448 90.0029 94.0331 91.8307 94.8981L91.1471 95.8329C89.11 94.8004 87.645 92.2053 87.645 89.4427V87.1963ZM93.4074 86.094H94.5515V98.7351H93.4074V86.094ZM100.968 87.294H102.07V90.3775H104.707V87.294H105.782V95.5678H100.968V87.294ZM102.07 91.3123V94.6191H104.707V91.3123H102.07ZM110.121 86.108H111.237V98.7211H110.121V86.108ZM108.098 91.103H110.525V92.0518H108.098V91.103ZM107.33 86.3731H108.433V98.0932H107.33V86.3731ZM119.259 87.6149H122.844V88.5497H119.259V87.6149ZM119.259 90.224H122.844V91.1449H119.259V90.224ZM116.789 86.5266C118.673 86.5266 120.04 87.7125 120.04 89.4148C120.04 91.0891 118.673 92.275 116.789 92.275C114.905 92.275 113.538 91.0891 113.538 89.4148C113.538 87.7125 114.905 86.5266 116.789 86.5266ZM116.789 87.4893C115.547 87.4893 114.654 88.2846 114.654 89.4148C114.654 90.531 115.547 91.3263 116.789 91.3263C118.031 91.3263 118.938 90.531 118.938 89.4148C118.938 88.2846 118.031 87.4893 116.789 87.4893ZM122.565 86.108H123.723V92.568H122.565V86.108ZM115.603 93.2099H123.723V96.2515H116.761V98.1491H115.631V95.3865H122.579V94.1307H115.603V93.2099ZM115.631 97.6328H124.184V98.5537H115.631V97.6328ZM134.731 86.108H135.889V98.7211H134.731V86.108ZM135.61 91.2844H137.954V92.2611H135.61V91.2844ZM126.122 88.1172H133.559V89.0659H126.122V88.1172ZM129.889 90.1124C131.675 90.1124 132.959 91.3123 132.959 93.0145C132.959 94.7167 131.675 95.9166 129.889 95.9166C128.117 95.9166 126.82 94.7167 126.82 93.0145C126.82 91.3123 128.117 90.1124 129.889 90.1124ZM129.889 91.0751C128.745 91.0751 127.922 91.8704 127.922 93.0145C127.922 94.1447 128.745 94.9539 129.889 94.9539C131.033 94.9539 131.857 94.1447 131.857 93.0145C131.857 91.8704 131.033 91.0751 129.889 91.0751ZM129.289 86.2615H130.447V88.5497H129.289V86.2615ZM148.208 86.108H149.366V98.7211H148.208V86.108ZM144.511 87.4614H145.655C145.655 91.117 144.008 94.3121 139.795 96.3771L139.181 95.4423C142.822 93.6842 144.511 91.0053 144.511 87.6567V87.4614ZM139.753 87.4614H145.013V88.4102H139.753V87.4614Z" fill="#050B20"/>
<path d="M35.7619 116.721H36.6305V126.202H35.7619V116.721ZM31.6389 117.453C33.0412 117.453 34.0457 118.741 34.0457 120.75C34.0457 122.769 33.0412 124.056 31.6389 124.056C30.2472 124.056 29.2426 122.769 29.2426 120.75C29.2426 118.741 30.2472 117.453 31.6389 117.453ZM31.6389 118.238C30.7181 118.238 30.0693 119.222 30.0693 120.75C30.0693 122.288 30.7181 123.293 31.6389 123.293C32.5703 123.293 33.2086 122.288 33.2086 120.75C33.2086 119.222 32.5703 118.238 31.6389 118.238ZM41.0352 117.453C42.4269 117.453 43.4106 118.741 43.4106 120.75C43.4106 122.769 42.4269 124.056 41.0352 124.056C39.6434 124.056 38.6597 122.769 38.6597 120.75C38.6597 118.741 39.6434 117.453 41.0352 117.453ZM41.0352 118.238C40.1143 118.238 39.4864 119.222 39.4864 120.75C39.4864 122.288 40.1143 123.293 41.0352 123.293C41.9456 123.293 42.5839 122.288 42.5839 120.75C42.5839 119.222 41.9456 118.238 41.0352 118.238ZM45.5558 119.107H47.2929V119.839H45.5558V119.107ZM45.5558 121.922H47.2929V122.654H45.5558V121.922ZM44.9175 116.731H45.7965V126.191H44.9175V116.731ZM55.0357 116.731H55.9043V126.191H55.0357V116.731ZM52.2627 117.746H53.1207C53.1207 120.488 51.8859 122.884 48.7257 124.433L48.2653 123.732C50.9965 122.414 52.2627 120.404 52.2627 117.893V117.746ZM48.6943 117.746H52.6394V118.458H48.6943V117.746ZM60.8427 117.412C62.3181 117.412 63.3751 118.322 63.3751 119.64C63.3751 120.969 62.3181 121.88 60.8427 121.88C59.3672 121.88 58.2998 120.969 58.2998 119.64C58.2998 118.322 59.3672 117.412 60.8427 117.412ZM60.8427 118.165C59.859 118.165 59.1474 118.761 59.1474 119.64C59.1474 120.52 59.859 121.126 60.8427 121.126C61.8159 121.126 62.5274 120.52 62.5274 119.64C62.5274 118.761 61.8159 118.165 60.8427 118.165ZM64.6099 116.721H65.4784V126.202H64.6099V116.721ZM57.944 124.13L57.8184 123.408C59.5451 123.408 61.931 123.397 63.9925 123.073L64.0657 123.711C61.9414 124.119 59.6288 124.13 57.944 124.13ZM74.0024 116.972H74.7454V117.433C74.7454 119.149 72.935 120.415 71.0201 120.75L70.6747 120.059C72.349 119.808 74.0024 118.699 74.0024 117.433V116.972ZM74.1384 116.972H74.8814V117.433C74.8814 118.667 76.5557 119.797 78.1986 120.049L77.8742 120.729C75.9593 120.404 74.1384 119.107 74.1384 117.433V116.972ZM70.162 121.545H78.7323V122.257H70.162V121.545ZM74.0757 121.985H74.9442V124.161H74.0757V121.985ZM71.2503 125.27H77.7801V125.982H71.2503V125.27ZM71.2503 123.251H72.1084V125.501H71.2503V123.251ZM84.5183 119.934H87.1554V120.645H84.5183V119.934ZM82.2371 117.548H82.9487V119.232C82.9487 121.357 81.829 123.387 80.3326 124.193L79.7779 123.502C81.1697 122.811 82.2371 120.99 82.2371 119.232V117.548ZM82.4045 117.548H83.1056V119.232C83.1056 120.959 84.173 122.675 85.5438 123.324L85.0311 124.025C83.5033 123.251 82.4045 121.304 82.4045 119.232V117.548ZM86.7263 116.721H87.5844V126.202H86.7263V116.721ZM89.4149 121.126H97.9957V121.786H89.4149V121.126ZM90.4299 122.55H96.9179V124.569H91.3194V125.678H90.4613V123.973H96.0702V123.167H90.4299V122.55ZM90.4613 125.448H97.2213V126.076H90.4613V125.448ZM90.5032 117.003H96.8865V118.971H91.3822V119.996H90.5241V118.385H96.0388V117.621H90.5032V117.003ZM90.5241 119.787H97.0644V120.415H90.5241V119.787ZM102.156 117.621H102.983V119.934H104.96V117.621H105.766V123.826H102.156V117.621ZM102.983 120.635V123.115H104.96V120.635H102.983ZM109.021 116.731H109.858V126.191H109.021V116.731ZM107.503 120.478H109.324V121.189H107.503V120.478ZM106.928 116.93H107.754V125.72H106.928V116.93ZM115.874 117.862H118.563V118.563H115.874V117.862ZM115.874 119.818H118.563V120.509H115.874V119.818ZM114.022 117.045C115.435 117.045 116.46 117.935 116.46 119.211C116.46 120.467 115.435 121.357 114.022 121.357C112.609 121.357 111.584 120.467 111.584 119.211C111.584 117.935 112.609 117.045 114.022 117.045ZM114.022 117.767C113.091 117.767 112.421 118.364 112.421 119.211C112.421 120.049 113.091 120.645 114.022 120.645C114.953 120.645 115.633 120.049 115.633 119.211C115.633 118.364 114.953 117.767 114.022 117.767ZM118.354 116.731H119.223V121.576H118.354V116.731ZM113.132 122.058H119.223V124.339H114.001V125.762H113.153V123.69H118.365V122.748H113.132V122.058ZM113.153 125.375H119.568V126.066H113.153V125.375ZM127.541 116.731H128.41V122.225H127.541V116.731ZM128.033 119.138H129.812V119.871H128.033V119.138ZM122.466 122.644H123.313V123.648H127.552V122.644H128.41V126.066H122.466V122.644ZM123.313 124.318V125.365H127.552V124.318H123.313ZM121.095 117.694H126.683V118.406H121.095V117.694ZM123.889 118.835C125.239 118.835 126.149 119.494 126.149 120.499C126.149 121.503 125.239 122.162 123.889 122.162C122.529 122.162 121.618 121.503 121.618 120.499C121.618 119.494 122.529 118.835 123.889 118.835ZM123.889 119.494C123.02 119.494 122.445 119.892 122.445 120.499C122.445 121.106 123.02 121.503 123.889 121.503C124.737 121.503 125.323 121.106 125.323 120.499C125.323 119.892 124.737 119.494 123.889 119.494ZM123.449 116.637H124.318V118.081H123.449V116.637ZM137.576 116.731H138.444V126.191H137.576V116.731ZM131.297 117.652H132.155V123.512H131.297V117.652ZM131.297 123H132.071C133.505 123 135.001 122.895 136.602 122.56L136.707 123.303C135.064 123.638 133.568 123.753 132.071 123.753H131.297V123ZM146.721 116.721H147.6V126.202H146.721V116.721ZM147.39 120.457H149.148V121.189H147.39V120.457ZM140.725 123.115H141.468C143.215 123.115 144.439 123.052 145.852 122.79L145.946 123.523C144.492 123.795 143.247 123.847 141.468 123.847H140.725V123.115ZM140.725 117.642H145.12V118.353H141.583V123.439H140.725V117.642ZM150.456 125.427C150.281 125.427 150.135 125.372 150.016 125.26C149.905 125.141 149.849 124.998 149.849 124.831C149.849 124.663 149.905 124.524 150.016 124.412C150.135 124.294 150.281 124.234 150.456 124.234C150.623 124.234 150.763 124.294 150.874 124.412C150.993 124.524 151.052 124.663 151.052 124.831C151.052 124.998 150.993 125.141 150.874 125.26C150.763 125.372 150.623 125.427 150.456 125.427Z" fill="#050B20"/>
<path fill-rule="evenodd" clip-rule="evenodd" d="M34.3506 41.3988L35.691 41.3988C37.2309 41.3988 38.3286 41.3979 39.1801 41.3112C40.0189 41.2259 40.5341 41.0638 40.9359 40.7953C41.3269 40.534 41.6626 40.1983 41.9239 39.8073C42.1923 39.4055 42.3545 38.8903 42.4398 38.0515C42.5264 37.2 42.5274 36.1023 42.5274 34.5625L44.0465 34.5625L44.0465 34.6048C44.0466 36.093 44.0466 37.2679 43.9512 38.2052C43.8537 39.1642 43.6501 39.9583 43.187 40.6513C42.8149 41.2082 42.3368 41.6863 41.7799 42.0584C41.0869 42.5215 40.2927 42.7251 39.3338 42.8226C38.3965 42.918 37.2215 42.918 35.7334 42.918L34.3506 42.918L34.3506 41.3988Z" fill="#222628"/>
<path fill-rule="evenodd" clip-rule="evenodd" d="M44.7335 33.8047C44.7698 33.8047 44.8066 33.8047 44.8439 33.8047L45.5726 33.8047C47.1618 33.8047 48.4164 33.8047 49.4138 33.9128C50.4348 34.0234 51.2759 34.2545 51.9975 34.7787C52.4305 35.0933 52.8112 35.4741 53.1258 35.9071C53.65 36.6286 53.8812 37.4697 53.9918 38.4908C54.0999 39.4881 54.0998 40.7427 54.0998 42.3319V48.4993C54.0998 50.0885 54.0999 51.3431 53.9918 52.3405C53.8812 53.3615 53.65 54.2026 53.1258 54.9242C52.8112 55.3571 52.4305 55.7379 51.9975 56.0525C51.2759 56.5767 50.4348 56.8078 49.4138 56.9185C48.4164 57.0265 47.1618 57.0265 45.5726 57.0265H42.1181C40.5289 57.0265 39.2743 57.0265 38.2769 56.9185C37.2559 56.8078 36.4148 56.5767 35.6932 56.0525C35.2602 55.7379 34.8795 55.3571 34.5649 54.9242C34.0407 54.2026 33.8095 53.3615 33.6989 52.3405C33.5908 51.3431 33.5909 50.0885 33.5909 48.4993L33.5909 44.5601C33.5909 44.5101 33.5909 44.4608 33.5908 44.412C33.5905 42.9352 33.5903 41.9964 33.9088 41.1371C34.0137 40.8541 34.1436 40.5808 34.2968 40.3207C34.762 39.5311 35.4901 38.9385 36.6354 38.0063C36.6732 37.9755 36.7115 37.9443 36.7502 37.9128L39.4307 35.73C39.4596 35.7065 39.4881 35.6832 39.5163 35.6603C40.3813 34.9556 40.9312 34.5077 41.5756 34.2275C41.7888 34.1348 42.0081 34.0569 42.2319 33.9941C42.9085 33.8044 43.6178 33.8045 44.7335 33.8047ZM44.8439 35.3239C43.581 35.3239 43.0931 35.3304 42.6421 35.4569C42.4849 35.5009 42.3309 35.5557 42.1813 35.6208C41.7517 35.8075 41.3693 36.1105 40.39 36.908L37.7095 39.0908C36.4101 40.149 35.9156 40.566 35.6057 41.0919C35.4981 41.2745 35.4069 41.4664 35.3333 41.6651C35.1211 42.2374 35.11 42.8842 35.11 44.5601V48.454C35.11 50.0985 35.1111 51.2708 35.2092 52.1768C35.3059 53.0686 35.4892 53.6118 35.7939 54.0312C36.0148 54.3352 36.2822 54.6026 36.5862 54.8234C37.0056 55.1282 37.5488 55.3115 38.4405 55.4081C39.3465 55.5063 40.5189 55.5073 42.1634 55.5073H45.5273C47.1718 55.5073 48.3442 55.5063 49.2502 55.4081C50.1419 55.3115 50.6851 55.1282 51.1045 54.8234C51.4085 54.6026 51.6759 54.3352 51.8968 54.0312C52.2015 53.6118 52.3848 53.0686 52.4815 52.1768C52.5796 51.2708 52.5807 50.0985 52.5807 48.454V42.3772C52.5807 40.7327 52.5796 39.5604 52.4815 38.6544C52.3848 37.7626 52.2015 37.2194 51.8968 36.8C51.6759 36.496 51.4085 36.2287 51.1045 36.0078C50.6851 35.7031 50.1419 35.5197 49.2502 35.4231C48.3442 35.3249 47.1718 35.3239 45.5273 35.3239H44.8439Z" fill="#222628"/>
<path fill-rule="evenodd" clip-rule="evenodd" d="M49.5425 51.6037C49.5425 52.0232 49.2024 52.3633 48.7829 52.3633L39.4508 52.3633C39.0313 52.3633 38.6912 52.0232 38.6912 51.6037C38.6912 51.1842 39.0313 50.8441 39.4508 50.8441L48.7829 50.8441C49.2024 50.8441 49.5425 51.1842 49.5425 51.6037Z" fill="#8E44F4"/>
<path fill-rule="evenodd" clip-rule="evenodd" d="M46.2871 47.2638C46.2871 47.6834 45.947 48.0234 45.5275 48.0234L39.4508 48.0234C39.0313 48.0234 38.6912 47.6834 38.6912 47.2638C38.6912 46.8443 39.0313 46.5043 39.4508 46.5043L45.5275 46.5043C45.947 46.5043 46.2871 46.8443 46.2871 47.2638Z" fill="#8E44F4"/>
<g filter="url(#filter0_d_289_3345)">
<circle cx="44.1168" cy="46.4996" r="16.277" fill="#CC29E7" fill-opacity="0.2"/>
</g>
<defs>
<filter id="filter0_d_289_3345" x="10.6912" y="19.9335" width="66.851" height="66.8519" filterUnits="userSpaceOnUse" color-interpolation-filters="sRGB">
<feFlood flood-opacity="0" result="BackgroundImageFix"/>
<feColorMatrix in="SourceAlpha" type="matrix" values="0 0 0 0 0 0 0 0 0 0 0 0 0 0 0 0 0 0 127 0" result="hardAlpha"/>
<feOffset dy="6.85945"/>
<feGaussianBlur stdDeviation="8.57431"/>
<feColorMatrix type="matrix" values="0 0 0 0 0.146118 0 0 0 0 0.172389 0 0 0 0 0.441667 0 0 0 0.1 0"/>
<feBlend mode="normal" in2="BackgroundImageFix" result="effect1_dropShadow_289_3345"/>
<feBlend mode="normal" in="SourceGraphic" in2="effect1_dropShadow_289_3345" result="shape"/>
</filter>
</defs>
</svg>
