<svg width="207" height="169" viewBox="0 0 207 169" fill="none" xmlns="http://www.w3.org/2000/svg">
<rect x="0.982822" y="0.604404" width="204.974" height="166.994" rx="21.1021" fill="white"/>
<rect x="0.982822" y="0.604404" width="204.974" height="166.994" rx="21.1021" stroke="#BBBBBB" stroke-width="1.201"/>
<path d="M38.1376 85.18H39.2957V97.821H38.1376V85.18ZM32.6403 86.1567C34.51 86.1567 35.8494 87.8728 35.8494 90.5517C35.8494 93.2446 34.51 94.9607 32.6403 94.9607C30.7846 94.9607 29.4452 93.2446 29.4452 90.5517C29.4452 87.8728 30.7846 86.1567 32.6403 86.1567ZM32.6403 87.2031C31.4125 87.2031 30.5474 88.5146 30.5474 90.5517C30.5474 92.6027 31.4125 93.9422 32.6403 93.9422C33.8821 93.9422 34.7332 92.6027 34.7332 90.5517C34.7332 88.5146 33.8821 87.2031 32.6403 87.2031ZM42.5316 86.4218H48.3358V94.6398H42.5316V86.4218ZM47.2057 87.3566H43.6617V93.705H47.2057V87.3566ZM50.9729 85.18H52.1309V97.821H50.9729V85.18ZM57.9899 86.9938H58.9247V89.0448C58.9247 91.7098 57.3202 94.3887 55.311 95.3793L54.6413 94.4584C56.4691 93.5934 57.9899 91.2214 57.9899 89.0448V86.9938ZM58.2132 86.9938H59.148V89.0448C59.148 91.1796 60.6688 93.3562 62.5245 94.1515L61.8687 95.0723C59.8317 94.1236 58.2132 91.6679 58.2132 89.0448V86.9938ZM55.0599 86.4776H62.1059V87.4543H55.0599V86.4776ZM63.8081 85.1939H64.9662V97.807H63.8081V85.1939ZM76.1126 85.5148H77.1032V86.1288C77.1032 88.417 74.6894 90.1052 72.1361 90.5517L71.6756 89.6309C73.9081 89.296 76.1126 87.817 76.1126 86.1288V85.5148ZM76.2939 85.5148H77.2846V86.1288C77.2846 87.7752 79.517 89.282 81.7075 89.6169L81.275 90.5238C78.7217 90.0913 76.2939 88.3612 76.2939 86.1288V85.5148ZM70.992 91.6121H82.4191V92.5609H70.992V91.6121ZM76.2102 92.1981H77.3683V95.1003H76.2102V92.1981ZM72.443 96.5792H81.1494V97.528H72.443V96.5792ZM72.443 93.8864H73.5871V96.8862H72.443V93.8864ZM90.1338 89.4634H93.6498V90.4122H90.1338V89.4634ZM87.0921 86.2822H88.0409V88.5286C88.0409 91.361 86.548 94.0678 84.5528 95.1421L83.8133 94.2212C85.669 93.3004 87.0921 90.8726 87.0921 88.5286V86.2822ZM87.3154 86.2822H88.2502V88.5286C88.2502 90.8308 89.6734 93.119 91.5011 93.984L90.8175 94.9189C88.7804 93.8864 87.3154 91.2912 87.3154 88.5286V86.2822ZM93.0778 85.18H94.2219V97.821H93.0778V85.18ZM100.638 86.3799H101.741V89.4634H104.378V86.3799H105.452V94.6538H100.638V86.3799ZM101.741 90.3982V93.705H104.378V90.3982H101.741ZM109.791 85.1939H110.907V97.807H109.791V85.1939ZM107.768 90.189H110.196V91.1377H107.768V90.189ZM107.001 85.459H108.103V97.1792H107.001V85.459ZM118.929 86.7008H122.515V87.6356H118.929V86.7008ZM118.929 89.3099H122.515V90.2308H118.929V89.3099ZM116.459 85.6125C118.343 85.6125 119.71 86.7985 119.71 88.5007C119.71 90.175 118.343 91.361 116.459 91.361C114.576 91.361 113.208 90.175 113.208 88.5007C113.208 86.7985 114.576 85.6125 116.459 85.6125ZM116.459 86.5752C115.218 86.5752 114.325 87.3705 114.325 88.5007C114.325 89.6169 115.218 90.4122 116.459 90.4122C117.701 90.4122 118.608 89.6169 118.608 88.5007C118.608 87.3705 117.701 86.5752 116.459 86.5752ZM122.236 85.1939H123.394V91.654H122.236V85.1939ZM115.273 92.2958H123.394V95.3374H116.432V97.235H115.301V94.4724H122.25V93.2167H115.273V92.2958ZM115.301 96.7188H123.854V97.6396H115.301V96.7188ZM134.401 85.1939H135.559V97.807H134.401V85.1939ZM135.28 90.3703H137.624V91.347H135.28V90.3703ZM125.793 87.2031H133.229V88.1519H125.793V87.2031ZM129.56 89.1983C131.346 89.1983 132.629 90.3982 132.629 92.1005C132.629 93.8027 131.346 95.0026 129.56 95.0026C127.788 95.0026 126.49 93.8027 126.49 92.1005C126.49 90.3982 127.788 89.1983 129.56 89.1983ZM129.56 90.161C128.416 90.161 127.592 90.9563 127.592 92.1005C127.592 93.2306 128.416 94.0399 129.56 94.0399C130.704 94.0399 131.527 93.2306 131.527 92.1005C131.527 90.9563 130.704 90.161 129.56 90.161ZM128.96 85.3474H130.118V87.6356H128.96V85.3474ZM147.878 85.1939H149.036V97.807H147.878V85.1939ZM144.181 86.5473H145.325C145.325 90.2029 143.679 93.398 139.465 95.463L138.851 94.5282C142.493 92.7702 144.181 90.0913 144.181 86.7427V86.5473ZM139.423 86.5473H144.683V87.4961H139.423V86.5473Z" fill="#050B20"/>
<path d="M36.1618 117.975H37.0304V127.456H36.1618V117.975ZM32.0388 118.707C33.4411 118.707 34.4456 119.994 34.4456 122.004C34.4456 124.023 33.4411 125.31 32.0388 125.31C30.6471 125.31 29.6425 124.023 29.6425 122.004C29.6425 119.994 30.6471 118.707 32.0388 118.707ZM32.0388 119.492C31.118 119.492 30.4692 120.476 30.4692 122.004C30.4692 123.542 31.118 124.546 32.0388 124.546C32.9702 124.546 33.6085 123.542 33.6085 122.004C33.6085 120.476 32.9702 119.492 32.0388 119.492ZM39.4573 118.906H43.8105V125.07H39.4573V118.906ZM42.9629 119.607H40.3049V124.369H42.9629V119.607ZM45.7883 117.975H46.6568V127.456H45.7883V117.975ZM51.051 119.335H51.7522V120.873C51.7522 122.872 50.5487 124.881 49.0419 125.624L48.5396 124.934C49.9104 124.285 51.051 122.506 51.051 120.873V119.335ZM51.2185 119.335H51.9196V120.873C51.9196 122.475 53.0602 124.107 54.452 124.703L53.9601 125.394C52.4323 124.683 51.2185 122.841 51.2185 120.873V119.335ZM48.8535 118.948H54.138V119.681H48.8535V118.948ZM55.4147 117.985H56.2833V127.445H55.4147V117.985ZM58.166 122.38H66.7469V123.04H58.166V122.38ZM59.1811 123.804H65.669V125.823H60.0706V126.932H59.2125V125.227H64.8214V124.421H59.1811V123.804ZM59.2125 126.702H65.9725V127.33H59.2125V126.702ZM59.2543 118.257H65.6376V120.225H60.1333V121.25H59.2753V119.639H64.79V118.875H59.2543V118.257ZM59.2753 121.041H65.8155V121.669H59.2753V121.041ZM74.4023 118.226H75.1453V118.686C75.1453 120.403 73.3349 121.669 71.42 122.004L71.0746 121.313C72.7489 121.062 74.4023 119.953 74.4023 118.686V118.226ZM74.5384 118.226H75.2813V118.686C75.2813 119.921 76.9556 121.051 78.5985 121.303L78.2741 121.983C76.3592 121.658 74.5384 120.361 74.5384 118.686V118.226ZM70.5619 122.799H79.1322V123.511H70.5619V122.799ZM74.4756 123.238H75.3441V125.415H74.4756V123.238ZM71.6502 126.524H78.18V127.236H71.6502V126.524ZM71.6502 124.505H72.5083V126.754H71.6502V124.505ZM84.9182 121.187H87.5553V121.899H84.9182V121.187ZM82.637 118.802H83.3486V120.486C83.3486 122.611 82.2289 124.641 80.7325 125.446L80.1779 124.756C81.5696 124.065 82.637 122.244 82.637 120.486V118.802ZM82.8044 118.802H83.5055V120.486C83.5055 122.213 84.5729 123.929 85.9437 124.578L85.431 125.279C83.9032 124.505 82.8044 122.558 82.8044 120.486V118.802ZM87.1262 117.975H87.9843V127.456H87.1262V117.975ZM97.0143 117.985H97.8514V127.445H97.0143V117.985ZM95.4132 121.773H97.234V122.495H95.4132V121.773ZM94.8691 118.195H95.6853V126.964H94.8691V118.195ZM90.1601 124.39H90.7775C92.1588 124.39 93.1006 124.337 94.1994 124.107L94.2831 124.829C93.1529 125.07 92.2007 125.112 90.7775 125.112H90.1601V124.39ZM90.1601 119.136H93.6761V119.848H91.0182V124.714H90.1601V119.136ZM99.4517 125.562H108.022V126.284H99.4517V125.562ZM103.282 123.531H104.15V125.865H103.282V123.531ZM100.488 118.686H106.965V121.554H101.377V123.448H100.519V120.853H106.107V119.388H100.488V118.686ZM100.519 123.081H107.185V123.793H100.519V123.081ZM112.182 118.875H113.009V121.187H114.987V118.875H115.793V125.08H112.182V118.875ZM113.009 121.889V124.369H114.987V121.889H113.009ZM119.047 117.985H119.884V127.445H119.047V117.985ZM117.53 121.732H119.351V122.443H117.53V121.732ZM116.954 118.184H117.781V126.974H116.954V118.184ZM125.9 119.115H128.59V119.817H125.9V119.115ZM125.9 121.072H128.59V121.763H125.9V121.072ZM124.048 118.299C125.461 118.299 126.486 119.189 126.486 120.465C126.486 121.721 125.461 122.611 124.048 122.611C122.636 122.611 121.61 121.721 121.61 120.465C121.61 119.189 122.636 118.299 124.048 118.299ZM124.048 119.021C123.117 119.021 122.447 119.618 122.447 120.465C122.447 121.303 123.117 121.899 124.048 121.899C124.98 121.899 125.66 121.303 125.66 120.465C125.66 119.618 124.98 119.021 124.048 119.021ZM128.38 117.985H129.249V122.83H128.38V117.985ZM123.159 123.312H129.249V125.593H124.027V127.016H123.18V124.944H128.391V124.002H123.159V123.312ZM123.18 126.629H129.594V127.32H123.18V126.629ZM137.567 117.985H138.436V123.479H137.567V117.985ZM138.059 120.392H139.838V121.125H138.059V120.392ZM132.492 123.898H133.34V124.902H137.578V123.898H138.436V127.32H132.492V123.898ZM133.34 125.572V126.618H137.578V125.572H133.34ZM131.121 118.948H136.709V119.66H131.121V118.948ZM133.915 120.089C135.265 120.089 136.176 120.748 136.176 121.752C136.176 122.757 135.265 123.416 133.915 123.416C132.555 123.416 131.645 122.757 131.645 121.752C131.645 120.748 132.555 120.089 133.915 120.089ZM133.915 120.748C133.047 120.748 132.471 121.146 132.471 121.752C132.471 122.359 133.047 122.757 133.915 122.757C134.763 122.757 135.349 122.359 135.349 121.752C135.349 121.146 134.763 120.748 133.915 120.748ZM133.476 117.891H134.344V119.335H133.476V117.891ZM147.602 117.985H148.471V127.445H147.602V117.985ZM141.323 118.906H142.181V124.766H141.323V118.906ZM141.323 124.253H142.098C143.531 124.253 145.028 124.149 146.629 123.814L146.733 124.557C145.091 124.892 143.594 125.007 142.098 125.007H141.323V124.253ZM156.747 117.975H157.626V127.456H156.747V117.975ZM157.417 121.711H159.175V122.443H157.417V121.711ZM150.751 124.369H151.494C153.241 124.369 154.466 124.306 155.879 124.044L155.973 124.777C154.518 125.049 153.273 125.101 151.494 125.101H150.751V124.369ZM150.751 118.896H155.146V119.607H151.609V124.693H150.751V118.896ZM160.482 126.681C160.308 126.681 160.161 126.625 160.043 126.514C159.931 126.395 159.875 126.252 159.875 126.085C159.875 125.917 159.931 125.778 160.043 125.666C160.161 125.548 160.308 125.488 160.482 125.488C160.649 125.488 160.789 125.548 160.901 125.666C161.019 125.778 161.079 125.917 161.079 126.085C161.079 126.252 161.019 126.395 160.901 126.514C160.789 126.625 160.649 126.681 160.482 126.681Z" fill="#050B20"/>
<path fill-rule="evenodd" clip-rule="evenodd" d="M50.8293 48.8693C50.0592 48.1112 48.8888 47.9348 47.9296 48.4322L46.3072 49.2735C45.9347 49.4666 45.4763 49.3212 45.2832 48.9488C45.0901 48.5764 45.2354 48.1179 45.6078 47.9248L47.2303 47.0836C48.7734 46.2834 50.6562 46.5672 51.895 47.7866L55.1714 51.0118C55.4704 51.3061 55.4742 51.787 55.1799 52.086C54.8856 52.385 54.4046 52.3888 54.1057 52.0945L50.8293 48.8693Z" fill="#222628"/>
<path fill-rule="evenodd" clip-rule="evenodd" d="M43.2764 47.6862C42.1814 46.3916 40.3285 46.0425 38.8374 46.8498L34.9251 48.9681C34.5562 49.1678 34.0952 49.0307 33.8955 48.6618C33.6957 48.2929 33.8329 47.8319 34.2018 47.6322L38.1141 45.5139C40.2377 44.3641 42.8767 44.8613 44.4363 46.7051L50.8778 54.3204C51.1487 54.6407 51.1087 55.1199 50.7884 55.3909C50.4681 55.6618 49.9888 55.6218 49.7179 55.3015L43.2764 47.6862Z" fill="#8E44F4"/>
<path fill-rule="evenodd" clip-rule="evenodd" d="M48.714 39.2926C47.9349 39.2926 47.3034 39.9242 47.3034 40.7033C47.3034 41.4824 47.9349 42.114 48.714 42.114C49.4931 42.114 50.1247 41.4824 50.1247 40.7033C50.1247 39.9242 49.4931 39.2926 48.714 39.2926ZM45.7842 40.7033C45.7842 39.0852 47.0959 37.7734 48.714 37.7734C50.3321 37.7734 51.6439 39.0852 51.6439 40.7033C51.6439 42.3214 50.3321 43.6331 48.714 43.6331C47.0959 43.6331 45.7842 42.3214 45.7842 40.7033Z" fill="#8E44F4"/>
<path fill-rule="evenodd" clip-rule="evenodd" d="M44.8337 32.8906H44.9106C46.9064 32.8906 48.456 32.8906 49.6934 33.0028C50.9491 33.1166 51.9575 33.3507 52.8478 33.8647C53.9531 34.5028 54.8709 35.4206 55.509 36.5258C56.023 37.4161 56.2571 38.4246 56.3709 39.6803C56.483 40.9176 56.483 42.4673 56.483 44.4631V44.5399C56.483 46.5358 56.483 48.0854 56.3709 49.3228C56.2571 50.5785 56.023 51.5869 55.509 52.4772C54.8709 53.5825 53.9531 54.5003 52.8478 55.1384C51.9575 55.6524 50.9491 55.8865 49.6934 56.0003C48.456 56.1124 46.9064 56.1124 44.9105 56.1124H44.8337C42.8379 56.1124 41.2883 56.1124 40.0509 56.0003C38.7952 55.8865 37.7867 55.6524 36.8964 55.1384C35.7912 54.5003 34.8734 53.5825 34.2353 52.4772C33.7213 51.5869 33.4872 50.5785 33.3734 49.3228C33.2612 48.0854 33.2612 46.5358 33.2612 44.54V44.4631C33.2612 42.4672 33.2612 40.9176 33.3734 39.6803C33.4872 38.4246 33.7213 37.4161 34.2353 36.5258C34.8734 35.4206 35.7912 34.5028 36.8964 33.8647C37.7867 33.3507 38.7952 33.1166 40.0509 33.0028C41.2882 32.8906 42.8379 32.8906 44.8337 32.8906ZM40.188 34.5157C39.0377 34.62 38.2765 34.8221 37.656 35.1803C36.7817 35.6851 36.0557 36.4111 35.5509 37.2854C35.1927 37.9059 34.9906 38.6671 34.8863 39.8174C34.7811 40.9782 34.7804 42.4592 34.7804 44.5015C34.7804 46.5439 34.7811 48.0248 34.8863 49.1856C34.9906 50.336 35.1927 51.0971 35.5509 51.7176C36.0557 52.5919 36.7817 53.318 37.656 53.8227C38.2765 54.181 39.0377 54.383 40.188 54.4873C41.3488 54.5925 42.8298 54.5932 44.8721 54.5932C46.9145 54.5932 48.3954 54.5925 49.5562 54.4873C50.7066 54.383 51.4677 54.181 52.0883 53.8227C52.9625 53.318 53.6886 52.5919 54.1933 51.7176C54.5516 51.0971 54.7537 50.336 54.8579 49.1856C54.9631 48.0248 54.9638 46.5439 54.9638 44.5015C54.9638 42.4592 54.9631 40.9782 54.8579 39.8174C54.7537 38.6671 54.5516 37.9059 54.1933 37.2854C53.6886 36.4111 52.9625 35.6851 52.0883 35.1803C51.4677 34.8221 50.7066 34.62 49.5562 34.5157C48.3954 34.4105 46.9145 34.4098 44.8721 34.4098C42.8298 34.4098 41.3488 34.4105 40.188 34.5157Z" fill="#222628"/>
<g filter="url(#filter0_d_289_3331)">
<circle cx="44.8673" cy="44.5074" r="16.277" fill="#637BFF" fill-opacity="0.2"/>
</g>
<defs>
<filter id="filter0_d_289_3331" x="11.4417" y="15.369" width="66.851" height="66.8519" filterUnits="userSpaceOnUse" color-interpolation-filters="sRGB">
<feFlood flood-opacity="0" result="BackgroundImageFix"/>
<feColorMatrix in="SourceAlpha" type="matrix" values="0 0 0 0 0 0 0 0 0 0 0 0 0 0 0 0 0 0 127 0" result="hardAlpha"/>
<feOffset dy="4.28716"/>
<feGaussianBlur stdDeviation="8.57431"/>
<feColorMatrix type="matrix" values="0 0 0 0 0.212 0 0 0 0 0.238778 0 0 0 0 0.533333 0 0 0 0.06 0"/>
<feBlend mode="normal" in2="BackgroundImageFix" result="effect1_dropShadow_289_3331"/>
<feBlend mode="normal" in="SourceGraphic" in2="effect1_dropShadow_289_3331" result="shape"/>
</filter>
</defs>
</svg>
