<svg width="207" height="169" viewBox="0 0 207 169" fill="none" xmlns="http://www.w3.org/2000/svg">
<rect x="0.775303" y="0.604404" width="204.974" height="166.994" rx="21.1021" fill="white"/>
<rect x="0.775303" y="0.604404" width="204.974" height="166.994" rx="21.1021" stroke="#BBBBBB" stroke-width="1.201"/>
<path d="M34.1355 86.5055H35.2656C35.2656 90.1471 34.0378 93.4957 29.5172 95.7421L28.8893 94.8491C32.8798 92.8818 34.1355 90.0634 34.1355 86.631V86.5055ZM29.573 86.5055H34.8192V87.4403H29.573V86.5055ZM33.9541 89.6309V90.5238L29.1265 90.9982L28.9451 89.9657L33.9541 89.6309ZM37.3027 85.18H38.4747V97.807H37.3027V85.18ZM38.1538 90.3006H40.4839V91.2633H38.1538V90.3006ZM46.8452 89.9657H49.2171V90.9284H46.8452V89.9657ZM42.0734 93.8306H42.8827C44.8221 93.8306 45.9801 93.7887 47.3754 93.5097L47.487 94.4584C46.0499 94.7375 44.85 94.7793 42.8827 94.7793H42.0734V93.8306ZM42.0734 86.7148H46.7475V87.6496H43.1757V94.1515H42.0734V86.7148ZM42.8408 90.1192H46.1755V91.0401H42.8408V90.1192ZM51.1984 85.1939H52.3146V97.807H51.1984V85.1939ZM48.659 85.4869H49.7613V97.1652H48.659V85.4869ZM55.6482 86.4497H63.7685V87.4124H55.6482V86.4497ZM54.4482 95.0863H65.8475V96.049H54.4482V95.0863ZM58.8712 90.5796H60.0293V95.5607H58.8712V90.5796ZM63.336 86.4497H64.4801V87.7054C64.4801 89.2681 64.4801 90.9982 64.0197 93.5515L62.8616 93.398C63.336 90.9842 63.336 89.2123 63.336 87.7054V86.4497ZM76.4643 85.18H77.6223V97.821H76.4643V85.18ZM68.009 93.8166H69.0555C71.1623 93.8166 73.0459 93.7329 75.2783 93.3701L75.4039 94.3189C73.1157 94.6956 71.2181 94.7793 69.0555 94.7793H68.009V93.8166ZM67.9811 86.366H73.8133V90.8726H69.1671V94.1794H68.009V89.9239H72.6413V87.3147H67.9811V86.366ZM83.6202 91.8493H95.0473V92.7981H83.6202V91.8493ZM88.8385 92.3237H89.9965V95.2258H88.8385V92.3237ZM85.0713 96.5792H93.7777V97.528H85.0713V96.5792ZM85.0713 94.1096H86.2154V96.942H85.0713V94.1096ZM85.141 85.5846H86.2851V87.1892H92.3824V85.5846H93.5405V90.6354H85.141V85.5846ZM86.2851 88.0961V89.7006H92.3824V88.0961H86.2851ZM96.4555 92.7004H107.897V93.6492H96.4555V92.7004ZM99.4134 93.2167H100.585V97.807H99.4134V93.2167ZM103.753 93.2167H104.911V97.807H103.753V93.2167ZM97.8228 85.6823H106.501V88.9332H99.0227V91.0959H97.8507V88.0403H105.343V86.6171H97.8228V85.6823ZM97.8507 90.482H106.794V91.4168H97.8507V90.482ZM117.844 85.1939H119.002V97.807H117.844V85.1939ZM118.723 90.3703H121.067V91.347H118.723V90.3703ZM109.235 87.2031H116.672V88.1519H109.235V87.2031ZM113.002 89.1983C114.788 89.1983 116.072 90.3982 116.072 92.1005C116.072 93.8027 114.788 95.0026 113.002 95.0026C111.23 95.0026 109.933 93.8027 109.933 92.1005C109.933 90.3982 111.23 89.1983 113.002 89.1983ZM113.002 90.161C111.858 90.161 111.035 90.9563 111.035 92.1005C111.035 93.2306 111.858 94.0399 113.002 94.0399C114.146 94.0399 114.969 93.2306 114.969 92.1005C114.969 90.9563 114.146 90.161 113.002 90.161ZM112.402 85.3474H113.56V87.6356H112.402V85.3474ZM131.321 85.1939H132.479V97.807H131.321V85.1939ZM127.623 86.5473H128.767C128.767 90.2029 127.121 93.398 122.907 95.463L122.293 94.5282C125.935 92.7702 127.623 90.0913 127.623 86.7427V86.5473ZM122.865 86.5473H128.126V87.4961H122.865V86.5473Z" fill="#050B20"/>
<path d="M35.0471 117.975H35.9156V127.456H35.0471V117.975ZM30.9241 118.707C32.3263 118.707 33.3309 119.994 33.3309 122.004C33.3309 124.023 32.3263 125.31 30.9241 125.31C29.5323 125.31 28.5277 124.023 28.5277 122.004C28.5277 119.994 29.5323 118.707 30.9241 118.707ZM30.9241 119.492C30.0032 119.492 29.3544 120.476 29.3544 122.004C29.3544 123.542 30.0032 124.546 30.9241 124.546C31.8554 124.546 32.4937 123.542 32.4937 122.004C32.4937 120.476 31.8554 119.492 30.9241 119.492ZM38.3425 118.906H42.6957V125.07H38.3425V118.906ZM41.8481 119.607H39.1902V124.369H41.8481V119.607ZM44.6735 117.975H45.5421V127.456H44.6735V117.975ZM49.9363 119.335H50.6374V120.873C50.6374 122.872 49.434 124.881 47.9271 125.624L47.4248 124.934C48.7957 124.285 49.9363 122.506 49.9363 120.873V119.335ZM50.1037 119.335H50.8048V120.873C50.8048 122.475 51.9455 124.107 53.3372 124.703L52.8454 125.394C51.3176 124.683 50.1037 122.841 50.1037 120.873V119.335ZM47.7388 118.948H53.0233V119.681H47.7388V118.948ZM54.3 117.985H55.1685V127.445H54.3V117.985ZM63.8495 118.969H64.6971C64.6971 121.7 63.7762 124.212 60.3858 125.896L59.9149 125.227C62.9077 123.751 63.8495 121.637 63.8495 119.063V118.969ZM60.4276 118.969H64.3622V119.67H60.4276V118.969ZM63.7134 121.313V121.983L60.0928 122.338L59.9567 121.564L63.7134 121.313ZM66.2249 117.975H67.1039V127.445H66.2249V117.975ZM66.8632 121.815H68.6108V122.537H66.8632V121.815ZM73.3817 121.564H75.1607V122.286H73.3817V121.564ZM69.8029 124.463H70.4099C71.8644 124.463 72.733 124.431 73.7794 124.222L73.8631 124.934C72.7853 125.143 71.8853 125.174 70.4099 125.174H69.8029V124.463ZM69.8029 119.126H73.3085V119.827H70.6296V124.703H69.8029V119.126ZM70.3785 121.679H72.8795V122.37H70.3785V121.679ZM76.6466 117.985H77.4838V127.445H76.6466V117.985ZM74.7421 118.205H75.5688V126.964H74.7421V118.205ZM79.984 118.927H86.0743V119.649H79.984V118.927ZM79.084 125.405H87.6335V126.127H79.084V125.405ZM82.4013 122.025H83.2698V125.76H82.4013V122.025ZM85.7499 118.927H86.608V119.869C86.608 121.041 86.608 122.338 86.2626 124.253L85.3941 124.138C85.7499 122.328 85.7499 120.999 85.7499 119.869V118.927ZM95.5961 117.975H96.4646V127.456H95.5961V117.975ZM89.2546 124.452H90.0395C91.6196 124.452 93.0323 124.39 94.7066 124.117L94.8008 124.829C93.0846 125.112 91.6615 125.174 90.0395 125.174H89.2546V124.452ZM89.2337 118.864H93.6078V122.244H90.1232V124.724H89.2546V121.533H92.7288V119.576H89.2337V118.864ZM101.096 122.977H109.666V123.688H101.096V122.977ZM105.01 123.333H105.878V125.509H105.01V123.333ZM102.184 126.524H108.714V127.236H102.184V126.524ZM102.184 124.672H103.042V126.796H102.184V124.672ZM102.236 118.278H103.095V119.482H107.668V118.278H108.536V122.066H102.236V118.278ZM103.095 120.162V121.365H107.668V120.162H103.095ZM110.722 123.615H119.303V124.327H110.722V123.615ZM112.941 124.002H113.82V127.445H112.941V124.002ZM116.195 124.002H117.064V127.445H116.195V124.002ZM111.748 118.352H118.257V120.79H112.648V122.412H111.769V120.12H117.388V119.053H111.748V118.352ZM111.769 121.951H118.476V122.652H111.769V121.951ZM123.15 118.979H128.738V119.691H123.15V118.979ZM125.944 120.172C127.283 120.172 128.204 120.842 128.204 121.889C128.204 122.925 127.283 123.584 125.944 123.584C124.583 123.584 123.673 122.925 123.673 121.889C123.673 120.842 124.583 120.172 125.944 120.172ZM125.944 120.853C125.075 120.853 124.499 121.25 124.499 121.889C124.499 122.506 125.075 122.914 125.944 122.914C126.791 122.914 127.377 122.506 127.377 121.889C127.377 121.25 126.791 120.853 125.944 120.853ZM129.596 117.985H130.464V123.898H129.596V117.985ZM130.223 120.591H131.866V121.313H130.223V120.591ZM124.322 124.41H130.464V127.445H129.596V125.122H124.322V124.41ZM125.504 117.933H126.373V119.377H125.504V117.933ZM133.833 123.657H134.691V124.756H139.316V123.657H140.185V127.32H133.833V123.657ZM134.691 125.425V126.618H139.316V125.425H134.691ZM132.745 122.297H141.294V122.998H132.745V122.297ZM136.585 118.09H137.328V118.509C137.328 120.151 135.497 121.334 133.55 121.627L133.236 120.947C134.942 120.717 136.585 119.701 136.585 118.509V118.09ZM136.721 118.09H137.464V118.509C137.464 119.681 139.128 120.717 140.813 120.947L140.488 121.627C138.563 121.334 136.721 120.131 136.721 118.509V118.09Z" fill="#050B20"/>
<path fill-rule="evenodd" clip-rule="evenodd" d="M51.1212 33.9727C51.139 33.9727 51.157 33.9727 51.1753 33.9727C51.1936 33.9727 51.2116 33.9727 51.2294 33.9727C51.6815 33.9726 51.9732 33.9726 52.2282 34.0013C54.3411 34.2394 56.0087 35.907 56.2468 38.0199C56.2755 38.2749 56.2755 38.5666 56.2754 39.0187C56.2754 39.0365 56.2754 39.0545 56.2754 39.0728C56.2754 39.0911 56.2754 39.1091 56.2754 39.1269C56.2755 39.579 56.2755 39.8706 56.2468 40.1256C56.0087 42.2386 54.3411 43.9062 52.2282 44.1442C51.9732 44.173 51.6815 44.1729 51.2294 44.1729C51.2116 44.1729 51.1936 44.1729 51.1753 44.1729C51.157 44.1729 51.139 44.1729 51.1212 44.1729C50.6691 44.1729 50.3775 44.173 50.1225 44.1442C48.0095 43.9062 46.3419 42.2386 46.1039 40.1256C46.0751 39.8706 46.0752 39.579 46.0752 39.1269C46.0752 39.1091 46.0752 39.0911 46.0752 39.0728C46.0752 39.0545 46.0752 39.0365 46.0752 39.0187C46.0752 38.5666 46.0751 38.2749 46.1039 38.0199C46.3419 35.907 48.0095 34.2394 50.1225 34.0013C50.3775 33.9726 50.6691 33.9726 51.1212 33.9727ZM51.1753 35.4918C50.6507 35.4918 50.4514 35.493 50.2926 35.511C48.8839 35.6697 47.7722 36.7814 47.6135 38.19C47.5956 38.3489 47.5944 38.5482 47.5944 39.0728C47.5944 39.5974 47.5956 39.7967 47.6135 39.9555C47.7722 41.3642 48.8839 42.4759 50.2926 42.6346C50.4514 42.6525 50.6507 42.6537 51.1753 42.6537C51.6999 42.6537 51.8992 42.6525 52.0581 42.6346C53.4667 42.4759 54.5784 41.3642 54.7371 39.9555C54.755 39.7967 54.7562 39.5974 54.7562 39.0728C54.7562 38.5482 54.755 38.3489 54.7371 38.19C54.5784 36.7814 53.4667 35.6697 52.0581 35.511C51.8992 35.493 51.6999 35.4918 51.1753 35.4918Z" fill="#8E44F4"/>
<path fill-rule="evenodd" clip-rule="evenodd" d="M51.1212 45.9102C51.139 45.9102 51.157 45.9102 51.1753 45.9102C51.1936 45.9102 51.2116 45.9102 51.2294 45.9102C51.6815 45.9101 51.9732 45.9101 52.2282 45.9388C54.3411 46.1769 56.0087 47.8445 56.2468 49.9574C56.2755 50.2124 56.2755 50.5041 56.2754 50.9562C56.2754 50.974 56.2754 50.992 56.2754 51.0103C56.2754 51.0286 56.2754 51.0466 56.2754 51.0644C56.2755 51.5165 56.2755 51.8081 56.2468 52.0631C56.0087 54.1761 54.3411 55.8437 52.2282 56.0817C51.9732 56.1105 51.6815 56.1104 51.2294 56.1104C51.2116 56.1104 51.1936 56.1104 51.1753 56.1104C51.157 56.1104 51.139 56.1104 51.1212 56.1104C50.6691 56.1104 50.3775 56.1105 50.1225 56.0817C48.0095 55.8437 46.3419 54.1761 46.1039 52.0631C46.0751 51.8081 46.0752 51.5165 46.0752 51.0644C46.0752 51.0466 46.0752 51.0286 46.0752 51.0103C46.0752 50.992 46.0752 50.974 46.0752 50.9562C46.0752 50.5041 46.0751 50.2124 46.1039 49.9574C46.3419 47.8445 48.0095 46.1769 50.1225 45.9388C50.3775 45.9101 50.6691 45.9101 51.1212 45.9102ZM51.1753 47.4293C50.6507 47.4293 50.4514 47.4305 50.2926 47.4485C48.8839 47.6072 47.7722 48.7189 47.6135 50.1275C47.5956 50.2864 47.5944 50.4857 47.5944 51.0103C47.5944 51.5349 47.5956 51.7342 47.6135 51.893C47.7722 53.3017 48.8839 54.4134 50.2926 54.5721C50.4514 54.59 50.6507 54.5912 51.1753 54.5912C51.6999 54.5912 51.8992 54.59 52.0581 54.5721C53.4667 54.4134 54.5784 53.3017 54.7371 51.893C54.755 51.7342 54.7562 51.5349 54.7562 51.0103C54.7562 50.4857 54.755 50.2864 54.7371 50.1275C54.5784 48.7189 53.4667 47.6072 52.0581 47.4485C51.8992 47.4305 51.6999 47.4293 51.1753 47.4293Z" fill="#222628"/>
<path fill-rule="evenodd" clip-rule="evenodd" d="M38.0998 33.9727C38.1175 33.9727 38.1356 33.9727 38.1538 33.9727C38.1721 33.9727 38.1901 33.9727 38.2079 33.9727C38.66 33.9726 38.9517 33.9726 39.2067 34.0013C41.3197 34.2394 42.9872 35.907 43.2253 38.0199C43.254 38.2749 43.254 38.5666 43.254 39.0187C43.2539 39.0365 43.2539 39.0545 43.2539 39.0728C43.2539 39.0911 43.2539 39.1091 43.254 39.1269C43.254 39.579 43.254 39.8706 43.2253 40.1256C42.9872 42.2386 41.3197 43.9062 39.2067 44.1442C38.9517 44.173 38.6601 44.1729 38.2079 44.1729C38.1901 44.1729 38.1721 44.1729 38.1538 44.1729C38.1355 44.1729 38.1175 44.1729 38.0997 44.1729C37.6476 44.1729 37.356 44.173 37.101 44.1442C34.988 43.9062 33.3204 42.2386 33.0824 40.1256C33.0536 39.8706 33.0537 39.579 33.0537 39.1269C33.0537 39.1091 33.0537 39.0911 33.0537 39.0728C33.0537 39.0545 33.0537 39.0365 33.0537 39.0187C33.0537 38.5666 33.0536 38.2749 33.0824 38.0199C33.3204 35.907 34.988 34.2394 37.101 34.0013C37.356 33.9726 37.6476 33.9726 38.0998 33.9727ZM38.1538 35.4918C37.6293 35.4918 37.43 35.493 37.2711 35.511C35.8624 35.6697 34.7507 36.7814 34.592 38.19C34.5741 38.3489 34.5729 38.5482 34.5729 39.0728C34.5729 39.5974 34.5741 39.7967 34.592 39.9555C34.7507 41.3642 35.8624 42.4759 37.2711 42.6346C37.43 42.6525 37.6293 42.6537 38.1538 42.6537C38.6784 42.6537 38.8777 42.6525 39.0366 42.6346C40.4452 42.4759 41.5569 41.3642 41.7157 39.9555C41.7336 39.7967 41.7348 39.5974 41.7348 39.0728C41.7348 38.5482 41.7336 38.3489 41.7157 38.19C41.5569 36.7814 40.4452 35.6697 39.0366 35.511C38.8777 35.493 38.6784 35.4918 38.1538 35.4918Z" fill="#222628"/>
<path fill-rule="evenodd" clip-rule="evenodd" d="M38.0998 45.9102C38.1175 45.9102 38.1356 45.9102 38.1538 45.9102C38.1721 45.9102 38.1901 45.9102 38.2079 45.9102C38.66 45.9101 38.9517 45.9101 39.2067 45.9388C41.3197 46.1769 42.9872 47.8445 43.2253 49.9574C43.254 50.2124 43.254 50.5041 43.254 50.9562C43.2539 50.974 43.2539 50.992 43.2539 51.0103C43.2539 51.0286 43.2539 51.0466 43.254 51.0644C43.254 51.5165 43.254 51.8081 43.2253 52.0631C42.9872 54.1761 41.3197 55.8437 39.2067 56.0817C38.9517 56.1105 38.6601 56.1104 38.2079 56.1104C38.1901 56.1104 38.1721 56.1104 38.1538 56.1104C38.1355 56.1104 38.1175 56.1104 38.0997 56.1104C37.6476 56.1104 37.356 56.1105 37.101 56.0817C34.988 55.8437 33.3204 54.1761 33.0824 52.0631C33.0536 51.8081 33.0537 51.5165 33.0537 51.0644C33.0537 51.0466 33.0537 51.0286 33.0537 51.0103C33.0537 50.992 33.0537 50.974 33.0537 50.9562C33.0537 50.5041 33.0536 50.2124 33.0824 49.9574C33.3204 47.8445 34.988 46.1769 37.101 45.9388C37.356 45.9101 37.6476 45.9101 38.0998 45.9102ZM38.1538 47.4293C37.6293 47.4293 37.43 47.4305 37.2711 47.4485C35.8624 47.6072 34.7507 48.7189 34.592 50.1275C34.5741 50.2864 34.5729 50.4857 34.5729 51.0103C34.5729 51.5349 34.5741 51.7342 34.592 51.893C34.7507 53.3017 35.8624 54.4134 37.2711 54.5721C37.43 54.59 37.6293 54.5912 38.1538 54.5912C38.6784 54.5912 38.8777 54.59 39.0366 54.5721C40.4452 54.4134 41.5569 53.3017 41.7157 51.893C41.7336 51.7342 41.7348 51.5349 41.7348 51.0103C41.7348 50.4857 41.7336 50.2864 41.7157 50.1275C41.5569 48.7189 40.4452 47.6072 39.0366 47.4485C38.8777 47.4305 38.6784 47.4293 38.1538 47.4293Z" fill="#222628"/>
<g filter="url(#filter0_d_289_3335)">
<circle cx="44.6608" cy="44.5074" r="16.277" fill="#29B9E7" fill-opacity="0.2"/>
</g>
<defs>
<filter id="filter0_d_289_3335" x="11.2352" y="17.9413" width="66.851" height="66.8519" filterUnits="userSpaceOnUse" color-interpolation-filters="sRGB">
<feFlood flood-opacity="0" result="BackgroundImageFix"/>
<feColorMatrix in="SourceAlpha" type="matrix" values="0 0 0 0 0 0 0 0 0 0 0 0 0 0 0 0 0 0 127 0" result="hardAlpha"/>
<feOffset dy="6.85945"/>
<feGaussianBlur stdDeviation="8.57431"/>
<feColorMatrix type="matrix" values="0 0 0 0 0.146118 0 0 0 0 0.172389 0 0 0 0 0.441667 0 0 0 0.1 0"/>
<feBlend mode="normal" in2="BackgroundImageFix" result="effect1_dropShadow_289_3335"/>
<feBlend mode="normal" in="SourceGraphic" in2="effect1_dropShadow_289_3335" result="shape"/>
</filter>
</defs>
</svg>
