<svg width="211" height="80" viewBox="0 0 211 80" fill="none" xmlns="http://www.w3.org/2000/svg">
<g filter="url(#filter0_d_289_3315)">
<rect x="5.22354" y="2.59659" width="200.684" height="69.0495" rx="5.40448" stroke="#BBBBBB" stroke-width="1.201" shape-rendering="crispEdges"/>
<g clip-path="url(#clip0_289_3315)">
<path d="M35.9687 26.6435C36.573 25.7618 37.8742 25.7618 38.4784 26.6435L41.2099 30.629C41.4077 30.9176 41.699 31.1293 42.0346 31.2282L46.6691 32.5944C47.6944 32.8966 48.0965 34.1341 47.4447 34.9813L44.4983 38.8106C44.2849 39.0879 44.1736 39.4303 44.1833 39.7801L44.3161 44.61C44.3455 45.6784 43.2928 46.4433 42.2857 46.0852L37.7333 44.4663C37.4036 44.3491 37.0436 44.3491 36.7139 44.4663L32.1615 46.0851C31.1544 46.4433 30.1017 45.6785 30.131 44.61L30.2639 39.7801C30.2735 39.4303 30.1623 39.0879 29.9489 38.8106L27.0025 34.9813C26.3507 34.1341 26.7528 32.8966 27.7781 32.5944L32.4125 31.2282C32.7482 31.1293 33.0395 30.9176 33.2373 30.629L35.9687 26.6435Z" fill="#FFB525"/>
<path d="M70.4521 26.6435C71.0564 25.7618 72.3576 25.7618 72.9618 26.6435L75.6933 30.629C75.8911 30.9176 76.1824 31.1293 76.518 31.2282L81.1525 32.5944C82.1778 32.8966 82.5799 34.1341 81.928 34.9813L78.9817 38.8106C78.7683 39.0879 78.657 39.4303 78.6667 39.7801L78.7995 44.61C78.8289 45.6784 77.7762 46.4433 76.7691 46.0852L72.2167 44.4663C71.887 44.3491 71.527 44.3491 71.1973 44.4663L66.6449 46.0851C65.6378 46.4433 64.5851 45.6785 64.6144 44.61L64.7473 39.7801C64.7569 39.4303 64.6457 39.0879 64.4323 38.8106L61.4859 34.9813C60.8341 34.1341 61.2362 32.8966 62.2615 32.5944L66.8959 31.2282C67.2316 31.1293 67.5228 30.9176 67.7207 30.629L70.4521 26.6435Z" fill="#FFB525"/>
<path d="M104.935 26.6435C105.539 25.7618 106.84 25.7618 107.444 26.6435L110.176 30.629C110.374 30.9176 110.665 31.1293 111 31.2282L115.635 32.5944C116.66 32.8966 117.062 34.1341 116.41 34.9813L113.464 38.8106C113.251 39.0879 113.139 39.4303 113.149 39.7801L113.282 44.61C113.311 45.6784 112.259 46.4433 111.251 46.0852L106.699 44.4663C106.369 44.3491 106.009 44.3491 105.68 44.4663L101.127 46.0851C100.12 46.4433 99.0675 45.6785 99.0969 44.61L99.2297 39.7801C99.2393 39.4303 99.1281 39.0879 98.9147 38.8106L95.9683 34.9813C95.3165 34.1341 95.7186 32.8966 96.7439 32.5944L101.378 31.2282C101.714 31.1293 102.005 30.9176 102.203 30.629L104.935 26.6435Z" fill="#FFB525"/>
<path d="M139.416 26.6435C140.02 25.7618 141.321 25.7618 141.926 26.6435L144.657 30.629C144.855 30.9176 145.146 31.1293 145.482 31.2282L150.116 32.5944C151.142 32.8966 151.544 34.1341 150.892 34.9813L147.946 38.8106C147.732 39.0879 147.621 39.4303 147.631 39.7801L147.763 44.61C147.793 45.6784 146.74 46.4433 145.733 46.0852L141.181 44.4663C140.851 44.3491 140.491 44.3491 140.161 44.4663L135.609 46.0851C134.602 46.4433 133.549 45.6785 133.578 44.61L133.711 39.7801C133.721 39.4303 133.61 39.0879 133.396 38.8106L130.45 34.9813C129.798 34.1341 130.2 32.8966 131.225 32.5944L135.86 31.2282C136.195 31.1293 136.487 30.9176 136.685 30.629L139.416 26.6435Z" fill="#FFB525"/>
<path d="M173.9 26.6435C174.504 25.7618 175.805 25.7618 176.41 26.6435L179.141 30.629C179.339 30.9176 179.63 31.1293 179.966 31.2282L184.6 32.5944C185.626 32.8966 186.028 34.1341 185.376 34.9813L182.429 38.8106C182.216 39.0879 182.105 39.4303 182.114 39.7801L182.247 44.61C182.277 45.6784 181.224 46.4433 180.217 46.0852L175.664 44.4663C175.335 44.3491 174.975 44.3491 174.645 44.4663L170.093 46.0851C169.086 46.4433 168.033 45.6785 168.062 44.61L168.195 39.7801C168.205 39.4303 168.093 39.0879 167.88 38.8106L164.934 34.9813C164.282 34.1341 164.684 32.8966 165.709 32.5944L170.344 31.2282C170.679 31.1293 170.971 30.9176 171.168 30.629L173.9 26.6435Z" fill="#FFB525"/>
</g>
</g>
<defs>
<filter id="filter0_d_289_3315" x="0.53079" y="0.632008" width="210.069" height="78.4345" filterUnits="userSpaceOnUse" color-interpolation-filters="sRGB">
<feFlood flood-opacity="0" result="BackgroundImageFix"/>
<feColorMatrix in="SourceAlpha" type="matrix" values="0 0 0 0 0 0 0 0 0 0 0 0 0 0 0 0 0 0 127 0" result="hardAlpha"/>
<feOffset dy="2.72817"/>
<feGaussianBlur stdDeviation="2.04613"/>
<feComposite in2="hardAlpha" operator="out"/>
<feColorMatrix type="matrix" values="0 0 0 0 0.254902 0 0 0 0 0.231373 0 0 0 0 0.537255 0 0 0 0.1 0"/>
<feBlend mode="normal" in2="BackgroundImageFix" result="effect1_dropShadow_289_3315"/>
<feBlend mode="normal" in="SourceGraphic" in2="effect1_dropShadow_289_3315" result="shape"/>
</filter>
<clipPath id="clip0_289_3315">
<rect width="193.294" height="24.3407" fill="white" transform="translate(8.82617 24.8125)"/>
</clipPath>
</defs>
</svg>
