<svg width="211" height="79" viewBox="0 0 211 79" fill="none" xmlns="http://www.w3.org/2000/svg">
<g filter="url(#filter0_d_289_3287)">
<rect x="5.27823" y="2.34269" width="200.684" height="69.0495" rx="5.40448" stroke="#BBBBBB" stroke-width="1.201" shape-rendering="crispEdges"/>
<g clip-path="url(#clip0_289_3287)">
<path d="M36.0229 26.8505C36.6272 25.9688 37.9284 25.9688 38.5326 26.8505L41.2641 30.836C41.4619 31.1247 41.7532 31.3363 42.0888 31.4352L46.7233 32.8014C47.7486 33.1036 48.1507 34.3412 47.4989 35.1883L44.5525 39.0176C44.3391 39.295 44.2278 39.6374 44.2375 39.9872L44.3703 44.817C44.3997 45.8855 43.347 46.6503 42.3399 46.2922L37.7875 44.6733C37.4578 44.5561 37.0978 44.5561 36.7681 44.6733L32.2157 46.2922C31.2086 46.6503 30.1559 45.8855 30.1852 44.817L30.3181 39.9872C30.3277 39.6374 30.2165 39.295 30.0031 39.0176L27.0567 35.1883C26.4049 34.3411 26.807 33.1036 27.8323 32.8014L32.4667 31.4352C32.8024 31.3363 33.0937 31.1247 33.2915 30.836L36.0229 26.8505Z" fill="#FFB525"/>
<path d="M70.5063 26.8505C71.1106 25.9688 72.4118 25.9688 73.016 26.8505L75.7475 30.836C75.9453 31.1247 76.2366 31.3363 76.5722 31.4352L81.2067 32.8014C82.232 33.1036 82.6341 34.3412 81.9822 35.1883L79.0359 39.0176C78.8225 39.295 78.7112 39.6374 78.7209 39.9872L78.8537 44.817C78.8831 45.8855 77.8304 46.6503 76.8233 46.2922L72.2709 44.6733C71.9412 44.5561 71.5812 44.5561 71.2515 44.6733L66.6991 46.2922C65.692 46.6503 64.6393 45.8855 64.6686 44.817L64.8015 39.9872C64.8111 39.6374 64.6998 39.295 64.4865 39.0176L61.5401 35.1883C60.8883 34.3411 61.2904 33.1036 62.3156 32.8014L66.9501 31.4352C67.2858 31.3363 67.577 31.1247 67.7749 30.836L70.5063 26.8505Z" fill="#DBDBDB"/>
<path d="M104.989 26.8505C105.593 25.9688 106.894 25.9688 107.498 26.8505L110.23 30.836C110.428 31.1247 110.719 31.3363 111.055 31.4352L115.689 32.8014C116.714 33.1036 117.116 34.3412 116.465 35.1883L113.518 39.0176C113.305 39.295 113.194 39.6374 113.203 39.9872L113.336 44.817C113.366 45.8855 112.313 46.6503 111.306 46.2922L106.753 44.6733C106.424 44.5561 106.064 44.5561 105.734 44.6733L101.181 46.2922C100.174 46.6503 99.1217 45.8855 99.1511 44.817L99.2839 39.9872C99.2935 39.6374 99.1823 39.295 98.9689 39.0176L96.0225 35.1883C95.3707 34.3411 95.7728 33.1036 96.7981 32.8014L101.433 31.4352C101.768 31.3363 102.059 31.1247 102.257 30.836L104.989 26.8505Z" fill="#DBDBDB"/>
<path d="M139.471 26.8505C140.075 25.9688 141.376 25.9688 141.98 26.8505L144.712 30.836C144.91 31.1247 145.201 31.3363 145.537 31.4352L150.171 32.8014C151.196 33.1036 151.598 34.3412 150.947 35.1883L148 39.0176C147.787 39.295 147.676 39.6374 147.685 39.9872L147.818 44.817C147.847 45.8855 146.795 46.6503 145.788 46.2922L141.235 44.6733C140.906 44.5561 140.546 44.5561 140.216 44.6733L135.663 46.2922C134.656 46.6503 133.604 45.8855 133.633 44.817L133.766 39.9872C133.775 39.6374 133.664 39.295 133.451 39.0176L130.504 35.1883C129.853 34.3411 130.255 33.1036 131.28 32.8014L135.914 31.4352C136.25 31.3363 136.541 31.1247 136.739 30.836L139.471 26.8505Z" fill="#DBDBDB"/>
<path d="M173.954 26.8505C174.558 25.9688 175.86 25.9688 176.464 26.8505L179.195 30.836C179.393 31.1247 179.684 31.3363 180.02 31.4352L184.654 32.8014C185.68 33.1036 186.082 34.3412 185.43 35.1883L182.484 39.0176C182.27 39.295 182.159 39.6374 182.169 39.9872L182.301 44.817C182.331 45.8855 181.278 46.6503 180.271 46.2922L175.719 44.6733C175.389 44.5561 175.029 44.5561 174.699 44.6733L170.147 46.2922C169.14 46.6503 168.087 45.8855 168.116 44.817L168.249 39.9872C168.259 39.6374 168.148 39.295 167.934 39.0176L164.988 35.1883C164.336 34.3411 164.738 33.1036 165.763 32.8014L170.398 31.4352C170.734 31.3363 171.025 31.1247 171.223 30.836L173.954 26.8505Z" fill="#DBDBDB"/>
</g>
</g>
<defs>
<filter id="filter0_d_289_3287" x="0.585478" y="0.378102" width="210.069" height="78.4345" filterUnits="userSpaceOnUse" color-interpolation-filters="sRGB">
<feFlood flood-opacity="0" result="BackgroundImageFix"/>
<feColorMatrix in="SourceAlpha" type="matrix" values="0 0 0 0 0 0 0 0 0 0 0 0 0 0 0 0 0 0 127 0" result="hardAlpha"/>
<feOffset dy="2.72817"/>
<feGaussianBlur stdDeviation="2.04613"/>
<feComposite in2="hardAlpha" operator="out"/>
<feColorMatrix type="matrix" values="0 0 0 0 0.254902 0 0 0 0 0.231373 0 0 0 0 0.537255 0 0 0 0.1 0"/>
<feBlend mode="normal" in2="BackgroundImageFix" result="effect1_dropShadow_289_3287"/>
<feBlend mode="normal" in="SourceGraphic" in2="effect1_dropShadow_289_3287" result="shape"/>
</filter>
<clipPath id="clip0_289_3287">
<rect width="193.294" height="24.3407" fill="white" transform="translate(8.88086 25.0195)"/>
</clipPath>
</defs>
</svg>
