<svg width="211" height="79" viewBox="0 0 211 79" fill="none" xmlns="http://www.w3.org/2000/svg">
<g filter="url(#filter0_d_289_3294)">
<rect x="4.88956" y="2.34269" width="200.684" height="69.0495" rx="5.40448" stroke="#BBBBBB" stroke-width="1.201" shape-rendering="crispEdges"/>
<g clip-path="url(#clip0_289_3294)">
<path d="M35.8129 26.8505C36.4172 25.9688 37.7184 25.9688 38.3227 26.8505L41.0541 30.836C41.2519 31.1247 41.5432 31.3363 41.8788 31.4352L46.5133 32.8014C47.5386 33.1036 47.9407 34.3412 47.2889 35.1883L44.3425 39.0176C44.1291 39.295 44.0179 39.6374 44.0275 39.9872L44.1603 44.817C44.1897 45.8855 43.137 46.6503 42.1299 46.2922L37.5775 44.6733C37.2478 44.5561 36.8878 44.5561 36.5581 44.6733L32.0057 46.2922C30.9986 46.6503 29.9459 45.8855 29.9753 44.817L30.1081 39.9872C30.1177 39.6374 30.0065 39.295 29.7931 39.0176L26.8467 35.1883C26.1949 34.3411 26.597 33.1036 27.6223 32.8014L32.2568 31.4352C32.5924 31.3363 32.8837 31.1247 33.0815 30.836L35.8129 26.8505Z" fill="#FFB525"/>
<path d="M70.2959 26.8505C70.9001 25.9688 72.2013 25.9688 72.8056 26.8505L75.537 30.836C75.7348 31.1247 76.0261 31.3363 76.3618 31.4352L80.9962 32.8014C82.0215 33.1036 82.4236 34.3412 81.7718 35.1883L78.8254 39.0176C78.612 39.295 78.5008 39.6374 78.5104 39.9872L78.6432 44.817C78.6726 45.8855 77.6199 46.6503 76.6128 46.2922L72.0604 44.6733C71.7307 44.5561 71.3707 44.5561 71.041 44.6733L66.4886 46.2922C65.4815 46.6503 64.4288 45.8855 64.4582 44.817L64.591 39.9872C64.6007 39.6374 64.4894 39.295 64.276 39.0176L61.3296 35.1883C60.6778 34.3411 61.0799 33.1036 62.1052 32.8014L66.7397 31.4352C67.0753 31.3363 67.3666 31.1247 67.5644 30.836L70.2959 26.8505Z" fill="#FFB525"/>
<path d="M104.779 26.8505C105.383 25.9688 106.684 25.9688 107.289 26.8505L110.02 30.836C110.218 31.1247 110.509 31.3363 110.845 31.4352L115.479 32.8014C116.504 33.1036 116.907 34.3412 116.255 35.1883L113.308 39.0176C113.095 39.295 112.984 39.6374 112.993 39.9872L113.126 44.817C113.156 45.8855 112.103 46.6503 111.096 46.2922L106.543 44.6733C106.214 44.5561 105.854 44.5561 105.524 44.6733L100.972 46.2922C99.9644 46.6503 98.9117 45.8855 98.9411 44.817L99.0739 39.9872C99.0836 39.6374 98.9723 39.295 98.7589 39.0176L95.8126 35.1883C95.1607 34.3411 95.5628 33.1036 96.5881 32.8014L101.223 31.4352C101.558 31.3363 101.85 31.1247 102.047 30.836L104.779 26.8505Z" fill="#DBDBDB"/>
<path d="M139.261 26.8505C139.865 25.9688 141.166 25.9688 141.77 26.8505L144.502 30.836C144.7 31.1247 144.991 31.3363 145.327 31.4352L149.961 32.8014C150.986 33.1036 151.388 34.3412 150.737 35.1883L147.79 39.0176C147.577 39.295 147.466 39.6374 147.475 39.9872L147.608 44.817C147.637 45.8855 146.585 46.6503 145.578 46.2922L141.025 44.6733C140.696 44.5561 140.336 44.5561 140.006 44.6733L135.453 46.2922C134.446 46.6503 133.394 45.8855 133.423 44.817L133.556 39.9872C133.565 39.6374 133.454 39.295 133.241 39.0176L130.294 35.1883C129.643 34.3411 130.045 33.1036 131.07 32.8014L135.705 31.4352C136.04 31.3363 136.331 31.1247 136.529 30.836L139.261 26.8505Z" fill="#DBDBDB"/>
<path d="M173.744 26.8505C174.348 25.9688 175.649 25.9688 176.253 26.8505L178.985 30.836C179.183 31.1247 179.474 31.3363 179.81 31.4352L184.444 32.8014C185.469 33.1036 185.871 34.3412 185.22 35.1883L182.273 39.0176C182.06 39.295 181.949 39.6374 181.958 39.9872L182.091 44.817C182.12 45.8855 181.068 46.6503 180.061 46.2922L175.508 44.6733C175.178 44.5561 174.818 44.5561 174.489 44.6733L169.936 46.2922C168.929 46.6503 167.877 45.8855 167.906 44.817L168.039 39.9872C168.048 39.6374 167.937 39.295 167.724 39.0176L164.777 35.1883C164.126 34.3411 164.528 33.1036 165.553 32.8014L170.187 31.4352C170.523 31.3363 170.814 31.1247 171.012 30.836L173.744 26.8505Z" fill="#DBDBDB"/>
</g>
</g>
<defs>
<filter id="filter0_d_289_3294" x="0.196806" y="0.378102" width="210.069" height="78.4345" filterUnits="userSpaceOnUse" color-interpolation-filters="sRGB">
<feFlood flood-opacity="0" result="BackgroundImageFix"/>
<feColorMatrix in="SourceAlpha" type="matrix" values="0 0 0 0 0 0 0 0 0 0 0 0 0 0 0 0 0 0 127 0" result="hardAlpha"/>
<feOffset dy="2.72817"/>
<feGaussianBlur stdDeviation="2.04613"/>
<feComposite in2="hardAlpha" operator="out"/>
<feColorMatrix type="matrix" values="0 0 0 0 0.254902 0 0 0 0 0.231373 0 0 0 0 0.537255 0 0 0 0.1 0"/>
<feBlend mode="normal" in2="BackgroundImageFix" result="effect1_dropShadow_289_3294"/>
<feBlend mode="normal" in="SourceGraphic" in2="effect1_dropShadow_289_3294" result="shape"/>
</filter>
<clipPath id="clip0_289_3294">
<rect width="193.294" height="24.3407" fill="white" transform="translate(8.6709 25.0195)"/>
</clipPath>
</defs>
</svg>
