<svg width="203" height="71" viewBox="0 0 203 71" fill="none" xmlns="http://www.w3.org/2000/svg">
<rect x="0.88956" y="1.34269" width="200.684" height="69.0495" rx="5.40448" stroke="#BBBBBB" stroke-width="1.201"/>
<g clip-path="url(#clip0_289_3294)">
<path d="M31.8129 25.8505C32.4172 24.9688 33.7184 24.9688 34.3227 25.8505L37.0541 29.836C37.2519 30.1247 37.5432 30.3363 37.8788 30.4352L42.5133 31.8014C43.5386 32.1036 43.9407 33.3412 43.2889 34.1883L40.3425 38.0176C40.1291 38.295 40.0179 38.6374 40.0275 38.9872L40.1603 43.817C40.1897 44.8855 39.137 45.6503 38.1299 45.2922L33.5775 43.6733C33.2478 43.5561 32.8878 43.5561 32.5581 43.6733L28.0057 45.2922C26.9986 45.6503 25.9459 44.8855 25.9753 43.817L26.1081 38.9872C26.1177 38.6374 26.0065 38.295 25.7931 38.0176L22.8467 34.1883C22.1949 33.3411 22.597 32.1036 23.6223 31.8014L28.2568 30.4352C28.5924 30.3363 28.8837 30.1247 29.0815 29.836L31.8129 25.8505Z" fill="#FFB525"/>
<path d="M66.2959 25.8505C66.9001 24.9688 68.2013 24.9688 68.8056 25.8505L71.537 29.836C71.7348 30.1247 72.0261 30.3363 72.3618 30.4352L76.9962 31.8014C78.0215 32.1036 78.4236 33.3412 77.7718 34.1883L74.8254 38.0176C74.612 38.295 74.5008 38.6374 74.5104 38.9872L74.6432 43.817C74.6726 44.8855 73.6199 45.6503 72.6128 45.2922L68.0604 43.6733C67.7307 43.5561 67.3707 43.5561 67.041 43.6733L62.4886 45.2922C61.4815 45.6503 60.4288 44.8855 60.4582 43.817L60.591 38.9872C60.6007 38.6374 60.4894 38.295 60.276 38.0176L57.3296 34.1883C56.6778 33.3411 57.0799 32.1036 58.1052 31.8014L62.7397 30.4352C63.0753 30.3363 63.3666 30.1247 63.5644 29.836L66.2959 25.8505Z" fill="#FFB525"/>
<path d="M100.779 25.8505C101.383 24.9688 102.684 24.9688 103.289 25.8505L106.02 29.836C106.218 30.1247 106.509 30.3363 106.845 30.4352L111.479 31.8014C112.504 32.1036 112.907 33.3412 112.255 34.1883L109.308 38.0176C109.095 38.295 108.984 38.6374 108.993 38.9872L109.126 43.817C109.156 44.8855 108.103 45.6503 107.096 45.2922L102.543 43.6733C102.214 43.5561 101.854 43.5561 101.524 43.6733L96.9715 45.2922C95.9644 45.6503 94.9117 44.8855 94.9411 43.817L95.0739 38.9872C95.0836 38.6374 94.9723 38.295 94.7589 38.0176L91.8126 34.1883C91.1607 33.3411 91.5628 32.1036 92.5881 31.8014L97.2226 30.4352C97.5582 30.3363 97.8495 30.1247 98.0473 29.836L100.779 25.8505Z" fill="#DBDBDB"/>
<path d="M135.261 25.8505C135.865 24.9688 137.166 24.9688 137.77 25.8505L140.502 29.836C140.7 30.1247 140.991 30.3363 141.327 30.4352L145.961 31.8014C146.986 32.1036 147.388 33.3412 146.737 34.1883L143.79 38.0176C143.577 38.295 143.466 38.6374 143.475 38.9872L143.608 43.817C143.637 44.8855 142.585 45.6503 141.578 45.2922L137.025 43.6733C136.696 43.5561 136.336 43.5561 136.006 43.6733L131.453 45.2922C130.446 45.6503 129.394 44.8855 129.423 43.817L129.556 38.9872C129.565 38.6374 129.454 38.295 129.241 38.0176L126.294 34.1883C125.643 33.3411 126.045 32.1036 127.07 31.8014L131.705 30.4352C132.04 30.3363 132.331 30.1247 132.529 29.836L135.261 25.8505Z" fill="#DBDBDB"/>
<path d="M169.744 25.8505C170.348 24.9688 171.649 24.9688 172.253 25.8505L174.985 29.836C175.183 30.1247 175.474 30.3363 175.81 30.4352L180.444 31.8014C181.469 32.1036 181.871 33.3412 181.22 34.1883L178.273 38.0176C178.06 38.295 177.949 38.6374 177.958 38.9872L178.091 43.817C178.12 44.8855 177.068 45.6503 176.061 45.2922L171.508 43.6733C171.178 43.5561 170.818 43.5561 170.489 43.6733L165.936 45.2922C164.929 45.6503 163.877 44.8855 163.906 43.817L164.039 38.9872C164.048 38.6374 163.937 38.295 163.724 38.0176L160.777 34.1883C160.126 33.3411 160.528 32.1036 161.553 31.8014L166.187 30.4352C166.523 30.3363 166.814 30.1247 167.012 29.836L169.744 25.8505Z" fill="#DBDBDB"/>
</g>
<defs>
<clipPath id="clip0_289_3294">
<rect width="193.294" height="24.3407" fill="white" transform="translate(4.6709 24.0195)"/>
</clipPath>
</defs>
</svg>
