<svg width="211" height="79" viewBox="0 0 211 79" fill="none" xmlns="http://www.w3.org/2000/svg">
<g filter="url(#filter0_d_289_3301)">
<rect x="5.20597" y="2.34269" width="200.684" height="69.0495" rx="5.40448" stroke="#BBBBBB" stroke-width="1.201" shape-rendering="crispEdges"/>
<g clip-path="url(#clip0_289_3301)">
<path d="M35.7988 26.8505C36.403 25.9688 37.7043 25.9688 38.3085 26.8505L41.04 30.836C41.2378 31.1247 41.529 31.3363 41.8647 31.4352L46.4992 32.8014C47.5244 33.1036 47.9265 34.3412 47.2747 35.1883L44.3284 39.0176C44.115 39.295 44.0037 39.6374 44.0133 39.9872L44.1462 44.817C44.1756 45.8855 43.1229 46.6503 42.1158 46.2922L37.5634 44.6733C37.2337 44.5561 36.8736 44.5561 36.5439 44.6733L31.9916 46.2922C30.9844 46.6503 29.9317 45.8855 29.9611 44.817L30.094 39.9872C30.1036 39.6374 29.9923 39.295 29.7789 39.0176L26.8326 35.1883C26.1808 34.3411 26.5829 33.1036 27.6081 32.8014L32.2426 31.4352C32.5783 31.3363 32.8695 31.1247 33.0673 30.836L35.7988 26.8505Z" fill="#FFB525"/>
<path d="M70.2817 26.8505C70.886 25.9688 72.1872 25.9688 72.7914 26.8505L75.5229 30.836C75.7207 31.1247 76.012 31.3363 76.3476 31.4352L80.9821 32.8014C82.0074 33.1036 82.4095 34.3412 81.7576 35.1883L78.8113 39.0176C78.5979 39.295 78.4866 39.6374 78.4963 39.9872L78.6291 44.817C78.6585 45.8855 77.6058 46.6503 76.5987 46.2922L72.0463 44.6733C71.7166 44.5561 71.3565 44.5561 71.0269 44.6733L66.4745 46.2922C65.4674 46.6503 64.4147 45.8855 64.444 44.817L64.5769 39.9872C64.5865 39.6374 64.4752 39.295 64.2619 39.0176L61.3155 35.1883C60.6637 34.3411 61.0658 33.1036 62.091 32.8014L66.7255 31.4352C67.0612 31.3363 67.3524 31.1247 67.5503 30.836L70.2817 26.8505Z" fill="#FFB525"/>
<path d="M104.765 26.8505C105.369 25.9688 106.67 25.9688 107.274 26.8505L110.006 30.836C110.204 31.1247 110.495 31.3363 110.831 31.4352L115.465 32.8014C116.49 33.1036 116.892 34.3412 116.241 35.1883L113.294 39.0176C113.081 39.295 112.97 39.6374 112.979 39.9872L113.112 44.817C113.141 45.8855 112.089 46.6503 111.082 46.2922L106.529 44.6733C106.199 44.5561 105.839 44.5561 105.51 44.6733L100.957 46.2922C99.9503 46.6503 98.8976 45.8855 98.9269 44.817L99.0598 39.9872C99.0694 39.6374 98.9582 39.295 98.7448 39.0176L95.7984 35.1883C95.1466 34.3411 95.5487 33.1036 96.574 32.8014L101.208 31.4352C101.544 31.3363 101.835 31.1247 102.033 30.836L104.765 26.8505Z" fill="#FFB525"/>
<path d="M139.247 26.8505C139.851 25.9688 141.152 25.9688 141.756 26.8505L144.488 30.836C144.686 31.1247 144.977 31.3363 145.312 31.4352L149.947 32.8014C150.972 33.1036 151.374 34.3412 150.722 35.1883L147.776 39.0176C147.563 39.295 147.451 39.6374 147.461 39.9872L147.594 44.817C147.623 45.8855 146.571 46.6503 145.564 46.2922L141.011 44.6733C140.681 44.5561 140.321 44.5561 139.992 44.6733L135.439 46.2922C134.432 46.6503 133.379 45.8855 133.409 44.817L133.542 39.9872C133.551 39.6374 133.44 39.295 133.227 39.0176L130.28 35.1883C129.629 34.3411 130.031 33.1036 131.056 32.8014L135.69 31.4352C136.026 31.3363 136.317 31.1247 136.515 30.836L139.247 26.8505Z" fill="#DBDBDB"/>
<path d="M173.73 26.8505C174.334 25.9688 175.635 25.9688 176.24 26.8505L178.971 30.836C179.169 31.1247 179.46 31.3363 179.796 31.4352L184.43 32.8014C185.456 33.1036 185.858 34.3412 185.206 35.1883L182.26 39.0176C182.046 39.295 181.935 39.6374 181.944 39.9872L182.077 44.817C182.107 45.8855 181.054 46.6503 180.047 46.2922L175.495 44.6733C175.165 44.5561 174.805 44.5561 174.475 44.6733L169.923 46.2922C168.916 46.6503 167.863 45.8855 167.892 44.817L168.025 39.9872C168.035 39.6374 167.923 39.295 167.71 39.0176L164.764 35.1883C164.112 34.3411 164.514 33.1036 165.539 32.8014L170.174 31.4352C170.509 31.3363 170.801 31.1247 170.998 30.836L173.73 26.8505Z" fill="#DBDBDB"/>
</g>
</g>
<defs>
<filter id="filter0_d_289_3301" x="0.513212" y="0.378102" width="210.069" height="78.4345" filterUnits="userSpaceOnUse" color-interpolation-filters="sRGB">
<feFlood flood-opacity="0" result="BackgroundImageFix"/>
<feColorMatrix in="SourceAlpha" type="matrix" values="0 0 0 0 0 0 0 0 0 0 0 0 0 0 0 0 0 0 127 0" result="hardAlpha"/>
<feOffset dy="2.72817"/>
<feGaussianBlur stdDeviation="2.04613"/>
<feComposite in2="hardAlpha" operator="out"/>
<feColorMatrix type="matrix" values="0 0 0 0 0.254902 0 0 0 0 0.231373 0 0 0 0 0.537255 0 0 0 0.1 0"/>
<feBlend mode="normal" in2="BackgroundImageFix" result="effect1_dropShadow_289_3301"/>
<feBlend mode="normal" in="SourceGraphic" in2="effect1_dropShadow_289_3301" result="shape"/>
</filter>
<clipPath id="clip0_289_3301">
<rect width="193.294" height="24.3407" fill="white" transform="translate(8.65674 25.0195)"/>
</clipPath>
</defs>
</svg>
