<svg width="203" height="71" viewBox="0 0 203 71" fill="none" xmlns="http://www.w3.org/2000/svg">
<rect x="1.52286" y="1.34269" width="200.684" height="69.0495" rx="5.40448" stroke="#BBBBBB" stroke-width="1.201"/>
<g clip-path="url(#clip0_289_3308)">
<path d="M32.3852 25.8505C32.9895 24.9688 34.2907 24.9688 34.8949 25.8505L37.6264 29.836C37.8242 30.1247 38.1155 30.3363 38.4511 30.4352L43.0856 31.8014C44.1109 32.1036 44.513 33.3412 43.8612 34.1883L40.9148 38.0176C40.7014 38.295 40.5901 38.6374 40.5998 38.9872L40.7326 43.817C40.762 44.8855 39.7093 45.6503 38.7022 45.2922L34.1498 43.6733C33.8201 43.5561 33.4601 43.5561 33.1304 43.6733L28.578 45.2922C27.5709 45.6503 26.5182 44.8855 26.5476 43.817L26.6804 38.9872C26.69 38.6374 26.5788 38.295 26.3654 38.0176L23.419 34.1883C22.7672 33.3411 23.1693 32.1036 24.1946 31.8014L28.829 30.4352C29.1647 30.3363 29.456 30.1247 29.6538 29.836L32.3852 25.8505Z" fill="#FFB525"/>
<path d="M66.8681 25.8505C67.4724 24.9688 68.7736 24.9688 69.3779 25.8505L72.1093 29.836C72.3071 30.1247 72.5984 30.3363 72.934 30.4352L77.5685 31.8014C78.5938 32.1036 78.9959 33.3412 78.3441 34.1883L75.3977 38.0176C75.1843 38.295 75.0731 38.6374 75.0827 38.9872L75.2155 43.817C75.2449 44.8855 74.1922 45.6503 73.1851 45.2922L68.6327 43.6733C68.303 43.5561 67.943 43.5561 67.6133 43.6733L63.0609 45.2922C62.0538 45.6503 61.0011 44.8855 61.0305 43.817L61.1633 38.9872C61.1729 38.6374 61.0617 38.295 60.8483 38.0176L57.9019 34.1883C57.2501 33.3411 57.6522 32.1036 58.6775 31.8014L63.312 30.4352C63.6476 30.3363 63.9389 30.1247 64.1367 29.836L66.8681 25.8505Z" fill="#FFB525"/>
<path d="M101.351 25.8505C101.955 24.9688 103.256 24.9688 103.86 25.8505L106.592 29.836C106.79 30.1247 107.081 30.3363 107.416 30.4352L112.051 31.8014C113.076 32.1036 113.478 33.3412 112.826 34.1883L109.88 38.0176C109.667 38.295 109.555 38.6374 109.565 38.9872L109.698 43.817C109.727 44.8855 108.675 45.6503 107.668 45.2922L103.115 43.6733C102.785 43.5561 102.425 43.5561 102.096 43.6733L97.5433 45.2922C96.5362 45.6503 95.4835 44.8855 95.5129 43.817L95.6457 38.9872C95.6553 38.6374 95.5441 38.295 95.3307 38.0176L92.3843 34.1883C91.7325 33.3411 92.1346 32.1036 93.1599 31.8014L97.7944 30.4352C98.13 30.3363 98.4213 30.1247 98.6191 29.836L101.351 25.8505Z" fill="#FFB525"/>
<path d="M135.832 25.8505C136.437 24.9688 137.738 24.9688 138.342 25.8505L141.074 29.836C141.271 30.1247 141.563 30.3363 141.898 30.4352L146.533 31.8014C147.558 32.1036 147.96 33.3412 147.308 34.1883L144.362 38.0176C144.149 38.295 144.037 38.6374 144.047 38.9872L144.18 43.817C144.209 44.8855 143.157 45.6503 142.149 45.2922L137.597 43.6733C137.267 43.5561 136.907 43.5561 136.578 43.6733L132.025 45.2922C131.018 45.6503 129.965 44.8855 129.995 43.817L130.128 38.9872C130.137 38.6374 130.026 38.295 129.813 38.0176L126.866 34.1883C126.214 33.3411 126.617 32.1036 127.642 31.8014L132.276 30.4352C132.612 30.3363 132.903 30.1247 133.101 29.836L135.832 25.8505Z" fill="#FFB525"/>
<path d="M170.316 25.8505C170.921 24.9688 172.222 24.9688 172.826 25.8505L175.558 29.836C175.755 30.1247 176.047 30.3363 176.382 30.4352L181.017 31.8014C182.042 32.1036 182.444 33.3412 181.792 34.1883L178.846 38.0176C178.633 38.295 178.521 38.6374 178.531 38.9872L178.664 43.817C178.693 44.8855 177.64 45.6503 176.633 45.2922L172.081 43.6733C171.751 43.5561 171.391 43.5561 171.062 43.6733L166.509 45.2922C165.502 45.6503 164.449 44.8855 164.479 43.817L164.612 38.9872C164.621 38.6374 164.51 38.295 164.297 38.0176L161.35 34.1883C160.698 33.3411 161.1 32.1036 162.126 31.8014L166.76 30.4352C167.096 30.3363 167.387 30.1247 167.585 29.836L170.316 25.8505Z" fill="#DBDBDB"/>
</g>
<defs>
<clipPath id="clip0_289_3308">
<rect width="193.294" height="24.3407" fill="white" transform="translate(5.24316 24.0195)"/>
</clipPath>
</defs>
</svg>
