<svg width="203" height="71" viewBox="0 0 203 71" fill="none" xmlns="http://www.w3.org/2000/svg">
<rect x="1.22354" y="0.596592" width="200.684" height="69.0495" rx="5.40448" stroke="#BBBBBB" stroke-width="1.201"/>
<g clip-path="url(#clip0_289_3315)">
<path d="M31.9687 24.6435C32.573 23.7618 33.8742 23.7618 34.4784 24.6435L37.2099 28.629C37.4077 28.9176 37.699 29.1293 38.0346 29.2282L42.6691 30.5944C43.6944 30.8966 44.0965 32.1341 43.4447 32.9813L40.4983 36.8106C40.2849 37.0879 40.1736 37.4303 40.1833 37.7801L40.3161 42.61C40.3455 43.6784 39.2928 44.4433 38.2857 44.0851L33.7333 42.4663C33.4036 42.3491 33.0436 42.3491 32.7139 42.4663L28.1615 44.0851C27.1544 44.4433 26.1017 43.6784 26.131 42.61L26.2639 37.7801C26.2735 37.4303 26.1623 37.0879 25.9489 36.8106L23.0025 32.9813C22.3507 32.1341 22.7528 30.8966 23.7781 30.5944L28.4125 29.2282C28.7482 29.1293 29.0395 28.9176 29.2373 28.629L31.9687 24.6435Z" fill="#FFB525"/>
<path d="M66.4521 24.6435C67.0564 23.7618 68.3576 23.7618 68.9618 24.6435L71.6933 28.629C71.8911 28.9176 72.1824 29.1293 72.518 29.2282L77.1525 30.5944C78.1778 30.8966 78.5799 32.1341 77.928 32.9813L74.9817 36.8106C74.7683 37.0879 74.657 37.4303 74.6667 37.7801L74.7995 42.61C74.8289 43.6784 73.7762 44.4433 72.7691 44.0851L68.2167 42.4663C67.887 42.3491 67.527 42.3491 67.1973 42.4663L62.6449 44.0851C61.6378 44.4433 60.5851 43.6784 60.6144 42.61L60.7473 37.7801C60.7569 37.4303 60.6457 37.0879 60.4323 36.8106L57.4859 32.9813C56.8341 32.1341 57.2362 30.8966 58.2615 30.5944L62.8959 29.2282C63.2316 29.1293 63.5229 28.9176 63.7207 28.629L66.4521 24.6435Z" fill="#FFB525"/>
<path d="M100.935 24.6435C101.539 23.7618 102.84 23.7618 103.444 24.6435L106.176 28.629C106.374 28.9176 106.665 29.1293 107 29.2282L111.635 30.5944C112.66 30.8966 113.062 32.1341 112.41 32.9813L109.464 36.8106C109.251 37.0879 109.139 37.4303 109.149 37.7801L109.282 42.61C109.311 43.6784 108.259 44.4433 107.251 44.0851L102.699 42.4663C102.369 42.3491 102.009 42.3491 101.68 42.4663L97.1273 44.0851C96.1202 44.4433 95.0675 43.6784 95.0969 42.61L95.2297 37.7801C95.2393 37.4303 95.1281 37.0879 94.9147 36.8106L91.9683 32.9813C91.3165 32.1341 91.7186 30.8966 92.7439 30.5944L97.3784 29.2282C97.714 29.1293 98.0053 28.9176 98.2031 28.629L100.935 24.6435Z" fill="#FFB525"/>
<path d="M135.416 24.6435C136.02 23.7618 137.321 23.7618 137.926 24.6435L140.657 28.629C140.855 28.9176 141.146 29.1293 141.482 29.2282L146.116 30.5944C147.142 30.8966 147.544 32.1341 146.892 32.9813L143.946 36.8106C143.732 37.0879 143.621 37.4303 143.631 37.7801L143.763 42.61C143.793 43.6784 142.74 44.4433 141.733 44.0851L137.181 42.4663C136.851 42.3491 136.491 42.3491 136.161 42.4663L131.609 44.0851C130.602 44.4433 129.549 43.6784 129.578 42.61L129.711 37.7801C129.721 37.4303 129.61 37.0879 129.396 36.8106L126.45 32.9813C125.798 32.1341 126.2 30.8966 127.225 30.5944L131.86 29.2282C132.195 29.1293 132.487 28.9176 132.685 28.629L135.416 24.6435Z" fill="#FFB525"/>
<path d="M169.9 24.6435C170.504 23.7618 171.805 23.7618 172.41 24.6435L175.141 28.629C175.339 28.9176 175.63 29.1293 175.966 29.2282L180.6 30.5944C181.626 30.8966 182.028 32.1341 181.376 32.9813L178.429 36.8106C178.216 37.0879 178.105 37.4303 178.114 37.7801L178.247 42.61C178.277 43.6784 177.224 44.4433 176.217 44.0851L171.664 42.4663C171.335 42.3491 170.975 42.3491 170.645 42.4663L166.093 44.0851C165.086 44.4433 164.033 43.6784 164.062 42.61L164.195 37.7801C164.205 37.4303 164.093 37.0879 163.88 36.8106L160.934 32.9813C160.282 32.1341 160.684 30.8966 161.709 30.5944L166.344 29.2282C166.679 29.1293 166.971 28.9176 167.168 28.629L169.9 24.6435Z" fill="#FFB525"/>
</g>
<defs>
<clipPath id="clip0_289_3315">
<rect width="193.294" height="24.3407" fill="white" transform="translate(4.82617 22.8125)"/>
</clipPath>
</defs>
</svg>
