<svg width="203" height="71" viewBox="0 0 203 71" fill="none" xmlns="http://www.w3.org/2000/svg">
<rect x="1.20597" y="1.34269" width="200.684" height="69.0495" rx="5.40448" stroke="#BBBBBB" stroke-width="1.201"/>
<g clip-path="url(#clip0_289_3301)">
<path d="M31.7988 25.8505C32.403 24.9688 33.7043 24.9688 34.3085 25.8505L37.04 29.836C37.2378 30.1247 37.529 30.3363 37.8647 30.4352L42.4992 31.8014C43.5245 32.1036 43.9265 33.3412 43.2747 34.1883L40.3284 38.0176C40.115 38.295 40.0037 38.6374 40.0133 38.9872L40.1462 43.817C40.1756 44.8855 39.1229 45.6503 38.1158 45.2922L33.5634 43.6733C33.2337 43.5561 32.8736 43.5561 32.5439 43.6733L27.9916 45.2922C26.9844 45.6503 25.9317 44.8855 25.9611 43.817L26.094 38.9872C26.1036 38.6374 25.9923 38.295 25.7789 38.0176L22.8326 34.1883C22.1808 33.3411 22.5829 32.1036 23.6081 31.8014L28.2426 30.4352C28.5783 30.3363 28.8695 30.1247 29.0673 29.836L31.7988 25.8505Z" fill="#FFB525"/>
<path d="M66.2817 25.8505C66.886 24.9688 68.1872 24.9688 68.7914 25.8505L71.5229 29.836C71.7207 30.1247 72.012 30.3363 72.3476 30.4352L76.9821 31.8014C78.0074 32.1036 78.4095 33.3412 77.7576 34.1883L74.8113 38.0176C74.5979 38.295 74.4866 38.6374 74.4963 38.9872L74.6291 43.817C74.6585 44.8855 73.6058 45.6503 72.5987 45.2922L68.0463 43.6733C67.7166 43.5561 67.3565 43.5561 67.0269 43.6733L62.4745 45.2922C61.4674 45.6503 60.4146 44.8855 60.444 43.817L60.5769 38.9872C60.5865 38.6374 60.4752 38.295 60.2619 38.0176L57.3155 34.1883C56.6637 33.3411 57.0658 32.1036 58.091 31.8014L62.7255 30.4352C63.0612 30.3363 63.3524 30.1247 63.5503 29.836L66.2817 25.8505Z" fill="#FFB525"/>
<path d="M100.765 25.8505C101.369 24.9688 102.67 24.9688 103.274 25.8505L106.006 29.836C106.204 30.1247 106.495 30.3363 106.831 30.4352L111.465 31.8014C112.49 32.1036 112.892 33.3412 112.241 34.1883L109.294 38.0176C109.081 38.295 108.97 38.6374 108.979 38.9872L109.112 43.817C109.141 44.8855 108.089 45.6503 107.082 45.2922L102.529 43.6733C102.199 43.5561 101.839 43.5561 101.51 43.6733L96.9574 45.2922C95.9503 45.6503 94.8976 44.8855 94.9269 43.817L95.0598 38.9872C95.0694 38.6374 94.9582 38.295 94.7448 38.0176L91.7984 34.1883C91.1466 33.3411 91.5487 32.1036 92.574 31.8014L97.2084 30.4352C97.5441 30.3363 97.8354 30.1247 98.0332 29.836L100.765 25.8505Z" fill="#FFB525"/>
<path d="M135.247 25.8505C135.851 24.9688 137.152 24.9688 137.756 25.8505L140.488 29.836C140.686 30.1247 140.977 30.3363 141.312 30.4352L145.947 31.8014C146.972 32.1036 147.374 33.3412 146.722 34.1883L143.776 38.0176C143.563 38.295 143.451 38.6374 143.461 38.9872L143.594 43.817C143.623 44.8855 142.571 45.6503 141.564 45.2922L137.011 43.6733C136.681 43.5561 136.321 43.5561 135.992 43.6733L131.439 45.2922C130.432 45.6503 129.379 44.8855 129.409 43.817L129.542 38.9872C129.551 38.6374 129.44 38.295 129.227 38.0176L126.28 34.1883C125.629 33.3411 126.031 32.1036 127.056 31.8014L131.69 30.4352C132.026 30.3363 132.317 30.1247 132.515 29.836L135.247 25.8505Z" fill="#DBDBDB"/>
<path d="M169.73 25.8505C170.334 24.9688 171.635 24.9688 172.24 25.8505L174.971 29.836C175.169 30.1247 175.46 30.3363 175.796 30.4352L180.43 31.8014C181.456 32.1036 181.858 33.3412 181.206 34.1883L178.26 38.0176C178.046 38.295 177.935 38.6374 177.944 38.9872L178.077 43.817C178.107 44.8855 177.054 45.6503 176.047 45.2922L171.495 43.6733C171.165 43.5561 170.805 43.5561 170.475 43.6733L165.923 45.2922C164.916 45.6503 163.863 44.8855 163.892 43.817L164.025 38.9872C164.035 38.6374 163.923 38.295 163.71 38.0176L160.764 34.1883C160.112 33.3411 160.514 32.1036 161.539 31.8014L166.174 30.4352C166.509 30.3363 166.801 30.1247 166.998 29.836L169.73 25.8505Z" fill="#DBDBDB"/>
</g>
<defs>
<clipPath id="clip0_289_3301">
<rect width="193.294" height="24.3407" fill="white" transform="translate(4.65674 24.0195)"/>
</clipPath>
</defs>
</svg>
