<svg width="203" height="71" viewBox="0 0 203 71" fill="none" xmlns="http://www.w3.org/2000/svg">
<rect x="1.27823" y="1.34269" width="200.684" height="69.0495" rx="5.40448" stroke="#BBBBBB" stroke-width="1.201"/>
<g clip-path="url(#clip0_289_3287)">
<path d="M32.0229 25.8505C32.6272 24.9688 33.9284 24.9688 34.5326 25.8505L37.2641 29.836C37.4619 30.1247 37.7532 30.3363 38.0888 30.4352L42.7233 31.8014C43.7486 32.1036 44.1507 33.3412 43.4988 34.1883L40.5525 38.0176C40.3391 38.295 40.2278 38.6374 40.2375 38.9872L40.3703 43.817C40.3997 44.8855 39.347 45.6503 38.3399 45.2922L33.7875 43.6733C33.4578 43.5561 33.0978 43.5561 32.7681 43.6733L28.2157 45.2922C27.2086 45.6503 26.1559 44.8855 26.1852 43.817L26.3181 38.9872C26.3277 38.6374 26.2165 38.295 26.0031 38.0176L23.0567 34.1883C22.4049 33.3411 22.807 32.1036 23.8323 31.8014L28.4667 30.4352C28.8024 30.3363 29.0937 30.1247 29.2915 29.836L32.0229 25.8505Z" fill="#FFB525"/>
<path d="M66.5063 25.8505C67.1106 24.9688 68.4118 24.9688 69.016 25.8505L71.7475 29.836C71.9453 30.1247 72.2366 30.3363 72.5722 30.4352L77.2067 31.8014C78.232 32.1036 78.6341 33.3412 77.9822 34.1883L75.0359 38.0176C74.8225 38.295 74.7112 38.6374 74.7209 38.9872L74.8537 43.817C74.8831 44.8855 73.8304 45.6503 72.8233 45.2922L68.2709 43.6733C67.9412 43.5561 67.5812 43.5561 67.2515 43.6733L62.6991 45.2922C61.692 45.6503 60.6393 44.8855 60.6686 43.817L60.8015 38.9872C60.8111 38.6374 60.6998 38.295 60.4865 38.0176L57.5401 34.1883C56.8883 33.3411 57.2904 32.1036 58.3156 31.8014L62.9501 30.4352C63.2858 30.3363 63.577 30.1247 63.7749 29.836L66.5063 25.8505Z" fill="#DBDBDB"/>
<path d="M100.989 25.8505C101.593 24.9688 102.894 24.9688 103.498 25.8505L106.23 29.836C106.428 30.1247 106.719 30.3363 107.055 30.4352L111.689 31.8014C112.714 32.1036 113.116 33.3412 112.465 34.1883L109.518 38.0176C109.305 38.295 109.194 38.6374 109.203 38.9872L109.336 43.817C109.366 44.8855 108.313 45.6503 107.306 45.2922L102.753 43.6733C102.424 43.5561 102.064 43.5561 101.734 43.6733L97.1815 45.2922C96.1744 45.6503 95.1217 44.8855 95.1511 43.817L95.2839 38.9872C95.2935 38.6374 95.1823 38.295 94.9689 38.0176L92.0225 34.1883C91.3707 33.3411 91.7728 32.1036 92.7981 31.8014L97.4326 30.4352C97.7682 30.3363 98.0595 30.1247 98.2573 29.836L100.989 25.8505Z" fill="#DBDBDB"/>
<path d="M135.471 25.8505C136.075 24.9688 137.376 24.9688 137.98 25.8505L140.712 29.836C140.91 30.1247 141.201 30.3363 141.537 30.4352L146.171 31.8014C147.196 32.1036 147.598 33.3412 146.947 34.1883L144 38.0176C143.787 38.295 143.676 38.6374 143.685 38.9872L143.818 43.817C143.847 44.8855 142.795 45.6503 141.788 45.2922L137.235 43.6733C136.906 43.5561 136.546 43.5561 136.216 43.6733L131.663 45.2922C130.656 45.6503 129.604 44.8855 129.633 43.817L129.766 38.9872C129.775 38.6374 129.664 38.295 129.451 38.0176L126.504 34.1883C125.853 33.3411 126.255 32.1036 127.28 31.8014L131.914 30.4352C132.25 30.3363 132.541 30.1247 132.739 29.836L135.471 25.8505Z" fill="#DBDBDB"/>
<path d="M169.954 25.8505C170.558 24.9688 171.86 24.9688 172.464 25.8505L175.195 29.836C175.393 30.1247 175.684 30.3363 176.02 30.4352L180.654 31.8014C181.68 32.1036 182.082 33.3412 181.43 34.1883L178.484 38.0176C178.27 38.295 178.159 38.6374 178.169 38.9872L178.301 43.817C178.331 44.8855 177.278 45.6503 176.271 45.2922L171.719 43.6733C171.389 43.5561 171.029 43.5561 170.699 43.6733L166.147 45.2922C165.14 45.6503 164.087 44.8855 164.116 43.817L164.249 38.9872C164.259 38.6374 164.148 38.295 163.934 38.0176L160.988 34.1883C160.336 33.3411 160.738 32.1036 161.763 31.8014L166.398 30.4352C166.734 30.3363 167.025 30.1247 167.223 29.836L169.954 25.8505Z" fill="#DBDBDB"/>
</g>
<defs>
<clipPath id="clip0_289_3287">
<rect width="193.294" height="24.3407" fill="white" transform="translate(4.88086 24.0195)"/>
</clipPath>
</defs>
</svg>
