<svg width="211" height="79" viewBox="0 0 211 79" fill="none" xmlns="http://www.w3.org/2000/svg">
<g filter="url(#filter0_d_289_3308)">
<rect x="5.52286" y="2.34269" width="200.684" height="69.0495" rx="5.40448" stroke="#BBBBBB" stroke-width="1.201" shape-rendering="crispEdges"/>
<g clip-path="url(#clip0_289_3308)">
<path d="M36.3852 26.8505C36.9895 25.9688 38.2907 25.9688 38.895 26.8505L41.6264 30.836C41.8242 31.1247 42.1155 31.3363 42.4511 31.4352L47.0856 32.8014C48.1109 33.1036 48.513 34.3412 47.8612 35.1883L44.9148 39.0176C44.7014 39.295 44.5901 39.6374 44.5998 39.9872L44.7326 44.817C44.762 45.8855 43.7093 46.6503 42.7022 46.2922L38.1498 44.6733C37.8201 44.5561 37.4601 44.5561 37.1304 44.6733L32.578 46.2922C31.5709 46.6503 30.5182 45.8855 30.5476 44.817L30.6804 39.9872C30.69 39.6374 30.5788 39.295 30.3654 39.0176L27.419 35.1883C26.7672 34.3411 27.1693 33.1036 28.1946 32.8014L32.829 31.4352C33.1647 31.3363 33.456 31.1247 33.6538 30.836L36.3852 26.8505Z" fill="#FFB525"/>
<path d="M70.8681 26.8505C71.4724 25.9688 72.7736 25.9688 73.3779 26.8505L76.1093 30.836C76.3071 31.1247 76.5984 31.3363 76.934 31.4352L81.5685 32.8014C82.5938 33.1036 82.9959 34.3412 82.3441 35.1883L79.3977 39.0176C79.1843 39.295 79.0731 39.6374 79.0827 39.9872L79.2155 44.817C79.2449 45.8855 78.1922 46.6503 77.1851 46.2922L72.6327 44.6733C72.303 44.5561 71.943 44.5561 71.6133 44.6733L67.0609 46.2922C66.0538 46.6503 65.0011 45.8855 65.0305 44.817L65.1633 39.9872C65.1729 39.6374 65.0617 39.295 64.8483 39.0176L61.9019 35.1883C61.2501 34.3411 61.6522 33.1036 62.6775 32.8014L67.312 31.4352C67.6476 31.3363 67.9389 31.1247 68.1367 30.836L70.8681 26.8505Z" fill="#FFB525"/>
<path d="M105.351 26.8505C105.955 25.9688 107.256 25.9688 107.86 26.8505L110.592 30.836C110.79 31.1247 111.081 31.3363 111.416 31.4352L116.051 32.8014C117.076 33.1036 117.478 34.3412 116.826 35.1883L113.88 39.0176C113.667 39.295 113.555 39.6374 113.565 39.9872L113.698 44.817C113.727 45.8855 112.675 46.6503 111.668 46.2922L107.115 44.6733C106.785 44.5561 106.425 44.5561 106.096 44.6733L101.543 46.2922C100.536 46.6503 99.4835 45.8855 99.5129 44.817L99.6457 39.9872C99.6553 39.6374 99.5441 39.295 99.3307 39.0176L96.3843 35.1883C95.7325 34.3411 96.1346 33.1036 97.1599 32.8014L101.794 31.4352C102.13 31.3363 102.421 31.1247 102.619 30.836L105.351 26.8505Z" fill="#FFB525"/>
<path d="M139.832 26.8505C140.437 25.9688 141.738 25.9688 142.342 26.8505L145.074 30.836C145.271 31.1247 145.563 31.3363 145.898 31.4352L150.533 32.8014C151.558 33.1036 151.96 34.3412 151.308 35.1883L148.362 39.0176C148.149 39.295 148.037 39.6374 148.047 39.9872L148.18 44.817C148.209 45.8855 147.157 46.6503 146.149 46.2922L141.597 44.6733C141.267 44.5561 140.907 44.5561 140.578 44.6733L136.025 46.2922C135.018 46.6503 133.965 45.8855 133.995 44.817L134.128 39.9872C134.137 39.6374 134.026 39.295 133.813 39.0176L130.866 35.1883C130.214 34.3411 130.617 33.1036 131.642 32.8014L136.276 31.4352C136.612 31.3363 136.903 31.1247 137.101 30.836L139.832 26.8505Z" fill="#FFB525"/>
<path d="M174.316 26.8505C174.921 25.9688 176.222 25.9688 176.826 26.8505L179.558 30.836C179.755 31.1247 180.047 31.3363 180.382 31.4352L185.017 32.8014C186.042 33.1036 186.444 34.3412 185.792 35.1883L182.846 39.0176C182.633 39.295 182.521 39.6374 182.531 39.9872L182.664 44.817C182.693 45.8855 181.64 46.6503 180.633 46.2922L176.081 44.6733C175.751 44.5561 175.391 44.5561 175.062 44.6733L170.509 46.2922C169.502 46.6503 168.449 45.8855 168.479 44.817L168.612 39.9872C168.621 39.6374 168.51 39.295 168.297 39.0176L165.35 35.1883C164.698 34.3411 165.1 33.1036 166.126 32.8014L170.76 31.4352C171.096 31.3363 171.387 31.1247 171.585 30.836L174.316 26.8505Z" fill="#DBDBDB"/>
</g>
</g>
<defs>
<filter id="filter0_d_289_3308" x="0.830107" y="0.378102" width="210.069" height="78.4345" filterUnits="userSpaceOnUse" color-interpolation-filters="sRGB">
<feFlood flood-opacity="0" result="BackgroundImageFix"/>
<feColorMatrix in="SourceAlpha" type="matrix" values="0 0 0 0 0 0 0 0 0 0 0 0 0 0 0 0 0 0 127 0" result="hardAlpha"/>
<feOffset dy="2.72817"/>
<feGaussianBlur stdDeviation="2.04613"/>
<feComposite in2="hardAlpha" operator="out"/>
<feColorMatrix type="matrix" values="0 0 0 0 0.254902 0 0 0 0 0.231373 0 0 0 0 0.537255 0 0 0 0.1 0"/>
<feBlend mode="normal" in2="BackgroundImageFix" result="effect1_dropShadow_289_3308"/>
<feBlend mode="normal" in="SourceGraphic" in2="effect1_dropShadow_289_3308" result="shape"/>
</filter>
<clipPath id="clip0_289_3308">
<rect width="193.294" height="24.3407" fill="white" transform="translate(9.24316 25.0195)"/>
</clipPath>
</defs>
</svg>
