<svg width="86" height="27" viewBox="0 0 86 27" fill="none" xmlns="http://www.w3.org/2000/svg">
<rect width="86" height="26.0606" rx="13.0303" fill="#FED7D7"/>
<path fill-rule="evenodd" clip-rule="evenodd" d="M17.4705 4.37891H17.5255C18.9521 4.3789 20.0597 4.3789 20.9441 4.46066C21.8416 4.54363 22.5624 4.7143 23.1988 5.08904C23.9888 5.55426 24.6448 6.22339 25.1009 7.02918C25.4683 7.67825 25.6356 8.41349 25.7169 9.32898C25.7971 10.2311 25.7971 11.3609 25.7971 12.816V12.8719C25.7971 14.327 25.7971 15.4568 25.7169 16.3589C25.6356 17.2744 25.4683 18.0096 25.1009 18.6587C24.6448 19.4645 23.9888 20.1336 23.1988 20.5989C22.5624 20.9736 21.8416 21.1443 20.9441 21.2272C20.0597 21.309 18.952 21.309 17.5255 21.309H17.4706C16.044 21.309 14.9364 21.309 14.052 21.2272C13.1544 21.1443 12.4336 20.9736 11.7973 20.5989C11.0073 20.1336 10.3513 19.4645 9.89519 18.6587C9.52779 18.0096 9.36047 17.2744 9.27913 16.3589C9.19897 15.4568 9.19897 14.3271 9.19897 12.872V12.8159C9.19897 11.3608 9.19897 10.2311 9.27913 9.32898C9.36047 8.41349 9.52779 7.67825 9.89519 7.02918C10.3513 6.22339 11.0073 5.55426 11.7973 5.08904C12.4336 4.7143 13.1544 4.54363 14.052 4.46066C14.9364 4.3789 16.044 4.3789 17.4705 4.37891ZM14.15 5.56371C13.3278 5.63973 12.7837 5.78703 12.3402 6.04823C11.7153 6.41624 11.1964 6.94555 10.8356 7.58296C10.5795 8.03537 10.4351 8.59028 10.3606 9.42896C10.2854 10.2752 10.2848 11.355 10.2848 12.8439C10.2848 14.3329 10.2854 15.4127 10.3606 16.2589C10.4351 17.0976 10.5795 17.6525 10.8356 18.1049C11.1964 18.7423 11.7153 19.2717 12.3402 19.6397C12.7837 19.9009 13.3278 20.0482 14.15 20.1242C14.9797 20.2009 16.0382 20.2014 17.498 20.2014C18.9578 20.2014 20.0164 20.2009 20.8461 20.1242C21.6683 20.0482 22.2123 19.9009 22.6559 19.6397C23.2808 19.2717 23.7997 18.7423 24.1605 18.1049C24.4166 17.6525 24.561 17.0976 24.6355 16.2589C24.7107 15.4127 24.7112 14.3329 24.7112 12.8439C24.7112 11.355 24.7107 10.2752 24.6355 9.42896C24.561 8.59028 24.4166 8.03537 24.1605 7.58296C23.7997 6.94555 23.2808 6.41624 22.6559 6.04823C22.2123 5.78703 21.6683 5.63973 20.8461 5.56371C20.0164 5.48701 18.9578 5.48648 17.498 5.48648C16.0382 5.48648 14.9797 5.48701 14.15 5.56371Z" fill="#222628"/>
<path fill-rule="evenodd" clip-rule="evenodd" d="M22.5394 13.7931H17.1101V12.6855H22.5394C22.8393 12.6855 23.0823 12.9335 23.0823 13.2393C23.0823 13.5452 22.8393 13.7931 22.5394 13.7931Z" fill="#8E44F4"/>
<path fill-rule="evenodd" clip-rule="evenodd" d="M14.7833 14.901C15.6828 14.901 16.412 14.1572 16.412 13.2396C16.412 12.3221 15.6828 11.5783 14.7833 11.5783C13.8837 11.5783 13.1545 12.3221 13.1545 13.2396C13.1545 14.1572 13.8837 14.901 14.7833 14.901ZM14.7833 16.0086C16.2825 16.0086 17.4979 14.7689 17.4979 13.2396C17.4979 11.7104 16.2825 10.4707 14.7833 10.4707C13.284 10.4707 12.0686 11.7104 12.0686 13.2396C12.0686 14.7689 13.284 16.0086 14.7833 16.0086Z" fill="#222628"/>
<path fill-rule="evenodd" clip-rule="evenodd" d="M19.8249 15.7715C19.5251 15.7715 19.282 15.5235 19.282 15.2177L19.282 13.8728C19.282 13.2174 19.8029 12.6861 20.4454 12.6861L21.1435 12.6861C21.7858 12.6861 22.3069 13.217 22.3069 13.8726L22.3069 14.4266C22.3069 14.7324 22.0638 14.9804 21.764 14.9804C21.4641 14.9804 21.221 14.7324 21.221 14.4266L21.221 13.8726C21.221 13.8291 21.1865 13.7937 21.1435 13.7937L20.4454 13.7937C20.4026 13.7937 20.3679 13.8291 20.3679 13.8728L20.3679 15.2177C20.3679 15.5235 20.1248 15.7715 19.8249 15.7715Z" fill="#8E44F4"/>
<path d="M33.4671 10.8129C33.5942 10.8129 33.753 10.8129 33.9437 10.8129C34.1407 10.8129 34.3504 10.8129 34.5728 10.8129C34.8016 10.8066 35.0336 10.8034 35.2687 10.8034C35.5102 10.797 35.7326 10.7939 35.936 10.7939C36.1457 10.7875 36.3332 10.7843 36.4984 10.7843C36.6636 10.7843 36.7844 10.7812 36.8607 10.7748C36.8988 10.7748 36.9909 10.7716 37.1371 10.7653C37.2896 10.7589 37.4549 10.7526 37.6328 10.7462C37.8171 10.7398 37.995 10.7335 38.1666 10.7271C38.3382 10.7144 38.4653 10.7017 38.5479 10.689C38.5606 10.403 38.567 10.1298 38.567 9.86921C38.567 9.60229 38.5606 9.36398 38.5479 9.15426C38.5416 9.06529 38.5257 9.01128 38.5003 8.99221C38.4748 8.96679 38.4176 8.95408 38.3287 8.95408H33.4289C33.3972 8.95408 33.3654 8.94455 33.3336 8.92548C33.3018 8.90006 33.2859 8.87147 33.2859 8.83969V8.49652C33.2859 8.45839 33.3018 8.42979 33.3336 8.41073C33.3654 8.39166 33.3972 8.38213 33.4289 8.38213H38.4717C38.6242 8.38213 38.7449 8.39802 38.8339 8.42979C38.9292 8.46157 39.0023 8.50923 39.0531 8.57278C39.104 8.62997 39.1389 8.70624 39.158 8.80156C39.1771 8.89689 39.1898 9.01128 39.1961 9.14473C39.2025 9.418 39.1993 9.7294 39.1866 10.0789C39.1802 10.4284 39.1612 10.7875 39.1294 11.1561C39.104 11.5183 39.069 11.8742 39.0245 12.2237C38.9864 12.5733 38.9419 12.8815 38.8911 13.1484C38.8847 13.1865 38.8688 13.2215 38.8434 13.2533C38.8244 13.2787 38.7958 13.2882 38.7576 13.2819L38.3668 13.2342C38.3223 13.2278 38.2905 13.2088 38.2715 13.177C38.2524 13.1389 38.2492 13.1007 38.2619 13.0626C38.3128 12.8465 38.3604 12.5796 38.4049 12.2619C38.4494 11.9441 38.4844 11.6073 38.5098 11.2514C38.4208 11.2641 38.2969 11.2737 38.138 11.28C37.9855 11.2864 37.8234 11.2959 37.6519 11.3086C37.4866 11.315 37.3341 11.3213 37.1943 11.3277C37.0545 11.3277 36.9623 11.3277 36.9179 11.3277C36.8162 11.334 36.6732 11.3372 36.4889 11.3372C36.3109 11.3372 36.1139 11.3404 35.8979 11.3468C35.6818 11.3468 35.453 11.3499 35.2115 11.3563C34.9764 11.3563 34.7476 11.3595 34.5252 11.3658C34.3028 11.3658 34.0994 11.3658 33.9151 11.3658C33.7308 11.3658 33.5815 11.3658 33.4671 11.3658C33.3845 11.3658 33.3431 11.3277 33.3431 11.2514V10.9273C33.3431 10.8511 33.3845 10.8129 33.4671 10.8129ZM36.1171 12.1189C36.1489 12.1189 36.1775 12.1348 36.2029 12.1665C36.2283 12.192 36.241 12.2237 36.241 12.2619V14.5402H40.2924C40.3241 14.5402 40.3559 14.5529 40.3877 14.5783C40.4195 14.5973 40.4354 14.6259 40.4354 14.6641V14.9882C40.4354 15.02 40.4195 15.0486 40.3877 15.074C40.3559 15.0994 40.3241 15.1121 40.2924 15.1121H32.1897C32.1516 15.1121 32.1166 15.0994 32.0848 15.074C32.0594 15.0486 32.0467 15.02 32.0467 14.9882V14.6641C32.0467 14.6259 32.0594 14.5973 32.0848 14.5783C32.1166 14.5529 32.1516 14.5402 32.1897 14.5402H35.5833V12.2619C35.5833 12.2237 35.5928 12.192 35.6119 12.1665C35.6373 12.1348 35.6691 12.1189 35.7072 12.1189H36.1171ZM49.3524 14.5402C49.3842 14.5402 49.4159 14.5529 49.4477 14.5783C49.4795 14.5973 49.4954 14.6259 49.4954 14.6641V14.9882C49.4954 15.02 49.4795 15.0486 49.4477 15.074C49.4159 15.0994 49.3842 15.1121 49.3524 15.1121H41.2497C41.2116 15.1121 41.1766 15.0994 41.1449 15.074C41.1194 15.0486 41.1067 15.02 41.1067 14.9882V14.6641C41.1067 14.6259 41.1194 14.5973 41.1449 14.5783C41.1766 14.5529 41.2116 14.5402 41.2497 14.5402H49.3524ZM48.3133 12.4239C48.3133 12.5129 48.272 12.5574 48.1894 12.5574H43.0418C42.7622 12.5574 42.5716 12.5129 42.4699 12.4239C42.3682 12.3286 42.3174 12.1475 42.3174 11.8806V9.12567C42.3174 8.85876 42.3682 8.68081 42.4699 8.59184C42.5716 8.49652 42.7622 8.44886 43.0418 8.44886H48.1227C48.2053 8.44886 48.2466 8.49016 48.2466 8.57278V8.88735C48.2466 8.97632 48.2053 9.02081 48.1227 9.02081H43.2039C43.1149 9.02081 43.0546 9.03987 43.0228 9.078C42.991 9.10978 42.9751 9.17333 42.9751 9.26866V11.7376C42.9751 11.8266 42.991 11.8901 43.0228 11.9282C43.0546 11.9664 43.1149 11.9854 43.2039 11.9854H48.1894C48.272 11.9854 48.3133 12.0267 48.3133 12.1094V12.4239ZM58.7487 12.6813C58.8058 12.675 58.8408 12.6813 58.8535 12.7004C58.8726 12.7131 58.8853 12.7353 58.8916 12.7671L58.9298 13.0721C58.9361 13.1103 58.9298 13.1389 58.9107 13.1579C58.898 13.177 58.863 13.1929 58.8058 13.2056C58.2911 13.2755 57.716 13.3327 57.0805 13.3772C56.4513 13.4217 55.819 13.4439 55.1835 13.4439H53.2007C53.1626 13.4439 53.1276 13.4312 53.0958 13.4058C53.0704 13.3804 53.0577 13.3518 53.0577 13.32V13.034C53.0577 12.9959 53.0704 12.9673 53.0958 12.9482C53.1276 12.9292 53.1626 12.9196 53.2007 12.9196H54.8498C54.9833 12.9196 55.1167 12.9196 55.2502 12.9196C55.39 12.9196 55.5266 12.9164 55.6601 12.9101V12.2619C55.3995 12.2428 55.1612 12.2015 54.9452 12.138C54.7354 12.068 54.5512 11.9823 54.3923 11.8806C54.2398 11.7725 54.119 11.6486 54.03 11.5088C53.9474 11.369 53.9061 11.2165 53.9061 11.0512C53.9061 10.8669 53.957 10.7017 54.0586 10.5555C54.1667 10.403 54.3128 10.2759 54.4971 10.1742C54.6814 10.0662 54.8975 9.9836 55.1453 9.9264C55.3995 9.86921 55.676 9.84061 55.9747 9.84061C56.267 9.84061 56.5403 9.87238 56.7945 9.93593C57.0487 9.99313 57.2679 10.0757 57.4522 10.1838C57.6365 10.2855 57.7795 10.4126 57.8812 10.5651C57.9892 10.7112 58.0432 10.8733 58.0432 11.0512C58.0432 11.2165 57.9988 11.369 57.9098 11.5088C57.8272 11.6486 57.7096 11.7725 57.5571 11.8806C57.4046 11.9823 57.2203 12.068 57.0042 12.138C56.7945 12.2015 56.5657 12.2428 56.3179 12.2619V12.891C56.7246 12.872 57.1249 12.8465 57.519 12.8148C57.9193 12.7766 58.3292 12.7321 58.7487 12.6813ZM59.9879 13.482C59.9879 13.571 59.9434 13.6155 59.8544 13.6155H59.4636C59.3746 13.6155 59.3301 13.571 59.3301 13.482V7.9627C59.3301 7.87373 59.3746 7.82924 59.4636 7.82924H59.8544C59.9434 7.82924 59.9879 7.87373 59.9879 7.9627V10.9083H61.3034C61.3415 10.9083 61.3733 10.921 61.3987 10.9464C61.4305 10.9654 61.4464 10.994 61.4464 11.0322V11.3563C61.4464 11.3881 61.4305 11.4167 61.3987 11.4421C61.3733 11.4675 61.3415 11.4802 61.3034 11.4802H59.9879V13.482ZM54.2493 14.2065C54.2493 14.1684 54.2652 14.1398 54.297 14.1207C54.3287 14.1017 54.3605 14.0921 54.3923 14.0921H59.2634C59.5621 14.0921 59.7559 14.1493 59.8449 14.2637C59.9402 14.3717 59.9879 14.556 59.9879 14.8166V16.5801C59.9879 16.6691 59.9434 16.7136 59.8544 16.7136H59.4636C59.3746 16.7136 59.3301 16.6691 59.3301 16.5801V14.8643C59.3301 14.7753 59.3142 14.7213 59.2825 14.7022C59.2571 14.6768 59.1999 14.6641 59.1109 14.6641H54.3923C54.3605 14.6641 54.3287 14.6545 54.297 14.6355C54.2652 14.6101 54.2493 14.5815 54.2493 14.5497V14.2065ZM57.395 11.0512C57.395 10.8288 57.2616 10.6604 56.9947 10.546C56.7277 10.4253 56.3878 10.3649 55.9747 10.3649C55.7713 10.3649 55.5807 10.3808 55.4027 10.4126C55.2311 10.438 55.0818 10.4793 54.9547 10.5365C54.8276 10.5937 54.7259 10.6668 54.6497 10.7557C54.5797 10.8383 54.5448 10.9369 54.5448 11.0512C54.5448 11.1593 54.5797 11.2578 54.6497 11.3468C54.7259 11.4294 54.8276 11.5024 54.9547 11.566C55.0818 11.6232 55.2311 11.6677 55.4027 11.6995C55.5807 11.7312 55.7713 11.7471 55.9747 11.7471C56.3878 11.7471 56.7277 11.6867 56.9947 11.566C57.2616 11.4389 57.395 11.2673 57.395 11.0512ZM58.5771 9.39258C58.5771 9.47519 58.5294 9.5165 58.4341 9.5165H53.5534C53.5216 9.5165 53.4899 9.50379 53.4581 9.47837C53.4327 9.45295 53.42 9.42118 53.42 9.38305V9.1066C53.42 9.06847 53.4327 9.0367 53.4581 9.01128C53.4899 8.98586 53.5216 8.97315 53.5534 8.97315H58.4341C58.5294 8.97315 58.5771 9.01445 58.5771 9.09707V9.39258ZM57.1853 8.39166C57.1853 8.48063 57.1376 8.52512 57.0423 8.52512H54.8117C54.7799 8.52512 54.7482 8.51558 54.7164 8.49652C54.691 8.4711 54.6783 8.43932 54.6783 8.40119V8.11522C54.6783 8.07709 54.691 8.04531 54.7164 8.01989C54.7418 7.99447 54.7704 7.98176 54.8022 7.98176H57.0423C57.1376 7.98176 57.1853 8.02625 57.1853 8.11522V8.39166ZM69.3815 14.0445C69.3815 14.1334 69.337 14.1779 69.2481 14.1779H68.8572C68.7683 14.1779 68.7238 14.1334 68.7238 14.0445V7.9627C68.7238 7.87373 68.7683 7.82924 68.8572 7.82924H69.2481C69.337 7.82924 69.3815 7.87373 69.3815 7.9627V14.0445ZM69.6675 16.3323C69.6675 16.3704 69.6516 16.399 69.6198 16.4181C69.5881 16.4371 69.5563 16.4467 69.5245 16.4467H64.7487C64.45 16.4467 64.253 16.3895 64.1577 16.2751C64.0687 16.167 64.0242 15.9827 64.0242 15.7222V13.8538C64.0242 13.7648 64.0687 13.7204 64.1577 13.7204H64.5485C64.6375 13.7204 64.682 13.7648 64.682 13.8538V15.6745C64.682 15.7635 64.6947 15.8175 64.7201 15.8366C64.7519 15.862 64.8123 15.8747 64.9012 15.8747H69.5245C69.5563 15.8747 69.5881 15.8842 69.6198 15.9033C69.6516 15.9287 69.6675 15.9573 69.6675 15.9891V16.3323ZM67.0461 10.4698C67.0461 10.8002 66.9889 11.1053 66.8745 11.3849C66.7601 11.6581 66.6012 11.8933 66.3978 12.0903C66.1945 12.2873 65.953 12.443 65.6734 12.5574C65.4001 12.6654 65.1014 12.7194 64.7773 12.7194C64.4659 12.7194 64.1736 12.6654 63.9003 12.5574C63.6271 12.4493 63.3887 12.2968 63.1854 12.0998C62.9884 11.8965 62.8327 11.6581 62.7183 11.3849C62.6039 11.1116 62.5467 10.8066 62.5467 10.4698C62.5467 10.1202 62.6039 9.80566 62.7183 9.52603C62.8327 9.24641 62.9884 9.0081 63.1854 8.81109C63.3887 8.61409 63.6271 8.46474 63.9003 8.36306C64.1736 8.26138 64.4659 8.21054 64.7773 8.21054C65.0696 8.21054 65.3524 8.26138 65.6257 8.36306C65.899 8.46474 66.1405 8.61409 66.3502 8.81109C66.5599 9.00174 66.7283 9.23688 66.8554 9.5165C66.9825 9.79612 67.0461 10.1139 67.0461 10.4698ZM66.3788 10.4602C66.3788 10.1933 66.3343 9.95818 66.2453 9.75482C66.1627 9.5451 66.0483 9.37351 65.9022 9.24006C65.756 9.10025 65.5844 8.99539 65.3874 8.92548C65.1967 8.85558 64.9934 8.82063 64.7773 8.82063C64.5549 8.82063 64.3483 8.85558 64.1577 8.92548C63.9734 8.99539 63.8082 9.10025 63.662 9.24006C63.5222 9.37351 63.411 9.5451 63.3284 9.75482C63.2521 9.95818 63.214 10.1933 63.214 10.4602C63.214 10.7144 63.2521 10.9432 63.3284 11.1466C63.4046 11.3499 63.5127 11.5247 63.6525 11.6709C63.7923 11.8107 63.9575 11.9219 64.1482 12.0045C64.3388 12.0808 64.5485 12.1189 64.7773 12.1189C64.9934 12.1189 65.1967 12.0808 65.3874 12.0045C65.5844 11.9219 65.756 11.8107 65.9022 11.6709C66.0483 11.5247 66.1627 11.3499 66.2453 11.1466C66.3343 10.9432 66.3788 10.7144 66.3788 10.4602Z" fill="#222628"/>
<path d="M31.7607 18.458H70.6684V19.0109H31.7607V18.458Z" fill="#222628"/>
</svg>
