<svg width="139" height="140" viewBox="0 0 139 140" fill="none" xmlns="http://www.w3.org/2000/svg">
<g filter="url(#filter0_d_234_3248)">
<circle cx="60.7302" cy="61.3122" r="60.3747" fill="#FEEAFA"/>
<path d="M66.4572 30.568C67.3207 29.5403 68.743 29.2788 69.855 29.909C72.3533 31.325 75.7226 33.3676 77.8914 35.1899C80.0361 36.9919 82.5204 39.851 84.2755 42.0035C85.0744 42.9835 85.0582 44.4152 84.1999 45.4366L46.799 89.9494C46.0638 90.8245 45.07 91.4137 43.9716 91.6175C41.6862 92.0416 38.0414 92.6723 34.7901 93.0359C33.1591 93.2183 31.6709 93.3283 30.5195 93.3193C29.9412 93.3148 29.4933 93.2803 29.1754 93.2246C29.0843 93.2087 29.016 93.193 28.9668 93.18C28.9455 93.1337 28.9183 93.0692 28.8869 92.9822C28.7773 92.6787 28.6661 92.2433 28.562 91.6745C28.3546 90.5419 28.2066 89.057 28.1051 87.419C27.903 84.1537 27.896 80.4547 27.9199 78.1305C27.9314 77.0133 28.3404 75.9329 29.0757 75.0578L66.4572 30.568Z" stroke="#222628" stroke-width="3.07362"/>
<path d="M59.9492 41.0039C59.9492 41.0039 63.4638 46.3999 66.6344 48.4873C69.805 50.5748 73.7645 52.8502 73.7645 52.8502" stroke="#222628" stroke-width="3.07362" stroke-linecap="round"/>
<line x1="66.8395" y1="93.6233" x2="90.8431" y2="93.6233" stroke="#222628" stroke-width="3.07362" stroke-linecap="round"/>
</g>
<defs>
<filter id="filter0_d_234_3248" x="0.355469" y="0.9375" width="138.314" height="138.314" filterUnits="userSpaceOnUse" color-interpolation-filters="sRGB">
<feFlood flood-opacity="0" result="BackgroundImageFix"/>
<feColorMatrix in="SourceAlpha" type="matrix" values="0 0 0 0 0 0 0 0 0 0 0 0 0 0 0 0 0 0 127 0" result="hardAlpha"/>
<feOffset dx="8.78178" dy="8.78178"/>
<feGaussianBlur stdDeviation="4.39089"/>
<feComposite in2="hardAlpha" operator="out"/>
<feColorMatrix type="matrix" values="0 0 0 0 0 0 0 0 0 0 0 0 0 0 0 0 0 0 0.25 0"/>
<feBlend mode="normal" in2="BackgroundImageFix" result="effect1_dropShadow_234_3248"/>
<feBlend mode="normal" in="SourceGraphic" in2="effect1_dropShadow_234_3248" result="shape"/>
</filter>
</defs>
</svg>
