<svg width="52" height="52" viewBox="0 0 52 52" fill="none" xmlns="http://www.w3.org/2000/svg">
<g clip-path="url(#clip0_107_4789)">
<path d="M25.7958 9.67346C15.0476 9.67346 5.86856 16.3589 2.14966 25.7959C5.86856 35.2328 15.0476 41.9183 25.7958 41.9183C36.5549 41.9183 45.7231 35.2328 49.442 25.7959C45.7231 16.3589 36.5549 9.67346 25.7958 9.67346ZM25.7958 36.5441C19.8628 36.5441 15.0476 31.7289 15.0476 25.7959C15.0476 19.8628 19.8628 15.0476 25.7958 15.0476C31.7289 15.0476 36.5441 19.8628 36.5441 25.7959C36.5441 31.7289 31.7289 36.5441 25.7958 36.5441ZM25.7958 19.3469C22.2382 19.3469 19.3469 22.2382 19.3469 25.7959C19.3469 29.3535 22.2382 32.2448 25.7958 32.2448C29.3535 32.2448 32.2448 29.3535 32.2448 25.7959C32.2448 22.2382 29.3535 19.3469 25.7958 19.3469Z" fill="#6E7173"/>
</g>
<defs>
<clipPath id="clip0_107_4789">
<rect width="51.5917" height="51.5917" fill="white"/>
</clipPath>
</defs>
</svg>
