<svg width="52" height="52" viewBox="0 0 52 52" fill="none" xmlns="http://www.w3.org/2000/svg">
<path fill-rule="evenodd" clip-rule="evenodd" d="M7.68009 5.159L4.84473 7.9481L41.3309 43.8515L44.1662 41.0615L7.68009 5.159V5.159Z" fill="#4E4D4D" fill-opacity="0.6"/>
<path d="M10.8348 13.8423L13.5036 16.4684C10.5821 18.916 8.2558 21.9628 6.75252 24.6285L6.74794 24.6375C10.9346 31.5256 17.5776 38.0353 25.9619 37.0479C28.2251 36.7812 30.3363 36.02 32.2653 34.9309L34.967 37.5884C31.2069 39.9631 26.8967 41.2208 22.2266 40.5992C13.8057 39.4785 6.92006 32.6823 2.57959 24.7005C4.61753 20.6655 7.40529 16.8053 10.8348 13.8423V13.8423ZM16.9047 9.95054C19.2594 8.91814 21.8073 8.31095 24.5282 8.26771C24.6793 8.26681 26.4728 8.35059 27.2858 8.48212C27.7957 8.565 28.3038 8.6686 28.8046 8.79742C36.7925 10.8451 42.7104 17.4899 46.4311 24.3357C44.8701 27.4374 42.8258 30.4643 40.3878 33.0579L37.7996 30.5112C39.6004 28.6013 41.1019 26.4753 42.2582 24.4132C42.2582 24.4132 41.0955 22.5736 40.2138 21.4187C39.6471 20.6763 39.0511 19.9556 38.4249 19.2611C37.9305 18.7133 36.0107 16.853 35.5538 16.4657C32.4887 13.872 28.8898 11.837 24.5731 11.8712C22.9014 11.8973 21.2937 12.2216 19.7675 12.7676L16.9047 9.95054V9.95054Z" fill="#4E4D4D" fill-opacity="0.6"/>
<path fill-rule="evenodd" clip-rule="evenodd" d="M18.0996 20.9919L20.1598 23.0183L28.0897 30.8214C27.0296 31.4069 25.8064 31.7403 24.5055 31.7403C20.4543 31.7403 17.1658 28.5043 17.1658 24.518C17.1658 23.2378 17.5054 22.0351 18.0996 20.9919ZM24.37 17.2975C24.4148 17.2966 24.4606 17.2957 24.5055 17.2957C28.5567 17.2957 31.8452 20.5325 31.8452 24.518C31.8452 24.563 31.8452 24.6071 31.8443 24.6513L24.37 17.2975Z" fill="#4E4D4D" fill-opacity="0.6"/>
</svg>
